<?xml version="1.0" encoding="utf-8"?>
<svg version="1.1" xmlns:xlink="http://www.w3.org/1999/xlink" width="28px" height="35px" xmlns="http://www.w3.org/2000/svg">
  <g transform="matrix(1 0 0 1 -48 -447 )">
    <path d="M 7.777777777777779 11.136363636363638  L 7.777777777777779 16  L 20.22222222222222 16  L 20.22222222222222 11.136363636363638  C 20.22222222222222 9.379734848484848  19.614583333333336 7.87997159090909  18.399305555555557 6.6370738636363615  C 17.18402777777778 5.3941761363636385  15.717592592592595 4.7727272727272725  14 4.7727272727272725  C 12.282407407407408 4.7727272727272725  10.815972222222221 5.3941761363636385  9.600694444444443 6.6370738636363615  C 8.385416666666668 7.87997159090909  7.777777777777779 9.379734848484848  7.777777777777779 11.136363636363638  Z M 27.319444444444443 16.605113636363637  C 27.773148148148152 17.06912878787879  28 17.632575757575754  28 18.295454545454543  L 28 32.61363636363637  C 28 33.276515151515156  27.773148148148152 33.83996212121212  27.319444444444443 34.30397727272727  C 26.865740740740748 34.76799242424242  26.314814814814817 35  25.666666666666664 35  L 2.333333333333333 35  C 1.6851851851851856 35  1.1342592592592595 34.76799242424242  0.6805555555555556 34.30397727272727  C 0.22685185185185183 33.83996212121212  0 33.276515151515156  0 32.61363636363637  L 0 18.295454545454543  C 0 17.632575757575754  0.22685185185185183 17.06912878787879  0.6805555555555556 16.605113636363637  C 1.1342592592592595 16.141098484848484  1.6851851851851856 15.90909090909091  2.333333333333333 15.90909090909091  L 3.1111111111111107 15.90909090909091  L 3.1111111111111107 11.136363636363638  C 3.1111111111111107 8.08712121212121  4.180555555555555 5.46875  6.319444444444445 3.28125  C 8.458333333333332 1.09375  11.018518518518519 0  14 0  C 16.98148148148148 0  19.541666666666664 1.09375  21.680555555555557 3.28125  C 23.819444444444443 5.46875  24.888888888888886 8.08712121212121  24.888888888888886 11.136363636363638  L 24.888888888888886 15.90909090909091  L 25.666666666666664 15.90909090909091  C 26.314814814814817 15.90909090909091  26.865740740740748 16.141098484848484  27.319444444444443 16.605113636363637  Z " fill-rule="nonzero" fill="#900c3f" stroke="none" transform="matrix(1 0 0 1 48 447 )" />
  </g>
</svg>