<?xml version="1.0" encoding="utf-8"?>
<svg version="1.1" xmlns:xlink="http://www.w3.org/1999/xlink" width="34px" height="25px" xmlns="http://www.w3.org/2000/svg">
  <g transform="matrix(1 0 0 1 -298 -465 )">
    <path d="M 25.243861607142858 19.58550347222222  C 27.779947916666668 17.82769097222222  29.88913690476191 15.465856481481477  31.571428571428573 12.5  C 29.648809523809526 9.085648148148149  27.23921130952381 6.532118055555555  24.342633928571427 4.839409722222221  C 25.11421130952381 6.344039351851849  25.5 7.971643518518517  25.5 9.722222222222221  C 25.5 12.39872685185185  24.668340773809526 14.688223379629628  23.005022321428573 16.590711805555554  C 21.34170386904762 18.493200231481477  19.340029761904763 19.444444444444446  17 19.444444444444446  C 14.659970238095239 19.444444444444446  12.658296130952383 18.493200231481477  10.994977678571429 16.590711805555554  C 9.331659226190478 14.688223379629628  8.5 12.39872685185185  8.5 9.722222222222221  C 8.5 7.971643518518517  8.885788690476192 6.344039351851849  9.657366071428571 4.839409722222221  C 6.760788690476192 6.532118055555555  4.351190476190477 9.085648148148149  2.4285714285714284 12.5  C 4.110863095238096 15.465856481481477  6.220052083333334 17.82769097222222  8.756138392857142 19.58550347222222  C 11.292224702380954 21.34331597222222  14.040178571428571 22.22222222222222  17 22.22222222222222  C 19.959821428571427 22.22222222222222  22.70777529761905 21.34331597222222  25.243861607142858 19.58550347222222  Z M 17.645089285714285 4.904513888888889  C 17.82217261904762 4.7019675925925934  17.910714285714285 4.456018518518517  17.910714285714285 4.166666666666666  C 17.910714285714285 3.877314814814814  17.82217261904762 3.6313657407407387  17.645089285714285 3.4288194444444446  C 17.468005952380956 3.2262731481481453  17.25297619047619 3.1249999999999973  17 3.125  C 15.41889880952381 3.1249999999999973  14.062313988095239 3.7724247685185173  12.930245535714286 5.067274305555555  C 11.798177083333334 6.3621238425925934  11.232142857142858 7.913773148148148  11.232142857142858 9.722222222222221  C 11.232142857142858 10.011574074074073  11.320684523809526 10.257523148148149  11.497767857142858 10.460069444444445  C 11.674851190476192 10.662615740740739  11.889880952380954 10.76388888888889  12.142857142857142 10.76388888888889  C 12.395833333333334 10.76388888888889  12.610863095238097 10.662615740740739  12.787946428571429 10.460069444444445  C 12.965029761904763 10.257523148148149  13.053571428571429 10.011574074074073  13.053571428571429 9.722222222222221  C 13.053571428571429 8.47800925925926  13.439360119047619 7.414641203703703  14.2109375 6.532118055555555  C 14.982514880952383 5.6495949074074066  15.912202380952383 5.208333333333331  17 5.208333333333334  C 17.25297619047619 5.208333333333331  17.468005952380956 5.107060185185183  17.645089285714285 4.904513888888889  Z M 33.620535714285715 11.002604166666666  C 33.873511904761905 11.508969907407407  34 12.00810185185185  34 12.5  C 34 12.991898148148145  33.873511904761905 13.491030092592593  33.620535714285715 13.997395833333332  C 31.849702380952387 17.324942129629626  29.468563988095244 19.990596064814817  26.477120535714285 21.99435763888889  C 23.485677083333336 23.998119212962962  20.32663690476191 25  17 25  C 13.673363095238097 25  10.514322916666668 23.994502314814817  7.522879464285714 21.983506944444446  C 4.531436011904762 19.972511574074073  2.1502976190476195 17.310474537037035  0.3794642857142857 13.997395833333332  C 0.12648809523809523 13.491030092592593  0 12.991898148148145  0 12.5  C 0 12.00810185185185  0.12648809523809523 11.508969907407407  0.3794642857142857 11.002604166666666  C 2.1502976190476195 7.689525462962962  4.531436011904762 5.027488425925925  7.522879464285714 3.0164930555555554  C 10.514322916666668 1.0054976851851833  13.673363095238097 0  17 0  C 20.32663690476191 0  23.485677083333336 1.0054976851851833  26.477120535714285 3.0164930555555554  C 29.468563988095244 5.027488425925925  31.849702380952387 7.689525462962962  33.620535714285715 11.002604166666666  Z " fill-rule="nonzero" fill="#900c3f" stroke="none" transform="matrix(1 0 0 1 298 465 )" />
  </g>
</svg>