<?xml version="1.0" encoding="utf-8"?>
<svg version="1.1" xmlns:xlink="http://www.w3.org/1999/xlink" width="34px" height="30px" xmlns="http://www.w3.org/2000/svg">
  <g transform="matrix(1 0 0 1 -298 -462 )">
    <path d="M 2.428571428571427 15  C 4.540922619047618 18.83928571428572  7.241443452380954 21.6294642857143  10.530133928571427 23.3705357142857  L 12.010044642857146 20.2232142857143  C 10.909598214285708 19.2857142857143  10.049479166666664 18.10267857142857  9.4296875 16.67410714285715  C 8.809895833333336 15.245535714285731  8.5 13.735119047619055  8.5 12.142857142857165  C 8.5 10.34226190476192  8.885788690476192 8.668154761904772  9.657366071428573 7.120535714285716  C 6.760788690476191 8.861607142857165  4.351190476190472 11.488095238095228  2.428571428571427 15  Z M 17.645089285714292 7.187500000000015  C 17.822172619047617 6.979166666666662  17.910714285714292 6.726190476190473  17.910714285714292 6.428571428571448  C 17.910714285714292 6.130952380952379  17.822172619047617 5.877976190476189  17.645089285714292 5.669642857142836  C 17.468005952380945 5.461309523809527  17.252976190476183 5.3571428571428505  17 5.3571428571428505  C 15.418898809523817 5.3571428571428505  14.062313988095235 6.023065476190473  12.930245535714292 7.354910714285716  C 11.798177083333336 8.686755952380961  11.232142857142854 10.28273809523808  11.232142857142854 12.142857142857165  C 11.232142857142854 12.44047619047619  11.320684523809527 12.693452380952378  11.497767857142854 12.901785714285731  C 11.674851190476192 13.110119047619039  11.889880952380956 13.214285714285715  12.142857142857146 13.214285714285715  C 12.395833333333327 13.214285714285715  12.610863095238091 13.110119047619039  12.787946428571438 12.901785714285731  C 12.965029761904765 12.693452380952378  13.053571428571438 12.44047619047619  13.053571428571438 12.142857142857165  C 13.053571428571438 10.863095238095214  13.439360119047619 9.769345238095243  14.2109375 8.861607142857165  C 14.982514880952381 7.9538690476190395  15.912202380952381 7.5  17 7.5  C 17.252976190476183 7.5  17.468005952380945 7.395833333333323  17.645089285714292 7.187500000000015  Z M 24.494419642857146 1.562500000000015  C 24.696800595238088 1.7113095238095273  24.797991071428584 1.9122023809523778  24.797991071428584 2.165178571428567  C 24.797991071428584 2.269345238095244  24.79166666666667 2.3363095238094975  24.779017857142854 2.366071428571418  C 23.438244047619055 5.178571428571417  21.439732142857146 9.397321428571418  18.783482142857146 15.022321428571416  C 16.127232142857146 20.647321428571416  14.135044642857146 24.85863095238096  12.806919642857146 27.65625  L 11.877232142857146 29.642857142857135  C 11.750744047619044 29.880952380952365  11.573660714285708 30  11.345982142857146 30  C 11.194196428571427 30  10.346726190476192 29.47916666666666  8.803571428571427 28.437499999999986  C 8.601190476190473 28.28869047619047  8.5 28.080357142857164  8.5 27.812500000000014  C 8.5 27.633928571428584  8.778273809523808 26.98660714285715  9.334821428571427 25.87053571428572  C 7.526041666666663 24.903273809523796  5.859561011904764 23.61607142857143  4.335379464285719 22.008928571428584  C 2.8111979166666634 20.401785714285733  1.4925595238095275 18.578869047619023  0.3794642857142816 16.54017857142855  C 0.12648809523809063 16.078869047619055  0 15.565476190476176  0 15  C 0 14.434523809523826  0.12648809523809063 13.921130952380945  0.3794642857142816 13.459821428571447  C 2.3147321428571455 9.962797619047636  4.718005952380954 7.20238095238093  7.589285714285719 5.178571428571417  C 10.460565476190473 3.1547619047619055  13.597470238095235 2.1428571428571495  17 2.1428571428571495  C 18.125744047619055 2.1428571428571495  19.264136904761912 2.269345238095244  20.415178571428584 2.522321428571433  L 21.439732142857146 0.3571428571428657  C 21.566220238095237 0.11904761904763686  21.743303571428584 0  21.970982142857146 0  C 22.034226190476183 0  22.14806547619047 0.04464285714283577  22.3125 0.1339285714285522  C 22.47693452380953 0.2232142857142686  22.672991071428584 0.3385416666666767  22.900669642857146 0.4799107142857314  C 23.128348214285708 0.6212797619047413  23.337053571428584 0.7589285714285672  23.526785714285708 0.8928571428571642  C 23.716517857142854 1.0267857142857164  23.915736607142854 1.1644345238094973  24.124441964285708 1.3058035714285523  C 24.333147321428584 1.447172619047607  24.456473214285708 1.5327380952380947  24.494419642857146 1.562500000000015  Z M 25.348214285714292 10.267857142857165  C 25.449404761904763 10.937500000000014  25.5 11.562499999999986  25.5 12.142857142857165  C 25.5 14.211309523809511  25.00037202380953 16.097470238095244  24.001116071428584 17.801339285714267  C 23.001860119047617 19.50520833333334  21.68005952380953 20.729166666666675  20.035714285714292 21.47321428571428  L 21.16045220759832 19.100867912664782  L 25.348214285714292 10.267857142857165  Z M 33.62053571428571 13.459821428571447  C 33.87351190476191 13.965773809523826  34 14.479166666666663  34 15  C 34 15.520833333333337  33.87351190476191 16.034226190476176  33.62053571428571 16.54017857142855  C 33.127232142857146 17.492559523809515  32.437872023809526 18.57142857142857  31.552455357142854 19.77678571428572  C 29.655133928571416 22.33630952380953  27.45740327380953 24.32291666666666  24.959263392857146 25.736607142857164  C 22.461123511904763 27.15029761904762  19.808035714285708 27.85714285714285  17 27.85714285714285  L 18.404017857142854 24.9107142857143  C 21.08556547619047 24.64285714285715  23.567894345238088 23.62351190476189  25.851004464285708 21.85267857142857  C 28.134114583333346 20.081845238095244  30.040922619047617 17.79761904761904  31.571428571428584 15  C 30.11681547619047 12.336309523809511  28.333333333333346 10.148809523809527  26.220982142857146 8.4375  L 27.416294642857146 5.937499999999985  C 28.617931547619055 6.8898809523809454  29.77213541666667 8.028273809523796  30.87890625 9.352678571428582  C 31.985677083333346 10.677083333333323  32.899553571428584 12.046130952380945  33.62053571428571 13.459821428571447  Z " fill-rule="nonzero" fill="#900c3f" stroke="none" transform="matrix(1 0 0 1 298 462 )" />
  </g>
</svg>