<?xml version="1.0" encoding="utf-8"?>
<svg version="1.1" xmlns:xlink="http://www.w3.org/1999/xlink" width="23px" height="15px" xmlns="http://www.w3.org/2000/svg">
  <g transform="matrix(1 0 0 1 -262 -24 )">
    <path d="M 22.31975446428571 6.778125  C 22.77325148809524 7.615624999999998  23 8.65625  23 9.899999999999999  C 23 10.937499999999998  22.456659226190478 12.346875  21.36997767857143 14.128125  C 21.34430803571429 14.171875  21.29938616071429 14.246875000000001  21.23521205357143 14.353125  C 21.171037946428573 14.459374999999998  21.113281250000004 14.553125  21.06194196428571 14.634374999999999  C 21.01060267857143 14.715625000000001  20.95498511904762 14.784374999999999  20.89508928571429 14.840625  C 20.79241071428571 14.946875  20.672619047619047 15  20.53571428571429 15  C 20.40736607142857 15  20.306826636904763 14.96875  20.234095982142858 14.90625  C 20.161365327380956 14.843749999999998  20.125 14.765625  20.125 14.671875  C 20.125 14.615625  20.135695684523814 14.5328125  20.15708705357143 14.4234375  C 20.178478422619047 14.314062499999999  20.189174107142858 14.240625  20.189174107142858 14.203125  C 20.231956845238095 13.778125000000001  20.25334821428572 13.39375  20.25334821428571 13.05  C 20.25334821428572 12.418750000000001  20.17847842261905 11.853124999999999  20.02873883928571 11.353124999999999  C 19.878999255952383 10.853124999999999  19.671502976190478 10.4203125  19.40625 10.0546875  C 19.140997023809526 9.6890625  18.79873511904762 9.373437499999998  18.37946428571429 9.1078125  C 17.960193452380956 8.8421875  17.50883556547619 8.625  17.025390625 8.456249999999999  C 16.541945684523814 8.2875  15.972935267857142 8.1546875  15.318359375 8.057812499999999  C 14.663783482142858 7.9609375  14.00492931547619 7.89375  13.341796875 7.856249999999999  C 12.67866443452381 7.81875  11.927827380952381 7.800000000000001  11.089285714285715 7.800000000000001  L 8.214285714285715 7.800000000000001  L 8.214285714285715 10.2  C 8.214285714285715 10.362499999999999  8.132998511904763 10.503125  7.970424107142857 10.621875  C 7.807849702380953 10.740624999999998  7.615327380952382 10.799999999999999  7.392857142857143 10.799999999999999  C 7.170386904761906 10.799999999999999  6.977864583333334 10.740624999999998  6.815290178571429 10.621875  L 0.24386160714285715 5.821875  C 0.08128720238095238 5.703124999999999  0 5.562499999999998  0 5.3999999999999995  C 0 5.237499999999999  0.08128720238095238 5.096874999999999  0.24386160714285715 4.978125  L 6.815290178571429 0.17812499999999953  C 6.977864583333334 0.05937499999999929  7.170386904761906 0  7.392857142857143 0  C 7.615327380952382 0  7.807849702380953 0.05937499999999929  7.970424107142857 0.17812499999999953  C 8.132998511904763 0.2968749999999981  8.214285714285715 0.43749999999999845  8.214285714285715 0.6000000000000005  L 8.214285714285715 2.999999999999999  L 11.089285714285715 2.999999999999999  C 17.190104166666668 2.999999999999999  20.93359375 4.2593749999999995  22.31975446428571 6.778125  Z " fill-rule="nonzero" fill="#ffffff" stroke="none" transform="matrix(1 0 0 1 262 24 )" />
  </g>
</svg>