<?xml version="1.0" encoding="utf-8"?>
<svg version="1.1" xmlns:xlink="http://www.w3.org/1999/xlink" width="163px" height="105px" xmlns="http://www.w3.org/2000/svg">
  <g transform="matrix(1 0 0 1 -126 -1936 )">
    <path d="M 9.621527777777777 62.30769230769231  C 10.376157407407408 63.846153846153854  11.69675925925926 64.61538461538461  13.583333333333332 64.61538461538461  C 15.469907407407408 64.61538461538461  16.79050925925926 63.846153846153854  17.54513888888889 62.30769230769231  C 18.29976851851852 60.76923076923077  18.29976851851852 59.23076923076923  17.54513888888889 57.6923076923077  C 16.79050925925926 56.15384615384615  15.469907407407408 55.38461538461539  13.583333333333332 55.38461538461539  C 11.69675925925926 55.38461538461539  10.376157407407408 56.15384615384615  9.621527777777777 57.6923076923077  C 8.866898148148149 59.23076923076923  8.866898148148149 60.76923076923077  9.621527777777777 62.30769230769231  Z M 119.95073784722221 65.73317307692308  C 119.78566261574078 63.83413461538461  119.06640625000001 62.06730769230768  117.79296875 60.4326923076923  C 117.32132523148148 59.80769230769231  116.41341145833334 58.60576923076922  115.06922743055556 56.82692307692309  C 113.72504340277779 55.04807692307691  112.74638310185185 53.74999999999999  112.13324652777779 52.93269230769231  C 111.52010995370371 52.11538461538461  110.62398726851853 50.93749999999999  109.44487847222221 49.39903846153846  C 108.26576967592594 47.86057692307692  107.26352719907408 46.58653846153846  106.43815104166666 45.57692307692308  C 105.61277488425927 44.5673076923077  104.65769675925927 43.4375  103.57291666666666 42.1875  C 102.48813657407408 40.93749999999999  101.42693865740742 39.75961538461539  100.38932291666666 38.65384615384615  L 91.54600694444444 48.75  C 87.63136574074075 53.26923076923077  82.71448206018519 55.48076923076922  76.79535590277779 55.38461538461539  C 70.87622974537038 55.288461538461526  66.03009259259261 52.93269230769231  62.25694444444444 48.31730769230769  C 59.56857638888889 45  58.23618344907408 41.20192307692307  58.259765625 36.92307692307692  C 58.283347800925924 32.64423076923077  59.662905092592595 28.8701923076923  62.3984375 25.60096153846154  L 74.92057291666667 10.745192307692305  C 73.88295717592594 10.21634615384614  72.68026620370371 9.819711538461528  71.3125 9.555288461538463  C 69.9447337962963 9.290865384615374  68.82458043981481 9.146634615384606  67.95203993055556 9.122596153846157  C 67.0794994212963 9.098557692307683  65.7471064814815 9.110576923076914  63.95486111111111 9.158653846153848  C 62.16261574074074 9.20673076923076  61.007089120370374 9.230769230769234  60.48828125 9.230769230769234  C 56.14916087962963 9.230769230769234  52.42317708333333 10.817307692307688  49.31032986111111 13.990384615384613  L 38.13237847222222 26  L 28 26  L 28 64.61538461538461  C 27.402488425925927 64.61538461538461  27.89771412037037 64.6033653846154  28.65234375 64.57932692307692  C 29.406973379629633 64.55528846153845  29.92578125 64.55528846153845  30.20876736111111 64.57932692307692  C 30.49175347222222 64.6033653846154  30.95160590277778 64.65144230769229  31.58832465277778 64.72355769230768  C 32.22504340277778 64.79567307692307  32.70847800925926 64.90384615384616  33.03862847222222 65.04807692307692  C 33.36877893518519 65.1923076923077  33.78146701388889 65.3966346153846  34.276692708333336 65.6610576923077  C 34.77191840277778 65.92548076923076  35.20818865740741 66.25  35.58550347222222 66.63461538461539  L 56.59722222222222 87.6923076923077  C 62.02112268518519 93.02884615384615  67.37427662037038 95.69711538461539  72.65668402777779 95.69711538461539  C 76.33550347222221 95.69711538461539  79.28327546296298 94.56730769230768  81.5 92.3076923076923  C 84.18836805555556 93.26923076923076  86.84136284722221 93.07692307692308  89.458984375 91.73076923076923  C 92.07660590277779 90.38461538461537  93.78631365740742 88.34134615384616  94.58810763888889 85.60096153846153  C 98.07826967592594 85.88942307692308  101.07320601851853 84.83173076923077  103.57291666666666 82.42788461538461  C 104.51620370370371 81.5625  105.36516203703705 80.46875  106.11979166666666 79.14663461538461  C 106.87442129629629 77.82451923076923  107.20457175925927 76.61057692307692  107.11024305555556 75.5048076923077  C 107.58188657407408 75.98557692307693  108.59592013888889 76.22596153846153  110.15234375 76.22596153846153  C 112.18041087962963 76.22596153846153  113.99623842592594 75.72115384615384  115.59982638888889 74.71153846153847  C 117.20341435185188 73.70192307692307  118.3707320601852 72.42788461538461  119.10177951388889 70.88942307692308  C 119.83282696759261 69.35096153846152  120.11581307870371 67.63221153846153  119.95073784722221 65.73317307692308  Z M 124.796875 54.51923076923076  C 127.24942129629629 57.6923076923077  128.66435185185185 61.0576923076923  129.04166666666666 64.61538461538461  L 135 64.61538461538461  L 135 27.692307692307686  L 129.25390625 27.692307692307686  L 118.14670138888889 14.711538461538456  C 115.03385416666666 11.057692307692303  111.04846643518519 9.230769230769234  106.19053819444444 10  L 94.37586805555556 10  C 90.17824074074075 9.230769230769234  86.73524305555556 10.84134615384615  84.046875 14.062499999999996  L 69.26085069444444 31.586538461538467  C 67.94024884259261 33.17307692307692  67.27994791666669 34.97596153846154  67.27994791666667 36.99519230769231  C 67.27994791666669 39.01442307692308  67.91666666666669 40.817307692307686  69.19010416666667 42.40384615384615  C 71.2181712962963 44.85576923076923  73.81221064814815 46.10576923076923  76.97222222222221 46.15384615384615  C 80.1322337962963 46.20192307692307  82.74985532407408 45.02403846153845  84.82508680555556 42.62019230769231  L 98.47916666666666 26.89903846153846  C 99.65827546296298 25.79326923076922  100.919921875 25.27644230769231  102.26410590277779 25.348557692307697  C 103.60828993055556 25.42067307692308  104.71665219907408 26.06971153846154  105.58919270833334 27.295673076923073  C 106.46173321759261 28.52163461538462  106.66218171296298 29.87980769230769  106.19053819444444 31.370192307692314  C 106.94516782407408 32.28365384615385  108.26576967592594 33.79807692307692  110.15234375 35.91346153846154  C 112.03891782407408 38.028846153846146  113.45384837962963 39.66346153846154  114.39713541666666 40.817307692307686  C 115.76490162037038 42.54807692307693  117.71043113425927 45.08413461538462  120.23372395833334 48.425480769230774  C 122.75701678240742 51.76682692307691  124.27806712962963 53.79807692307692  124.796875 54.51923076923076  Z M 145.45486111111111 62.30769230769231  C 146.20949074074076 63.846153846153854  147.5300925925926 64.61538461538461  149.41666666666666 64.61538461538461  C 151.30324074074076 64.61538461538461  152.6238425925926 63.846153846153854  153.37847222222223 62.30769230769231  C 154.13310185185188 60.76923076923077  154.13310185185188 59.23076923076923  153.37847222222223 57.6923076923077  C 152.6238425925926 56.15384615384615  151.30324074074076 55.38461538461539  149.41666666666666 55.38461538461539  C 147.5300925925926 55.38461538461539  146.20949074074076 56.15384615384615  145.45486111111111 57.6923076923077  C 144.7002314814815 59.23076923076923  144.7002314814815 60.76923076923077  145.45486111111111 62.30769230769231  Z M 161.65581597222223 19.83173076923077  C 162.55193865740742 20.745192307692292  163 21.82692307692307  163 23.076923076923077  L 163 69.23076923076923  C 163 70.48076923076923  162.55193865740742 71.5625  161.65581597222223 72.47596153846153  C 160.75969328703704 73.38942307692307  159.69849537037038 73.84615384615384  158.47222222222223 73  L 127.76822916666666 73  C 126.49479166666669 76.97115384615384  124.56105324074078 79.53125  121.96701388888889 81.5264423076923  C 119.37297453703705 83.52163461538463  116.42520254629629 84.75961538461537  113.12369791666666 85.24038461538461  C 111.56727430555557 87.54807692307692  109.66890914351853 89.50721153846155  107.42860243055556 91.11778846153847  C 105.18829571759261 92.72836538461539  102.77112268518519 93.82211538461539  100.17708333333334 94.39903846153847  C 98.19618055555556 96.94711538461537  95.73184317129629 98.90625  92.78407118055556 100.2764423076923  C 89.83629918981482 101.64663461538461  86.80598958333334 102.23557692307693  83.69314236111111 102.04326923076923  C 80.86328125 103.67788461538461  77.89192708333333 104.62740384615384  74.77907986111111 104.89182692307692  C 71.66623263888889 105.15625000000001  68.65950520833333 104.81971153846153  65.75889756944444 103.88221153846155  C 62.85828993055556 102.94471153846153  60.09917534722222 101.65865384615384  57.48155381944444 100.02403846153845  C 54.86393229166667 98.38942307692308  52.42317708333333 96.4423076923077  50.15928819444444 94.1826923076923  L 29.85503472222222 73  L 4.527777777777778 73  C 3.30150462962963 73.84615384615384  2.240306712962963 73.38942307692307  1.344184027777778 72.47596153846153  C 0.4480613425925926 71.5625  0 70.48076923076923  0 69.23076923076923  L 0 20.769230769230766  C 0 19.51923076923076  0.4480613425925926 18.437499999999993  1.344184027777778 17.524038461538456  C 2.240306712962963 16.610576923076923  3.30150462962963 16.153846153846153  4.527777777777778 17  L 34.31206597222222 17  C 34.97236689814815 15.480769230769223  36.080729166666664 14.32692307692306  37.63715277777778 12.692307692307693  C 39.19357638888889 11.057692307692303  40.313729745370374 9.903846153846153  40.99761284722222 9.230769230769234  C 41.68149594907408 8.557692307692301  42.71911168981482 7.596153846153842  44.11046006944444 6.346153846153847  C 45.50180844907408 5.09615384615384  46.69270833333333 4.194711538461523  47.68315972222222 3.6418269230769216  C 48.67361111111111 3.088942307692297  49.87630208333333 2.4759615384615294  51.29123263888889 1.8028846153846207  C 52.70616319444444 1.1298076923076765  54.168258101851855 0.6610576923076783  55.67751736111111 0.396634615384614  C 57.18677662037039 0.132211538461538  58.79036458333334 0  60.48828125 0  L 68.765625 0  C 73.43489583333333 0  77.70326967592594 1.3461538461538298  81.57074652777779 4.038461538461536  C 85.43822337962963 1.3461538461538298  89.70659722222221 0  94.37586805555556 0  L 106.19053819444444 0  C 107.84129050925925 0  109.42129629629629 0.14423076923076872  110.93055555555556 0.43269230769230616  C 112.43981481481482 0.7211538461538436  113.77220775462963 1.0697115384615348  114.927734375 1.4783653846153793  C 116.08326099537038 1.8870192307692242  117.29774305555556 2.5240384615384643  118.57118055555556 3.3894230769230766  C 119.84461805555556 4.254807692307689  120.89402488425927 4.999999999999994  121.71940104166666 5.6250000000000036  C 122.54477719907408 6.249999999999989  123.55881076388889 7.199519230769228  124.76150173611111 8.473557692307697  C 125.96419270833334 9.747596153846143  126.88389756944444 10.757211538461524  127.52061631944444 11.502403846153852  C 128.15733506944443 12.247596153846146  129.12420428240742 13.401442307692307  130.42122395833334 14.963942307692314  C 131.71824363425927 16.526442307692296  132.6969039351852 17.692307692307686  133.35720486111111 19  L 158.47222222222223 19  C 159.69849537037038 18.461538461538467  160.75969328703704 18.918269230769223  161.65581597222223 19.83173076923077  Z " fill-rule="nonzero" fill="#000000" stroke="none" transform="matrix(1 0 0 1 126 1936 )" />
  </g>
</svg>