<?xml version="1.0" encoding="utf-8"?>
<svg version="1.1" xmlns:xlink="http://www.w3.org/1999/xlink" width="14px" height="14px" xmlns="http://www.w3.org/2000/svg">
  <g transform="matrix(1 0 0 1 -133 -764 )">
    <path d="M 2.473863636363636 9.363423212192263  C 2.8875000000000006 9.429073856975382  4.237121212121212 9.50566627588902  6.5227272727272725 9.593200468933176  L 6.403409090909091 12.613130128956625  L 6.3875 12.793669402110199  L 3.0465909090909093 12.555685814771396  C 2.855681818181818 12.539273153575616  2.678030303030303 12.453106682297774  2.5136363636363637 12.297186400937868  C 2.3492424242424246 12.14126611957796  2.224621212121212 11.9620945681907  2.139772727272727 11.759671746776084  C 2.081439393939394 11.611957796014067  2.0429924242424247 11.46150840171942  2.024431818181818 11.308323563892145  C 2.005871212121212 11.155138726064868  2.016477272727273 10.977334896443924  2.05625 10.774912075029308  C 2.0960227272727274 10.572489253614691  2.127840909090909 10.422039859320046  2.151704545454545 10.32356389214537  C 2.175568181818182 10.225087924970692  2.232575757575758 10.050019538882374  2.3227272727272728 9.798358733880422  C 2.412878787878788 9.54669792887847  2.463257575757576 9.401719421649082  2.473863636363636 9.363423212192263  Z M 0 4.644783118405627  L 3.444318181818182 4.784290738569753  L 4.8761363636363635 7.894490035169989  L 3.706818181818182 7.139507620164126  C 3.3727272727272726 7.5334114888628365  3.077083333333334 7.928683079327862  2.8198863636363636 8.325322391559203  C 2.562689393939394 8.721961703790543  2.370454545454545 9.063892145369286  2.243181818181818 9.351113716295428  C 2.1159090909090907 9.63833528722157  2.011174242424243 9.896834701055099  1.9289772727272727 10.126611957796014  C 1.8467803030303032 10.356389214536929  1.7977272727272728 10.528722157092615  1.7818181818181817 10.643610785463071  L 1.75 10.815943728018757  L 0.23863636363636362 7.886283704572099  C 0.14848484848484853 7.744040640875342  0.10075757575757577 7.590855803048066  0.09545454545454544 7.42672919109027  C 0.09015151515151518 7.262602579132473  0.10606060606060608 7.134036733098866  0.1431818181818182 7.041031652989449  L 0.20681818181818182 6.893317702227433  C 0.3924242424242425 6.548651817116061  0.6946969696969698 6.0343884329816335  1.1136363636363635 5.350527549824149  L 0 4.644783118405627  Z M 12.790909090909091 9.207502930832357  L 13.236363636363636 9.026963657678781  L 11.74090909090909 11.973036342321219  C 11.677272727272728 12.131692067213756  11.580492424242426 12.258890191481047  11.45056818181818 12.354630715123095  C 11.32064393939394 12.450371238765143  11.20530303030303 12.506447831184056  11.104545454545455 12.522860492379836  L 10.961363636363636 12.555685814771396  C 10.584848484848486 12.593982024228215  10.004166666666666 12.626807346619774  9.219318181818183 12.654161781946073  L 9.282954545454546 14  L 7.453409090909091 10.988276670574443  L 9.131818181818181 8.017584994138335  L 9.1875 9.437280187573272  C 10.089015151515152 9.524814380617427  10.83939393939394 9.53849159828058  11.438636363636363 9.47831184056272  C 12.037878787878789 9.418132082844862  12.488636363636363 9.327862446268073  12.790909090909091 9.207502930832357  Z M 6.7375 1.1570926143024618  C 6.864772727272728 1.3048065650644782  6.949621212121213 1.4005470887065243  6.992045454545455 1.4443141852286048  C 6.7428030303030315 1.788980070339977  6.040151515151515 2.9788980070339983  4.88409090909091 5.014067995310668  L 2.3625000000000003 3.4794841735052753  L 2.2113636363636364 3.3810082063305984  L 4.0011363636363635 0.4595545134818291  C 4.10719696969697 0.2899570144587724  4.266287878787879 0.16686205549042565  4.478409090909091 0.09026963657678722  C 4.690530303030304 0.013677217663148777  4.902651515151516 -0.013677217663151886  5.114772727272728 0.008206330597889888  C 5.242045454545455 0.01914810472840922  5.37064393939394 0.051973427119968774  5.500568181818181 0.10668229777256699  C 5.630492424242425 0.1613911684251652  5.741856060606061 0.21883548261039287  5.83465909090909 0.2790152403282531  C 5.927462121212122 0.33919499804611175  6.0375000000000005 0.42946463462289897  6.1647727272727275 0.5498241500586163  C 6.2920454545454545 0.6701836654943321  6.3875 0.7645564673700658  6.451136363636364 0.8329425556858143  C 6.514772727272727 0.9013286440015629  6.610227272727273 1.0093786635404454  6.7375 1.1570926143024618  Z M 12.051136363636363 4.053927315357561  L 12.202272727272728 3.9636576787807742  L 13.888636363636364 6.942555685814771  C 13.98409090909091 7.144978507229387  14.017234848484849 7.352872215709262  13.988068181818182 7.566236811254396  C 13.958901515151517 7.7796014067995305  13.88598484848485 7.982024228214146  13.769318181818182 8.173505275498242  C 13.700378787878789 8.282923016803437  13.612878787878788 8.384134427510746  13.506818181818181 8.477139507620164  C 13.400757575757577 8.570144587729581  13.299999999999999 8.64673700664322  13.204545454545455 8.706916764361079  C 13.10909090909091 8.767096522078937  12.980492424242424 8.827276279796795  12.81875 8.887456037514655  C 12.657007575757577 8.947635795232513  12.532386363636363 8.99140289175459  12.444886363636364 9.018757327080891  C 12.357386363636364 9.04611176240719  12.220833333333335 9.08440797186401  12.035227272727273 9.13364595545135  C 11.849621212121212 9.182883939038687  11.727651515151516 9.215709261430247  11.66931818181818 9.232121922626025  C 11.489015151515153 8.838218053927317  10.786363636363637 7.6455646737006635  9.561363636363637 5.6541617819460726  L 12.051136363636363 4.053927315357561  Z M 10.173863636363636 0.5498241500586163  C 10.380681818181818 0.8835482610394676  10.677651515151517 1.4032825322391553  11.064772727272727 2.1090269636576795  L 12.194318181818181 1.427901524032825  L 10.444318181818181 4.488862837045721  L 7.111363636363636 4.324736225087925  L 8.3125 3.6189917936694016  C 8.13219696969697 3.132082844861272  7.933333333333334 2.677999218444705  7.715909090909091 2.256740914419696  C 7.498484848484849 1.8354826103946837  7.298295454545455 1.497655334114889  7.115340909090908 1.243259085580304  C 6.932386363636365 0.9888628370457206  6.761363636363638 0.7700273544353262  6.6022727272727275 0.5867526377491208  C 6.443181818181819 0.4034779210629138  6.318560606060608 0.2762797967956221  6.228409090909091 0.20515826494724565  L 6.093181818181819 0.0984759671746771  L 9.314772727272727 0.10668229777256699  C 9.479166666666668 0.09026963657678722  9.632954545454545 0.11899179366940182  9.776136363636363 0.19284876905041082  C 9.91931818181818 0.26670574443141826  10.022727272727273 0.3446658851113722  10.086363636363636 0.4267291910902695  L 10.173863636363636 0.5498241500586163  Z " fill-rule="nonzero" fill="#b7e075" stroke="none" transform="matrix(1 0 0 1 133 764 )" />
  </g>
</svg>