<?xml version="1.0" encoding="utf-8"?>
<svg version="1.1" xmlns:xlink="http://www.w3.org/1999/xlink" width="21px" height="18px" xmlns="http://www.w3.org/2000/svg">
  <g transform="matrix(1 0 0 1 -179 -216 )">
    <path d="M 20.501283697047494 7.440323668240054  C 20.833761232349172 7.75590020229265  21.000000000000004 8.124072825354013  21 8.54484153742414  C 21.000000000000004 8.973701955495617  20.833761232349172 9.337828725556305  20.501283697047494 9.637221847606204  L 11.726572528883183 17.55091031692515  C 11.37612323491656 17.85030343897505  10.967265725288833 18  10.5 18  C 10.023748395378691 18  9.619383825417202 17.85030343897505  9.286906290115533 17.55091031692515  L 0.5121951219512195 9.637221847606204  C 0.1707317073170732 9.345920431557653  0 8.981793661496965  0 8.54484153742414  C 0 8.115981119352663  0.1707317073170732 7.7478084962913005  0.5121951219512195 7.440323668240054  L 1.509627727856226 6.530006743088335  C 1.8600770218228502 6.230613621038434  2.268934531450578 6.080917060013487  2.7362002567394095 6.080917060013487  C 3.2124518613607194 6.080917060013487  3.616816431322208 6.230613621038434  3.949293966623877 6.530006743088335  L 7.91206675224647 10.098449089683076  L 7.91206675224647 1.5536075522589343  C 7.91206675224647 1.1328388401888063  8.082798459563543 0.7687120701281169  8.42426187419769 0.46122724207687216  C 8.765725288831836 0.1537424140256214  9.170089858793325 0  9.637355584082156 0  L 11.362644415917844 0  C 11.829910141206676 0  12.234274711168165 0.1537424140256214  12.575738125802312 0.46122724207687216  C 12.917201540436457 0.7687120701281169  13.08793324775353 1.1328388401888063  13.08793324775353 1.5536075522589343  L 13.08793324775353 10.098449089683076  L 17.050706033376123 6.530006743088335  C 17.383183568677794 6.230613621038434  17.787548138639284 6.080917060013487  18.26379974326059 6.080917060013487  C 18.731065468549424 6.080917060013487  19.13992297817715 6.230613621038434  19.490372272143773 6.530006743088335  L 20.501283697047494 7.440323668240054  Z " fill-rule="nonzero" fill="#555555" stroke="none" transform="matrix(1 0 0 1 179 216 )" />
  </g>
</svg>