<?xml version="1.0" encoding="utf-8"?>
<svg version="1.1" xmlns:xlink="http://www.w3.org/1999/xlink" width="148px" height="90px" xmlns="http://www.w3.org/2000/svg">
  <g transform="matrix(1 0 0 1 -33 -204 )">
    <path d="M 28 45  L 47 45  L 47 75  L 28 75  L 28 45  Z M 56 15  L 74 15  L 74 75  L 56 75  L 56 15  Z M 10 82  L 148 82  L 148 90  L 0 90  L 0 0  L 10 0  L 10 82  Z M 83 30  L 101 30  L 101 75  L 83 75  L 83 30  Z M 111 8  L 129 8  L 129 75  L 111 75  L 111 8  Z " fill-rule="nonzero" fill="#000000" stroke="none" transform="matrix(1 0 0 1 33 204 )" />
  </g>
</svg>