<?xml version="1.0" encoding="utf-8"?>
<svg version="1.1" xmlns:xlink="http://www.w3.org/1999/xlink" width="135px" height="108px" xmlns="http://www.w3.org/2000/svg">
  <g transform="matrix(1 0 0 1 -1122 -1931 )">
    <path d="M 11 83  L 11 100  L 34 100  L 34 83  L 11 83  Z M 39 83  L 39 100  L 65 100  L 65 83  L 39 83  Z M 11 59  L 11 79  L 34 79  L 34 59  L 11 59  Z M 39 59  L 39 79  L 65 79  L 65 59  L 39 59  Z M 11 39  L 11 56  L 34 56  L 34 39  L 11 39  Z M 70 83  L 70 100  L 96 100  L 96 83  L 70 83  Z M 39 39  L 39 56  L 65 56  L 65 39  L 39 39  Z M 101 83  L 101 100  L 124 100  L 124 83  L 101 83  Z M 70 59  L 70 79  L 96 79  L 96 59  L 70 59  Z M 40.76772836538461 28.35602678571429  C 41.28155048076923 27.97433035714285  41.53846153846154 27.522321428571416  42 27  L 42 9.642857142857144  C 41.53846153846154 9.120535714285715  41.28155048076923 8.668526785714281  40.76772836538461 8.286830357142856  C 40.25390625000001 7.905133928571418  39.64543269230769 7.714285714285711  38.942307692307686 7.714285714285711  L 33.75 7.714285714285711  C 33.046875 7.714285714285711  32.43840144230769 7.905133928571418  31.924579326923077 8.286830357142856  C 31.410757211538456 8.668526785714281  31.153846153846157 9.120535714285715  32 9.642857142857144  L 32 27  C 31.153846153846157 27.522321428571416  31.410757211538456 27.97433035714285  31.924579326923077 28.35602678571429  C 32.43840144230769 28.737723214285715  33.046875 28.928571428571434  33.75 28.928571428571434  L 38.942307692307686 28.928571428571434  C 39.64543269230769 28.928571428571434  40.25390625000001 28.737723214285715  40.76772836538461 28.35602678571429  Z M 101 59  L 101 79  L 124 79  L 124 59  L 101 59  Z M 70 39  L 70 56  L 96 56  L 96 39  L 70 39  Z M 101 39  L 101 56  L 124 56  L 124 39  L 101 39  Z M 103.07542067307692 28.35602678571429  C 103.58924278846155 27.97433035714285  103.84615384615385 27.522321428571416  103 27  L 103 9.642857142857144  C 103.84615384615385 9.120535714285715  103.58924278846155 8.668526785714281  103.07542067307692 8.286830357142856  C 102.56159855769232 7.905133928571418  101.953125 7.714285714285711  101.25 7.714285714285711  L 96.0576923076923 7.714285714285711  C 95.35456730769232 7.714285714285711  94.74609375000001 7.905133928571418  94.23227163461537 8.286830357142856  C 93.71844951923077 8.668526785714281  93.46153846153845 9.120535714285715  93 9.642857142857144  L 93 27  C 93.46153846153845 27.522321428571416  93.71844951923077 27.97433035714285  94.23227163461537 28.35602678571429  C 94.74609375000001 28.737723214285715  95.35456730769232 28.928571428571434  96.0576923076923 28.928571428571434  L 101.25 28.928571428571434  C 101.953125 28.928571428571434  102.56159855769232 28.737723214285715  103.07542067307692 28.35602678571429  Z M 131.91706730769232 17.71875  C 133.97235576923077 19.245535714285715  135 21.053571428571427  135 23.142857142857146  L 135 100.28571428571429  C 135 102.37500000000001  133.97235576923077 104.18303571428572  131.91706730769232 105.70982142857143  C 129.86177884615387 107.23660714285714  127.42788461538463 108  124.61538461538463 108  L 10.384615384615385 108  C 7.572115384615386 108  5.138221153846154 107.23660714285714  3.082932692307692 105.70982142857143  C 1.0276442307692308 104.18303571428572  0 102.37500000000001  0 100.28571428571429  L 0 23.142857142857146  C 0 21.053571428571427  1.0276442307692308 19.245535714285715  3.082932692307692 17.71875  C 5.138221153846154 16.191964285714274  7.572115384615386 15.428571428571434  10.384615384615385 16  L 20.76923076923077 16  L 20.76923076923077 9.642857142857144  C 20.76923076923077 6.991071428571434  22.040264423076923 4.720982142857137  24.58233173076923 2.832589285714289  C 27.124399038461544 0.9441964285714297  30.180288461538463 0  33.75 0  L 38.942307692307686 0  C 42.512019230769226 0  45.56790865384616 0.9441964285714297  48.10997596153846 2.832589285714289  C 50.652043269230774 4.720982142857137  51.92307692307693 6.991071428571434  51.92307692307693 9.642857142857144  L 51.92307692307693 16  L 83.07692307692308 16  L 83.07692307692308 9.642857142857144  C 83.07692307692308 6.991071428571434  84.34795673076924 4.720982142857137  86.89002403846155 2.832589285714289  C 89.43209134615387 0.9441964285714297  92.48798076923077 0  96.0576923076923 0  L 101.25 0  C 104.81971153846155 0  107.87560096153847 0.9441964285714297  110.41766826923077 2.832589285714289  C 112.9597355769231 4.720982142857137  114.23076923076923 6.991071428571434  114.23076923076923 9.642857142857144  L 114.23076923076923 16  L 124.61538461538463 16  C 127.42788461538463 15.428571428571434  129.86177884615387 16.191964285714274  131.91706730769232 17.71875  Z " fill-rule="nonzero" fill="#000000" stroke="none" transform="matrix(1 0 0 1 1122 1931 )" />
  </g>
</svg>