<?xml version="1.0" encoding="utf-8"?>
<svg version="1.1" xmlns:xlink="http://www.w3.org/1999/xlink" width="23px" height="15px" xmlns="http://www.w3.org/2000/svg">
  <g transform="matrix(1 0 0 1 -330 -26 )">
    <path d="M 22.715494791666668 12.22265625  C 22.905164930555554 12.371093750000002  23 12.546875000000002  23 12.75  L 23 14.25  C 23 14.453125  22.905164930555554 14.62890625  22.715494791666668 14.77734375  C 22.525824652777782 14.92578125  22.301215277777782 15  22.041666666666668 15  L 0.9583333333333333 15  C 0.6987847222222223 15  0.4741753472222222 14.92578125  0.2845052083333333 14.77734375  C 0.09483506944444445 14.62890625  0 14.453125  0 14.25  L 0 12.75  C 0 12.546875000000002  0.09483506944444445 12.371093750000002  0.2845052083333333 12.22265625  C 0.4741753472222222 12.07421875  0.6987847222222223 12  0.9583333333333333 12  L 22.041666666666668 12  C 22.301215277777782 12  22.525824652777782 12.07421875  22.715494791666668 12.22265625  Z M 22.715494791666668 6.222656249999999  C 22.905164930555554 6.371093749999999  23 6.546874999999999  23 6.749999999999999  L 23 8.25  C 23 8.453125  22.905164930555554 8.62890625  22.715494791666668 8.77734375  C 22.525824652777782 8.925781249999998  22.301215277777782 9  22.041666666666668 9  L 0.9583333333333333 9  C 0.6987847222222223 9  0.4741753472222222 8.925781249999998  0.2845052083333333 8.77734375  C 0.09483506944444445 8.62890625  0 8.453125  0 8.25  L 0 6.749999999999999  C 0 6.546874999999999  0.09483506944444445 6.371093749999999  0.2845052083333333 6.222656249999999  C 0.4741753472222222 6.074218750000001  0.6987847222222223 6  0.9583333333333333 6  L 22.041666666666668 6  C 22.301215277777782 6  22.525824652777782 6.074218750000001  22.715494791666668 6.222656249999999  Z M 22.715494791666668 0.22265625000000067  C 22.905164930555554 0.3710937499999989  23 0.5468749999999989  23 0.7500000000000007  L 23 2.2500000000000004  C 23 2.4531249999999987  22.905164930555554 2.6289062499999987  22.715494791666668 2.7773437500000004  C 22.525824652777782 2.9257812499999987  22.301215277777782 2.999999999999999  22.041666666666668 3  L 0.9583333333333333 3  C 0.6987847222222223 2.999999999999999  0.4741753472222222 2.9257812499999987  0.2845052083333333 2.7773437500000004  C 0.09483506944444445 2.6289062499999987  0 2.4531249999999987  0 2.2500000000000004  L 0 0.7500000000000007  C 0 0.5468749999999989  0.09483506944444445 0.3710937499999989  0.2845052083333333 0.22265625000000067  C 0.4741753472222222 0.07421874999999911  0.6987847222222223 0  0.9583333333333333 0  L 22.041666666666668 0  C 22.301215277777782 0  22.525824652777782 0.07421874999999911  22.715494791666668 0.22265625000000067  Z " fill-rule="nonzero" fill="#900c3f" stroke="none" transform="matrix(1 0 0 1 330 26 )" />
  </g>
</svg>