<?xml version="1.0" encoding="utf-8"?>
<svg version="1.1" xmlns:xlink="http://www.w3.org/1999/xlink" width="50px" height="48px" xmlns="http://www.w3.org/2000/svg">
  <g transform="matrix(1 0 0 1 -464 -2693 )">
    <path d="M 8.835227272727272 32.1031652989449  C 10.312500000000002 32.328253223915596  15.132575757575758 32.590855803048065  23.295454545454543 32.89097303634232  L 22.869318181818183 43.245017584994144  L 22.8125 43.86400937866354  L 10.880681818181818 43.04806565064479  C 10.198863636363637 42.991793669402114  9.564393939393941 42.69636576787808  8.977272727272727 42.161781946072686  C 8.390151515151516 41.627198124267295  7.945075757575758 41.012895662368116  7.642045454545454 40.31887456037514  C 7.433712121212121 39.81242672919109  7.2964015151515165 39.29660023446659  7.230113636363636 38.77139507620164  C 7.163825757575758 38.24618991793669  7.201704545454546 37.63657678780774  7.34375 36.94255568581477  C 7.485795454545455 36.2485345838218  7.5994318181818175 35.7327080890973  7.684659090909091 35.39507620164127  C 7.769886363636363 35.05744431418523  7.9734848484848495 34.457209847596715  8.295454545454547 33.594372801875735  C 8.617424242424242 32.73153575615475  8.797348484848486 32.23446658851114  8.835227272727272 32.1031652989449  Z M 0 15.924970691676435  L 12.301136363636363 16.403282532239153  L 17.414772727272727 27.066822977725675  L 13.238636363636363 24.478311840562718  C 12.045454545454545 25.828839390386868  10.989583333333334 27.18405627198124  10.071022727272727 28.543962485345837  C 9.152462121212123 29.903868698710433  8.46590909090909 31.07620164126612  8.011363636363637 32.060961313012896  C 7.556818181818182 33.04572098475967  7.182765151515152 33.93200468933177  6.889204545454546 34.71981242672919  C 6.59564393939394 35.507620164126614  6.420454545454546 36.09847596717468  6.363636363636363 36.492379835873386  L 6.25 37.08323563892145  L 0.8522727272727272 27.038686987104338  C 0.5303030303030304 26.550996483001175  0.35984848484848486 26.025791324736225  0.3409090909090909 25.463071512309497  C 0.3219696969696971 24.900351699882766  0.37878787878787884 24.459554513481827  0.5113636363636364 24.140679953106684  L 0.7386363636363636 23.63423212192263  C 1.4015151515151518 22.452520515826492  2.4810606060606064 20.689331770222744  3.977272727272727 18.344665885111368  L 0 15.924970691676435  Z M 45.68181818181819 31.56858147713951  L 47.27272727272727 30.949589683470105  L 41.93181818181818 41.05041031652989  C 41.70454545454545 41.594372801875735  41.35890151515152 42.03048065650645  40.89488636363636 42.35873388042204  C 40.43087121212122 42.68698710433763  40.0189393939394 42.87924970691677  39.659090909090914 42.93552168815944  L 39.14772727272727 43.04806565064479  C 37.803030303030305 43.179366940211025  35.729166666666664 43.291910902696365  32.92613636363637 43.38569753810082  L 33.15340909090909 48  L 26.61931818181818 37.67409144196952  L 32.61363636363636 27.488862837045723  L 32.8125 32.35638921453693  C 36.03219696969697 32.65650644783118  38.71212121212121 32.70339976553341  40.85227272727273 32.49706916764361  C 42.99242424242425 32.29073856975381  44.60227272727273 31.981242672919105  45.68181818181819 31.56858147713951  Z M 24.0625 3.9671746776084404  C 24.517045454545457 4.473622508792497  24.82007575757576 4.801875732708083  24.97159090909091 4.951934349355216  C 24.081439393939398 6.13364595545135  21.5719696969697 10.213364595545137  17.44318181818182 17.19109026963658  L 8.4375 11.929660023446658  L 7.897727272727273 11.592028135990622  L 14.289772727272727 1.5756154747948425  C 14.668560606060607 0.9941383352872197  15.236742424242426 0.5720984759671737  15.994318181818182 0.309495896834699  C 16.75189393939394 0.04689331770222438  17.5094696969697 -0.04689331770223504  18.267045454545457 0.02813599062133676  C 18.72159090909091 0.06565064478311733  19.180871212121215 0.17819460726846437  19.644886363636363 0.36576787807737254  C 20.108901515151516 0.5533411488862807  20.50662878787879 0.7502930832356327  20.83806818181818 0.9566236811254392  C 21.169507575757578 1.1629542790152403  21.5625 1.4724501758499393  22.017045454545457 1.8851113716295416  C 22.471590909090907 2.2977725674091385  22.8125 2.6213364595545112  23.039772727272727 2.855803048065649  C 23.267045454545453 3.090269636576787  23.607954545454547 3.460726846424384  24.0625 3.9671746776084404  Z M 43.03977272727273 13.89917936694021  L 43.57954545454545 13.589683470105511  L 49.60227272727273 23.803048065650643  C 49.94318181818182 24.497069167643613  50.06155303030303 25.20984759671747  49.95738636363637 25.941383352872215  C 49.8532196969697 26.67291910902696  49.59280303030303 27.36694021101993  49.17613636363637 28.023446658851114  C 48.92992424242424 28.39859320046893  48.61742424242424 28.745603751465417  48.23863636363636 29.064478311840563  C 47.85984848484849 29.383352872215706  47.5 29.64595545134818  47.159090909090914 29.852286049237982  C 46.81818181818182 30.058616647127785  46.358901515151516 30.264947245017584  45.78125 30.471277842907384  C 45.20359848484849 30.677608440797187  44.75852272727273 30.82766705744431  44.44602272727273 30.921453692848768  C 44.13352272727273 31.01524032825322  43.64583333333334 31.146541617819462  42.98295454545455 31.315357561547483  C 42.32007575757576 31.4841735052755  41.8844696969697 31.596717467760847  41.67613636363636 31.652989449003513  C 41.03219696969697 30.30246189917937  38.52272727272727 26.213364595545134  34.14772727272727 19.38569753810082  L 43.03977272727273 13.89917936694021  Z M 36.33522727272727 1.8851113716295416  C 37.07386363636363 3.029308323563889  38.1344696969697 4.811254396248533  39.51704545454545 7.230949589683473  L 43.55113636363636 4.895662368112543  L 37.30113636363636 15.390386869871042  L 25.397727272727273 14.827667057444312  L 29.6875 12.407971864009378  C 29.04356060606061 10.738569753810076  28.333333333333332 9.181711606096131  27.556818181818183 7.737397420867529  C 26.78030303030303 6.293083235638916  26.06534090909091 5.134818288393905  25.411931818181817 4.262602579132471  C 24.75852272727273 3.390386869871042  24.147727272727277 2.640093786635404  23.579545454545457 2.011723329425557  C 23.01136363636364 1.3833528722157045  22.566287878787882 0.94724501758499  22.244318181818183 0.7033997655334137  L 21.761363636363637 1  L 33.26704545454545 1  C 33.85416666666667 0.309495896834699  34.40340909090909 0.4079718640093777  34.91477272727273 0.6611957796014085  C 35.42613636363636 0.914419695193434  35.79545454545455 1.1817116060961332  36.02272727272727 1.4630715123094955  L 36.33522727272727 1.8851113716295416  Z " fill-rule="nonzero" fill="#b7e075" stroke="none" transform="matrix(1 0 0 1 464 2693 )" />
  </g>
</svg>