<?xml version="1.0" encoding="utf-8"?>
<svg version="1.1" xmlns:xlink="http://www.w3.org/1999/xlink" width="50px" height="39px" xmlns="http://www.w3.org/2000/svg">
  <g transform="matrix(1 0 0 1 -626 -2698 )">
    <path d="M 27.622767857142854 4.9822569198012765  C 25.148809523809522 4.022711142654362  22.488839285714285 3.542938254080909  19.642857142857142 3.542938254080909  C 16.796875 3.542938254080909  14.136904761904761 4.022711142654362  11.662946428571429 4.9822569198012765  C 9.188988095238097 5.941802696948187  7.221912202380953 7.242725337118518  5.76171875 8.885024840312276  C 4.301525297619048 10.52732434350603  3.571428571428571 12.289567068843148  3.571428571428571 14.171753016323633  C 3.571428571428571 15.684882895670688  4.0643601190476195 17.142654364797725  5.050223214285714 18.545067423704758  C 6.03608630952381 19.947480482611784  7.421875 21.16536550745209  9.207589285714286 22.198722498225695  L 11.9140625 23.748757984386092  L 10.9375 26.073811213626687  C 11.569940476190478 25.70475514549325  12.146577380952381 25.344925479063164  12.667410714285715 24.99432221433641  L 13.895089285714285 24.13626685592619  L 15.373883928571427 24.41305890702626  C 16.824776785714285 24.671398154719665  18.247767857142858 24.80056777856636  19.642857142857142 24.80056777856636  C 22.488839285714285 24.80056777856636  25.148809523809522 24.320794889992907  27.622767857142854 23.361249112845993  C 30.096726190476193 22.40170333569908  32.063802083333336 21.10078069552874  33.523995535714285 19.458481192334986  C 34.98418898809524 17.81618168914123  35.714285714285715 16.053938963804114  35.714285714285715 14.171753016323633  C 35.714285714285715 12.289567068843148  34.98418898809524 10.52732434350603  33.523995535714285 8.885024840312276  C 32.063802083333336 7.242725337118518  30.096726190476193 5.941802696948187  27.622767857142854 4.9822569198012765  Z M 9.779575892857142 1.8960255500354877  C 12.802269345238097 0.6320085166784944  16.090029761904763 0  19.642857142857142 0  C 23.195684523809526 0  26.483444940476193 0.6320085166784944  29.506138392857146 1.8960255500354877  C 32.5288318452381 3.1600425833924723  34.914434523809526 4.880766501064581  36.66294642857143 7.05819730305181  C 38.411458333333336 9.23562810503903  39.285714285714285 11.606813342796308  39.285714285714285 14.171753016323633  C 39.285714285714285 16.736692689850955  38.411458333333336 19.10787792760823  36.66294642857143 21.28530872959546  C 34.914434523809526 23.462739531582677  32.5288318452381 25.183463449254788  29.506138392857146 26.44748048261178  C 26.483444940476193 27.711497515968766  23.195684523809526 28.34350603264727  19.642857142857142 28.34350603264727  C 18.043154761904763 28.34350603264727  16.40625 28.195883605393888  14.732142857142858 27.900638750887158  C 12.425595238095239 29.524485450674238  9.840029761904763 30.705464868701206  6.975446428571429 31.443577004968063  C 6.305803571428571 31.609652235628108  5.505952380952381 31.757274662881475  4.575892857142857 31.886444286728175  L 4.4921875 31.886444286728175  C 4.287574404761905 31.886444286728175  4.0969122023809526 31.81263307310149  3.9202008928571432 31.66501064584812  C 3.7434895833333335 31.51738821859475  3.636532738095238 31.3236337828247  3.5993303571428568 31.08374733853797  C 3.580729166666667 31.028388928317955  3.571428571428571 30.96841731724627  3.571428571428571 30.903832505322924  C 3.571428571428571 30.839247693399575  3.57607886904762 30.779276082327893  3.5853794642857144 30.723917672107877  C 3.5946800595238098 30.668559261887864  3.61328125 30.61320085166785  3.6411830357142856 30.557842441447836  L 3.7109375 30.419446415897802  C 3.7109375 30.419446415897802  3.7434895833333335 30.368701206529455  3.80859375 30.26721078779276  C 3.873697916666667 30.165720369056064  3.910900297619048 30.119588360539396  3.9202008928571432 30.128814762242726  C 3.929501488095238 30.13804116394606  3.971354166666667 30.091909155429384  4.045758928571429 29.99041873669269  C 4.120163690476191 29.888928317955994  4.157366071428571 29.847409510290987  4.157366071428571 29.865862313697658  C 4.250372023809524 29.75514549325763  4.464285714285714 29.524485450674234  4.799107142857143 29.17388218594748  C 5.133928571428571 28.823278921220723  5.375744047619048 28.55110007097232  5.524553571428571 28.35734563520227  C 5.673363095238095 28.163591199432222  5.882626488095238 27.896025550035482  6.15234375 27.554648687012065  C 6.422061011904763 27.21327182398864  6.654575892857142 26.85805535841022  6.849888392857142 26.488999290276794  C 7.045200892857142 26.119943222143363  7.235863095238096 25.713981547196596  7.421875 25.27111426543648  C 5.1153273809523805 23.94251242015614  3.3017113095238098 22.309439318665717  1.9810267857142856 20.37189496096522  C 0.6603422619047619 18.434350603264726  0 16.367636621717526  0 14.171753016323633  C 0 11.606813342796308  0.8742559523809524 9.23562810503903  2.622767857142857 7.05819730305181  C 4.371279761904763 4.880766501064581  6.756882440476191 3.1600425833924723  9.779575892857142 1.8960255500354877  Z M 48.018973214285715 27.47161107168204  C 46.6982886904762 29.399929027679207  44.88467261904763 31.028388928317955  42.578125 32.3569907735983  C 42.7641369047619 32.799858055358406  42.954799107142854 33.20581973030518  43.150111607142854 33.574875798438605  C 43.34542410714287 33.943931866572036  43.57793898809524 34.299148332150466  43.84765625 34.640525195173886  C 44.11737351190476 34.9819020581973  44.326636904761905 35.249467707594036  44.47544642857143 35.44322214336409  C 44.624255952380956 35.636976579134135  44.86607142857144 35.90915542938254  45.200892857142854 36.259758694109294  C 45.53571428571429 36.61036195883605  45.74962797619048 36.84102200141945  45.84263392857143 36.95173882185947  C 45.86123511904763 36.97019162526615  45.89843750000001 37.01171043293116  45.95424107142857 37.07629524485451  C 46.01004464285715 37.14088005677785  46.05189732142858 37.18701206529454  46.079799107142854 37.21469127040454  C 46.10770089285715 37.24237047551455  46.144903273809526 37.28850248403123  46.19140625 37.35308729595458  C 46.237909226190474 37.41767210787793  46.27046130952381 37.46841731724627  46.2890625 37.50532292405961  L 46.358816964285715 37.64371894960965  C 46.358816964285715 37.64371894960965  46.377418154761905 37.699077359829666  46.414620535714285 37.80979418026969  C 46.45182291666667 37.92051100070972  46.456473214285715 37.980482611781405  46.42857142857143 37.98970901348474  C 46.400669642857146 37.99893541518807  46.39136904761905 38.05890702625976  46.400669642857146 38.169623846699785  C 46.34486607142857 38.427963094393185  46.223958333333336 38.630943931866575  46.03794642857143 38.77856635911994  C 45.851934523809526 38.92618878637331  45.64732142857143 38.99077359829667  45.424107142857146 38.97232079488999  C 44.49404761904763 38.84315117104329  43.69419642857144 38.69552874378992  43.02455357142857 38.52945351312988  C 40.15997023809524 37.79134137686302  37.57440476190476 36.61036195883605  35.267857142857146 34.98651525904897  C 33.59375 35.28176011355572  31.956845238095244 35.42938254080908  30.357142857142854 35.42938254080908  C 25.316220238095237 35.42938254080908  20.926339285714285 34.21149751596877  17.1875 31.77572746628815  C 18.26636904761905 31.849538679914836  19.084821428571427 31.886444286728175  19.642857142857142 31.886444286728175  C 22.63764880952381 31.886444286728175  25.511532738095237 31.47125621007807  28.26450892857143 30.640880056777856  C 31.01748511904762 29.810503903477645  33.47284226190476 28.62029808374734  35.630580357142854 27.070262597586943  C 37.95572916666667 25.372604684173172  39.741443452380956 23.416607523066006  40.987723214285715 21.20227111426544  C 42.234002976190474 18.987934705464866  42.857142857142854 16.644428672817597  42.857142857142854 14.171753016323633  C 42.857142857142854 12.750887154009936  42.643229166666664 11.348474095102908  42.215401785714285 9.964513839602553  C 44.614955357142854 11.274662881476221  46.512276785714285 12.916962384669976  47.90736607142857 14.891412349183819  C 49.302455357142854 16.865862313697654  50 18.987934705464866  50 21.257629524485452  C 50 23.471965933286015  49.33965773809524 25.54329311568488  48.018973214285715 27.47161107168204  Z " fill-rule="nonzero" fill="#900c3f" stroke="none" transform="matrix(1 0 0 1 626 2698 )" />
  </g>
</svg>