<?xml version="1.0" encoding="utf-8"?>
<svg version="1.1" xmlns:xlink="http://www.w3.org/1999/xlink" width="90px" height="89px" xmlns="http://www.w3.org/2000/svg">
  <defs>
    <filter x="-8px" y="-10px" width="90px" height="89px" filterUnits="userSpaceOnUse" id="filter50">
      <feOffset dx="-3" dy="-5" in="SourceAlpha" result="shadowOffsetInner" />
      <feGaussianBlur stdDeviation="2.5" in="shadowOffsetInner" result="shadowGaussian" />
      <feComposite in2="shadowGaussian" operator="atop" in="SourceAlpha" result="shadowComposite" />
      <feColorMatrix type="matrix" values="0 0 0 0 0  0 0 0 0 0  0 0 0 0 0  0 0 0 0.34901960784313724 0  " in="shadowComposite" />
    </filter>
    <g id="widget51">
      <path d="M 55.892857142857146 69.49972098214286  C 60.80357142857143 66.92810639880953  64.83630952380953 63.43805803571428  67.99107142857143 59.02957589285714  C 67.33630952380953 54.474144345238095  66.03422619047619 50.690197172619044  64.08482142857143 47.677734375  C 62.13541666666667 44.665271577380956  59.389880952380956 42.92392113095237  55.84821428571429 42.45368303571428  C 53.85416666666667 44.62853422619047  51.48065476190476 46.32579985119047  48.72767857142857 47.54547991071428  C 45.974702380952394 48.765159970238095  43.0654761904762 49.375  40 49.375  C 36.93452380952381 49.375  34.02529761904762 48.765159970238095  31.272321428571427 47.54547991071428  C 28.51934523809524 46.32579985119047  26.145833333333336 44.62853422619047  24.151785714285715 42.45368303571428  C 20.610119047619047 42.92392113095237  17.864583333333336 44.665271577380956  15.915178571428573 47.677734375  C 13.965773809523812 50.690197172619044  12.663690476190476 54.474144345238095  12.008928571428573 59.02957589285714  C 15.163690476190476 63.43805803571428  19.196428571428573 66.92810639880953  24.107142857142854 69.49972098214286  C 29.017857142857146 72.07133556547619  34.3154761904762 73.35714285714286  40 73.35714285714286  C 45.68452380952381 73.35714285714286  50.982142857142854 72.07133556547619  55.892857142857146 69.49972098214286  Z M 52.12053571428571 40.18331473214286  C 55.46875 36.876953125  57.142857142857146 32.88727678571429  57.142857142857146 28.21428571428571  C 57.142857142857146 23.54129464285714  55.46875 19.55161830357143  52.12053571428571 16.24525669642857  C 48.77232142857143 12.93889508928571  44.732142857142854 11.28571428571429  40 11.28571428571429  C 35.267857142857146 11.28571428571429  31.227678571428573 12.93889508928571  27.879464285714285 16.24525669642857  C 24.53125 19.55161830357143  22.857142857142854 23.54129464285714  22.857142857142854 28.21428571428571  C 22.857142857142854 32.88727678571429  24.53125 36.876953125  27.879464285714285 40.18331473214286  C 31.227678571428573 43.48967633928572  35.267857142857146 45.14285714285714  40 45.14285714285714  C 44.732142857142854 45.14285714285714  48.77232142857143 43.48967633928572  52.12053571428571 40.18331473214286  Z M 76.83035714285714 24.15848214285714  C 78.9434523809524 29.037202380952372  80 34.151041666666664  80 39.5  C 80 44.84895833333333  78.9434523809524 49.95545014880951  76.83035714285714 54.81947544642857  C 74.71726190476191 59.68350074404762  71.8824404761905 63.886253720238095  68.32589285714286 67.427734375  C 64.76934523809524 70.9692150297619  60.52083333333334 73.78329613095238  55.580357142857146 75.86997767857143  C 50.639880952380956 77.95665922619048  45.44642857142857 79  40 79  C 34.583333333333336 79  29.404761904761905 77.95665922619048  24.464285714285715 75.86997767857143  C 19.523809523809526 73.78329613095238  15.267857142857142 70.9765625  11.696428571428573 67.44977678571428  C 8.125 63.92299107142857  5.282738095238095 59.720238095238095  3.1696428571428568 54.84151785714286  C 1.0565476190476188 49.96279761904762  0 44.84895833333333  0 39.5  C 0 34.151041666666664  1.0565476190476188 29.037202380952372  3.1696428571428568 24.15848214285714  C 5.282738095238095 19.279761904761898  8.125 15.07700892857143  11.696428571428573 11.55022321428571  C 15.267857142857142 8.0234375  19.523809523809526 5.216703869047617  24.464285714285715 3.1300223214285703  C 29.404761904761905 1.0433407738095233  34.583333333333336 0  40 0  C 45.41666666666667 0  50.5952380952381 1.0433407738095233  55.53571428571429 3.1300223214285703  C 60.47619047619048 5.216703869047617  64.73214285714286 8.0234375  68.30357142857143 11.55022321428571  C 71.87500000000001 15.07700892857143  74.71726190476191 19.279761904761898  76.83035714285714 24.15848214285714  Z " fill-rule="nonzero" fill="#000000" stroke="none" fill-opacity="0.6862745098039216" />
    </g>
  </defs>
  <g transform="matrix(1 0 0 1 8 10 )">
    <use xlink:href="#widget51" filter="url(#filter50)" />
    <use xlink:href="#widget51" />
  </g>
</svg>