<?xml version="1.0" encoding="utf-8"?>
<svg version="1.1" xmlns:xlink="http://www.w3.org/1999/xlink" width="23px" height="25px" xmlns="http://www.w3.org/2000/svg">
  <g transform="matrix(1 0 0 1 -346 -214 )">
    <path d="M 17.398159509202454 2.6506696428571423  L 16.368098159509202 5.691964285714285  L 18.86564417177914 5.691964285714285  L 17.84969325153374 2.6506696428571423  L 17.68036809815951 1.9949776785714275  C 17.66155419222904 1.8461681547619042  17.652147239263805 1.7531622023809508  17.652147239263805 1.7159598214285725  L 17.595705521472393 1.7159598214285725  L 17.553374233128835 1.9949776785714275  C 17.553374233128835 2.0042782738095206  17.536912065439676 2.087983630952378  17.50398773006135 2.24609375  C 17.47106339468303 2.404203869047619  17.435787321063398 2.5390625  17.398159509202454 2.6506696428571423  Z M 9.820858895705522 19.76841517857143  C 9.905521472392639 19.852120535714285  9.947852760736197 19.959077380952383  9.947852760736197 20.089285714285715  C 9.947852760736197 20.200892857142858  9.900817995910021 20.3125  9.806748466257668 20.424107142857142  L 5.305521472392638 24.874441964285715  C 5.211451942740287 24.958147321428573  5.103271983640082 25  4.980981595092024 25  C 4.868098159509202 25  4.759918200408999 24.958147321428573  4.656441717791411 24.874441964285715  L 0.1411042944785276 20.41015625  C 0 20.261346726190478  -0.03292433537832309 20.09858630952381  0.04233128834355828 19.921875  C 0.1175869120654397 19.735863095238095  0.2586912065439673 19.642857142857142  0.46564417177914114 19.642857142857142  L 3.1748466257668713 19.642857142857142  L 3.1748466257668713 0.4464285714285726  C 3.1748466257668713 0.3162202380952356  3.2171779141104295 0.20926339285714246  3.301840490797546 0.12555803571428492  C 3.386503067484663 0.04185267857142738  3.4946830265848674 0  3.6263803680981597 0  L 6.33558282208589 0  C 6.467280163599182 0  6.575460122699387 0.04185267857142738  6.660122699386503 0.12555803571428492  C 6.744785276073619 0.20926339285714246  6.787116564417178 0.3162202380952356  7 0.4464285714285726  L 7 19.642857142857142  L 9.496319018404908 19.642857142857142  C 9.6280163599182 19.642857142857142  9.736196319018404 19.68470982142857  9.820858895705522 19.76841517857143  Z M 20.03680981595092 21.749441964285715  L 21.744171779141105 21.749441964285715  L 21.744171779141105 25  L 13.503680981595092 25  L 13.503680981595092 23.744419642857142  L 18.71042944785276 16.36439732142857  C 18.823312883435584 16.196986607142858  18.922085889570553 16.07142857142857  19.00674846625767 15.987723214285715  L 19.16196319018405 15.86216517857143  L 19.16196319018405 15.8203125  C 19.143149284253578 15.8203125  19.112576687116565 15.822637648809524  19.070245398773007 15.82728794642857  C 19.02791411042945 15.831938244047617  18.992638036809815 15.834263392857142  18.96441717791411 15.834263392857142  C 18.851533742331288 15.86216517857143  18.71042944785276 15.87611607142857  18.54110429447853 15.87611607142857  L 15.267484662576688 15.87611607142857  L 15.267484662576688 17.48046875  L 13.574233128834356 17.48046875  L 13.574233128834356 14.285714285714285  L 21.57484662576687 14.285714285714285  L 21.57484662576687 15.52734375  L 16.368098159509202 22.921316964285715  C 16.31165644171779 22.995721726190474  16.212883435582825 23.116629464285715  16.071779141104294 23.284040178571427  L 15.916564417177915 23.4375  L 15.916564417177915 23.465401785714285  L 16.11411042944785 23.4375  C 16.19877300613497 23.41889880952381  16.339877300613498 23.409598214285715  16.537423312883433 23.409598214285715  L 20.03680981595092 23.409598214285715  L 20.03680981595092 21.749441964285715  Z M 22.012269938650306 9.235491071428573  L 23 9.235491071428573  L 23 10.714285714285715  L 18.936196319018407 10.714285714285715  L 18.936196319018407 9.235491071428573  L 19.994478527607363 9.235491071428573  L 19.331288343558285 7.2265625  L 15.90245398773006 7.2265625  L 15.23926380368098 9.235491071428573  L 16.29754601226994 9.235491071428573  L 16.29754601226994 10.714285714285715  L 12.247852760736198 10.714285714285715  L 12.247852760736198 9.235491071428573  L 13.23558282208589 9.235491071428573  L 16.480981595092025 0  L 18.766871165644172 0  L 22.012269938650306 9.235491071428573  Z " fill-rule="nonzero" fill="#4b4b4b" stroke="none" transform="matrix(1 0 0 1 346 214 )" />
  </g>
</svg>