<?xml version="1.0" encoding="utf-8"?>
<svg version="1.1" xmlns:xlink="http://www.w3.org/1999/xlink" width="30px" height="47px" xmlns="http://www.w3.org/2000/svg">
  <g transform="matrix(1 0 0 1 -247 -1107 )">
    <path d="M 20.4638671875 10.954427083333332  C 21.1962890625 11.729600694444445  21.5625 12.647569444444445  21.5625 13.708333333333332  C 21.5625 13.97352430555555  21.4697265625 14.20301649305555  21.2841796875 14.396809895833332  C 21.098632812500004 14.590603298611107  20.878906250000004 14.6875  20.625 14.6875  C 20.37109375 14.6875  20.1513671875 14.590603298611107  19.9658203125 14.396809895833332  C 19.780273437500004 14.20301649305555  19.6875 13.97352430555555  19.6875 13.708333333333332  C 19.6875 12.769965277777775  19.16015625 12.04578993055555  18.10546875 11.535807291666668  C 17.05078125 11.025824652777775  16.015625000000004 10.770833333333332  15 10.770833333333332  C 14.746093750000002 10.770833333333332  14.526367187500002 10.673936631944445  14.3408203125 10.480143229166668  C 14.155273437500002 10.286349826388882  14.062500000000002 10.056857638888882  14.0625 9.791666666666668  C 14.062500000000002 9.526475694444445  14.155273437500002 9.296983506944445  14.3408203125 9.103190104166668  C 14.526367187500002 8.909396701388882  14.746093750000002 8.8125  15 8.8125  C 15.976562500000002 8.8125  16.9482421875 8.975694444444445  17.9150390625 9.302083333333332  C 18.8818359375 9.62847222222222  19.7314453125 10.17925347222222  20.4638671875 10.954427083333332  Z M 24.2578125 19.216145833333332  C 25.5859375 17.604600694444443  26.25 15.768663194444445  26.25 13.708333333333332  C 26.25 12.239583333333332  25.9130859375 10.872829861111107  25.2392578125 9.608072916666668  C 24.5654296875 8.34331597222222  23.6865234375 7.308051215277775  22.6025390625 6.502278645833331  C 21.5185546875 5.696506076388882  20.3173828125 5.064127604166669  18.9990234375 4.605143229166669  C 17.6806640625 4.146158854166669  16.34765625 3.9166666666666683  15 3.9166666666666683  C 13.65234375 3.9166666666666683  12.3193359375 4.146158854166669  11.0009765625 4.605143229166669  C 9.6826171875 5.064127604166669  8.4814453125 5.696506076388882  7.3974609375 6.502278645833331  C 6.3134765625 7.308051215277775  5.4345703125 8.34331597222222  4.7607421875 9.608072916666668  C 4.0869140625 10.872829861111107  3.75 12.239583333333332  3.75 13.708333333333332  C 3.75 15.768663194444445  4.414062500000001 17.604600694444443  5.7421875 19.216145833333332  C 5.937500000000001 19.440538194444443  6.2353515625 19.777126736111107  6.6357421875 20.225911458333332  C 7.036132812500001 20.674696180555557  7.333984375 21.011284722222218  7.529296875 21.235677083333332  C 10.029296875000002 24.356770833333336  11.406250000000002 27.39626736111111  11.66015625 30.354166666666664  L 18.33984375 30.354166666666664  C 18.593750000000004 27.39626736111111  19.970703125000004 24.356770833333336  22.470703125 21.235677083333332  C 22.666015625000004 21.011284722222218  22.963867187500004 20.674696180555557  23.3642578125 20.225911458333332  C 23.764648437500004 19.777126736111107  24.0625 19.440538194444443  24.2578125 19.216145833333332  Z M 28.6962890625 8.062825520833332  C 29.565429687500004 9.806966145833332  30 11.688802083333332  30 13.708333333333332  C 30 16.870225694444443  28.994140625000004 19.60373263888889  26.982421875 21.908854166666668  C 26.103515625000004 22.90842013888889  25.375976562500004 23.79578993055555  24.7998046875 24.570963541666664  C 24.2236328125 25.346137152777775  23.642578125 26.32020399305555  23.056640625 27.4931640625  C 22.470703125 28.66612413194444  22.138671875000004 29.76258680555555  22.060546875 30.782552083333336  C 22.978515625 31.35373263888889  23.4375 32.190104166666664  23.4375 33.291666666666664  C 23.4375 34.046440972222214  23.193359375000004 34.69921875  22.705078125 35.25  C 23.193359375000004 35.80078125  23.4375 36.45355902777778  23.4375 37.20833333333333  C 23.4375 38.26909722222222  22.998046875 39.09526909722222  22.119140625 39.68684895833333  C 22.373046875 40.15603298611111  22.5 40.63541666666667  22.5 41.125  C 22.5 42.06336805555556  22.1923828125 42.78754340277778  21.5771484375 43.29752604166667  C 20.9619140625 43.80750868055556  20.205078125000004 44.0625  19.306640625 44.0625  C 18.916015625000004 44.96006944444444  18.330078125000004 45.67404513888889  17.548828125 46.20442708333333  C 16.767578125 46.73480902777778  15.917968750000002 47  15 47  C 14.082031250000002 47  13.232421875000002 46.73480902777778  12.451171875 46.20442708333333  C 11.669921875000002 45.67404513888889  11.083984375000002 44.96006944444444  10.693359375 44.0625  C 9.794921875000002 44.0625  9.0380859375 43.80750868055556  8.4228515625 43.29752604166667  C 7.8076171875 42.78754340277778  7.5 42.06336805555556  7.5 41.125  C 7.5 40.63541666666667  7.626953125000001 40.15603298611111  7.880859375 39.68684895833333  C 7.001953125 39.09526909722222  6.5625 38.26909722222222  6.5625 37.20833333333333  C 6.5625 36.45355902777778  6.806640625 35.80078125  7.294921875 35.25  C 6.806640625 34.69921875  6.5625 34.046440972222214  6.5625 33.291666666666664  C 6.5625 32.190104166666664  7.021484375000001 31.35373263888889  7.939453125 30.782552083333336  C 7.861328125000001 29.76258680555555  7.529296875 28.66612413194444  6.943359375 27.4931640625  C 6.357421875000001 26.32020399305555  5.776367187500001 25.346137152777775  5.2001953125 24.570963541666664  C 4.6240234375 23.79578993055555  3.896484375 22.90842013888889  3.017578125 21.908854166666668  C 1.0058593749999998 19.60373263888889  0 16.870225694444443  0 13.708333333333332  C 0 11.688802083333332  0.43457031249999994 9.806966145833332  1.3037109375 8.062825520833332  C 2.1728515625 6.318684895833331  3.3154296875 4.870334201388882  4.7314453125 3.7177734375  C 6.147460937500001 2.565212673611107  7.7490234375 1.6574435763888826  9.5361328125 0.9944661458333316  C 11.323242187500002 0.33148871527777546  13.144531250000002 0  15 0  C 16.85546875 0  18.6767578125 0.33148871527777546  20.4638671875 0.9944661458333316  C 22.2509765625 1.6574435763888826  23.852539062500004 2.565212673611107  25.2685546875 3.7177734375  C 26.6845703125 4.870334201388882  27.8271484375 6.318684895833331  28.6962890625 8.062825520833332  Z " fill-rule="nonzero" fill="#900c3f" stroke="none" transform="matrix(1 0 0 1 247 1107 )" />
  </g>
</svg>