<?xml version="1.0" encoding="utf-8"?>
<svg version="1.1" xmlns:xlink="http://www.w3.org/1999/xlink" width="148px" height="99px" xmlns="http://www.w3.org/2000/svg">
  <g transform="matrix(1 0 0 1 -635 -1946 )">
    <path d="M 101.966796875 0  C 114.396484375 0  126.00716145833334 2.995711222301638  136.798828125 8.987133666904937  L 148 99  C 141.68880208333334 99  135.49804687500003 97.6554681915654  129.427734375 94.96640457469621  C 119.79231770833334 90.67333809864188  110.32552083333334 88.52680486061473  101.02734375 88.52680486061473  C 90.13932291666667 88.52680486061473  81.13020833333334 92.01786990707647  74 99  C 66.86979166666667 92.01786990707647  57.860677083333336 88.52680486061473  46.97265625 88.52680486061473  C 37.67447916666667 88.52680486061473  28.207682291666668 90.67333809864188  18.572265625 94.96640457469621  C 12.405598958333334 97.6554681915654  6.335286458333335 99  0.361328125 99  L 0 99  L 11.201171875 8.987133666904937  C 21.992838541666668 2.995711222301638  33.603515625 0  46.033203125 0  C 57.25846354166668 0  66.58072916666667 2.500357398141527  74 7.501072194424592  C 81.41927083333334 2.500357398141527  90.74153645833334 0  101.966796875 0  Z M 74 86.4746247319514  C 82.28645833333334 81.37955682630451  91.29557291666667 78.83202287348107  101.02734375 78.83202287348107  C 107.2421875 78.83202287348107  112.83072916666667 79.50428877769835  117.79296875 80.84882058613296  C 122.75520833333334 82.19335239456754  129.01822916666669 84.39885632594711  136.58203125 87.46533238027162  L 127.62109375 15.214438884917794  C 119.3828125 11.534667619728381  110.51822916666667 9.69478198713367  101.02734375 9.69478198713367  C 90.23567708333334 9.69478198713367  81.2265625 13.020729092208715  74 19.67262330235883  C 66.7734375 13.020729092208715  57.76432291666667 9.69478198713367  46.97265625 9.69478198713367  C 37.481770833333336 9.69478198713367  28.617187500000004 11.534667619728381  20.37890625 15.214438884917794  L 11.41796875 87.46533238027162  C 16.4765625 85.43674052894924  20.463216145833336 83.903502501787  23.3779296875 82.86561829878485  C 26.292643229166664 81.8277340957827  29.869791666666664 80.89599714081487  34.109375 80.07040743388134  C 38.348958333333336 79.24481772694782  42.63671875 78.83202287348107  46.97265625 78.83202287348107  C 56.704427083333336 78.83202287348107  65.71354166666667 81.37955682630451  74 86.4746247319514  Z M 101.02734375 76.35525375268048  L 103.91796875 76.42601858470336  L 99.943359375 12.242315939957114  C 89.77799479166667 12.431022158684767  81.13020833333334 16.087205146533233  74 23.210864903502497  C 66.67708333333334 15.89849892780557  57.66796875 12.242315939957114  46.97265625 12.242315939957114  C 38.493489583333336 12.242315939957114  30.39973958333334 13.799142244460327  22.69140625 16.91279485346676  L 14.453125 83.5025017869907  C 20.427083333333336 81.09649749821301  25.931315104166668 79.30378842030022  30.9658203125 78.12437455325232  C 36.000325520833336 76.94496068620442  41.3359375 76.35525375268048  46.97265625 76.35525375268048  C 57.04166666666667 76.35525375268048  66.05078125 78.76125804145818  74 83.57326661901358  C 82.28645833333334 78.5253752680486  91.29557291666667 76.11937097927091  101.02734375 76.35525375268048  Z " fill-rule="nonzero" fill="#000000" stroke="none" transform="matrix(1 0 0 1 635 1946 )" />
  </g>
</svg>