<?xml version="1.0" encoding="utf-8"?>
<svg version="1.1" xmlns:xlink="http://www.w3.org/1999/xlink" width="39px" height="29px" xmlns="http://www.w3.org/2000/svg">
  <g transform="matrix(1 0 0 1 -330 -157 )">
    <path d="M 18.576416015625 12.3759765625  C 17.148193359375 13.7919921875  15.4248046875 14.5  13.40625 14.5  C 11.3876953125 14.5  9.664306640625 13.7919921875  8.236083984375 12.3759765625  C 6.807861328125 10.9599609375  6.09375 9.251302083333332  6.09375 7.25  C 6.09375 5.248697916666668  6.807861328125 3.5400390625  8.236083984375 2.1240234375  C 9.664306640625 0.7080078125  11.3876953125 0  13.40625 0  C 15.4248046875 0  17.148193359375 0.7080078125  18.576416015625 2.1240234375  C 20.004638671875 3.5400390625  20.71875 5.248697916666668  20.71875 7.25  C 20.71875 9.251302083333332  20.004638671875 10.9599609375  18.576416015625 12.3759765625  Z M 31.6875 10.270833333333332  L 31.6875 16.916666666666664  L 38.390625 16.916666666666664  C 38.5556640625 16.916666666666664  38.698486328125 16.976453993055554  38.819091796875 17.096028645833336  C 38.939697265625 17.21560329861111  39 17.35720486111111  39 17.520833333333336  L 39 21.145833333333336  C 39 21.309461805555554  38.939697265625 21.451063368055554  38.819091796875 21.570638020833336  C 38.698486328125 21.69021267361111  38.5556640625 21.75  38.390625 21.75  L 31.6875 21.75  L 31.6875 28.395833333333332  C 31.6875 28.559461805555557  31.627197265625004 28.701063368055557  31.506591796875 28.820638020833332  C 31.385986328125 28.940212673611107  31.2431640625 29  31.078125 29  L 27.421875 29  C 27.256835937500004 29  27.114013671875004 28.940212673611107  26.993408203125 28.820638020833332  C 26.872802734375 28.701063368055557  26.8125 28.559461805555557  26.8125 28.395833333333332  L 26.8125 21.75  L 20.109375 21.75  C 19.944335937500004 21.75  19.801513671875004 21.69021267361111  19.680908203125 21.570638020833336  C 19.560302734375 21.451063368055554  19.5 21.309461805555554  19.5 21.145833333333336  L 19.5 17.520833333333336  C 19.5 17.35720486111111  19.560302734375 17.21560329861111  19.680908203125 17.096028645833336  C 19.801513671875004 16.976453993055554  19.944335937500004 16.916666666666664  20.109375 16.916666666666664  L 26.8125 16.916666666666664  L 26.8125 10.270833333333332  C 26.8125 10.107204861111109  26.872802734375 9.965603298611109  26.993408203125 9.846028645833332  C 27.114013671875004 9.726453993055555  27.256835937500004 9.666666666666668  27.421875 9.666666666666668  L 31.078125 9.666666666666668  C 31.2431640625 9.666666666666668  31.385986328125 9.726453993055555  31.506591796875 9.846028645833332  C 31.627197265625004 9.965603298611109  31.6875 10.107204861111109  31.6875 10.270833333333332  Z M 17.671875 17.520833333333336  L 17.671875 21.145833333333336  C 17.671875 21.800347222222225  17.9130859375 22.366753472222225  18.3955078125 22.845052083333332  C 18.8779296875 23.323350694444443  19.44921875 23.5625  20.109375 23.5625  L 24.984375 23.5625  L 24.984375 28.055989583333332  C 24.12109375 28.685329861111107  23.03564453125 29  21.72802734375 29  L 5.08447265625 29  C 3.54833984375 29  2.31689453125 28.565755208333332  1.39013671875 27.697265625  C 0.46337890625 26.828776041666668  0 25.633029513888893  0 24.110026041666668  C 0 23.442925347222225  0.022216796874999997 22.791558159722225  0.066650390625 22.155924479166668  C 0.11108398437500001 21.52029079861111  0.199951171875 20.834309895833336  0.333251953125 20.097981770833336  C 0.466552734375 19.361653645833336  0.634765625 18.67881944444444  0.837890625 18.049479166666664  C 1.041015625 17.42013888888889  1.31396484375 16.806532118055554  1.65673828125 16.208658854166664  C 1.9995117187500002 15.610785590277777  2.3930664062500004 15.101019965277777  2.83740234375 14.679361979166664  C 3.28173828125 14.257703993055555  3.824462890625 13.921006944444445  4.465576171875 13.669270833333332  C 5.106689453125 13.41753472222222  5.814453125000001 13.291666666666668  6.5888671875 13.291666666666668  C 6.830078125 13.291666666666668  7.07763671875 13.398654513888888  7.33154296875 13.612630208333332  C 8.33447265625 14.38042534722222  9.315185546875 14.956271701388888  10.273681640625 15.340169270833336  C 11.232177734375 15.724066840277777  12.276367187500002 15.916015625  13.40625 15.916015625  C 14.5361328125 15.916015625  15.580322265625002 15.724066840277777  16.538818359375 15.340169270833336  C 17.497314453125 14.956271701388888  18.47802734375 14.38042534722222  19.48095703125 13.612630208333332  C 19.734863281250004 13.398654513888888  19.982421875000004 13.291666666666668  20.2236328125 13.291666666666668  C 21.8994140625 13.291666666666668  23.276855468750004 13.895833333333332  24.35595703125 15.104166666666664  L 20.109375 15.104166666666664  C 19.44921875 15.104166666666664  18.8779296875 15.343315972222223  18.3955078125 15.821614583333336  C 17.9130859375 16.29991319444444  17.671875 16.86631944444444  17.671875 17.520833333333336  Z " fill-rule="nonzero" fill="#900c3f" stroke="none" transform="matrix(1 0 0 1 330 157 )" />
  </g>
</svg>