<?xml version="1.0" encoding="utf-8"?>
<svg version="1.1" xmlns:xlink="http://www.w3.org/1999/xlink" width="48px" height="35px" xmlns="http://www.w3.org/2000/svg">
  <g transform="matrix(1 0 0 1 -40 -1564 )">
    <path d="M 2.833333333333333 20.76923076923077  C 3.055555555555556 21.282051282051285  3.4444444444444446 21.53846153846154  4 21.53846153846154  C 4.555555555555555 21.53846153846154  4.944444444444445 21.282051282051285  5.166666666666667 20.76923076923077  C 5.388888888888889 20.256410256410255  5.388888888888889 19.743589743589745  5.166666666666667 19.230769230769234  C 4.944444444444445 18.71794871794872  4.555555555555555 18.461538461538463  4 18.461538461538463  C 3.4444444444444446 18.461538461538463  3.055555555555556 18.71794871794872  2.833333333333333 19.230769230769234  C 2.6111111111111116 19.743589743589745  2.6111111111111116 20.256410256410255  2.833333333333333 20.76923076923077  Z M 35.322916666666664 21.911057692307693  C 35.274305555555564 21.27804487179487  35.06250000000001 20.689102564102562  34.6875 20.144230769230766  C 34.548611111111114 19.935897435897434  34.28125 19.535256410256405  33.88541666666667 18.942307692307693  C 33.489583333333336 18.34935897435897  33.201388888888886 17.916666666666664  33.020833333333336 17.64423076923077  C 32.84027777777778 17.371794871794872  32.57638888888889 16.979166666666664  32.229166666666664 16.466346153846153  C 31.88194444444445 15.953525641025639  31.586805555555557 15.528846153846153  31.34375 15.192307692307693  C 31.100694444444446 14.855769230769232  30.819444444444446 14.479166666666666  30.5 14.0625  C 30.180555555555557 13.645833333333332  29.868055555555557 13.253205128205128  29.5625 12.884615384615385  L 26.958333333333332 16.25  C 25.805555555555557 17.756410256410255  24.357638888888893 18.49358974358974  22.614583333333336 18.461538461538463  C 20.871527777777782 18.429487179487175  19.44444444444445 17.64423076923077  18.333333333333332 16.105769230769234  C 17.541666666666668 15.000000000000002  17.149305555555557 13.733974358974358  17.15625 12.307692307692307  C 17.163194444444443 10.881410256410257  17.569444444444446 9.623397435897433  18.375 8.533653846153847  L 22.0625 3.5817307692307683  C 21.756944444444446 3.4054487179487136  21.402777777777782 3.2732371794871757  21 3.185096153846154  C 20.597222222222225 3.096955128205125  20.26736111111111 3.048878205128202  20.010416666666668 3.0408653846153855  C 19.753472222222225 3.032852564102561  19.361111111111114 3.0368589743589713  18.833333333333332 3.0528846153846163  C 18.305555555555557 3.0689102564102533  17.96527777777778 3.0769230769230775  17.8125 3.0769230769230775  C 16.53472222222222 3.0769230769230775  15.4375 3.6057692307692295  14.520833333333332 4.663461538461537  L 11.229166666666666 8.461538461538463  L 8 8.461538461538463  L 8 21.53846153846154  C 8.069444444444445 21.53846153846154  8.215277777777779 21.534455128205135  8.4375 21.526442307692307  C 8.659722222222223 21.518429487179485  8.8125 21.518429487179485  8.895833333333332 21.526442307692307  C 8.979166666666666 21.534455128205135  9.114583333333334 21.550480769230766  9.302083333333334 21.574519230769226  C 9.489583333333334 21.59855769230769  9.631944444444445 21.634615384615387  9.729166666666666 21.682692307692307  C 9.826388888888891 21.73076923076923  9.947916666666668 21.7988782051282  10.09375 21.88701923076923  C 10.239583333333334 21.975160256410252  10.368055555555557 22.083333333333332  10.479166666666666 22.21153846153846  L 16.666666666666664 29.230769230769234  C 18.263888888888893 31.009615384615383  19.840277777777782 31.89903846153846  21.395833333333336 31.89903846153846  C 22.479166666666664 31.89903846153846  23.347222222222225 31.522435897435894  24 30.76923076923077  C 24.791666666666668 31.089743589743588  25.572916666666664 31.02564102564103  26.34375 30.576923076923077  C 27.114583333333336 30.128205128205128  27.618055555555557 29.447115384615383  27.854166666666664 28.533653846153847  C 28.88194444444445 28.629807692307693  29.763888888888893 28.27724358974359  30.5 27.475961538461537  C 30.77777777777778 27.1875  31.02777777777778 26.822916666666664  31.25 26.382211538461537  C 31.47222222222222 25.94150641025641  31.569444444444446 25.536858974358974  31.541666666666668 25.16826923076923  C 31.680555555555557 25.328525641025646  31.979166666666664 25.408653846153847  32.4375 25.408653846153847  C 33.03472222222222 25.408653846153847  33.56944444444445 25.240384615384617  34.041666666666664 24.903846153846153  C 34.51388888888889 24.56730769230769  34.8576388888889 24.142628205128204  35.072916666666664 23.629807692307693  C 35.28819444444445 23.116987179487175  35.37152777777778 22.54407051282051  35.322916666666664 21.911057692307693  Z M 36.75 18.17307692307692  C 37.47222222222222 19.230769230769234  37.888888888888886 20.3525641025641  38 21.53846153846154  L 40 21.53846153846154  L 40 9.23076923076923  L 38.0625 9.23076923076923  L 34.791666666666664 4.9038461538461515  C 33.875 3.6858974358974343  32.70138888888889 3.0769230769230775  31.270833333333332 3.0769230769230775  L 27.791666666666668 3.0769230769230775  C 26.555555555555557 3.0769230769230775  25.541666666666668 3.61378205128205  24.75 4.687499999999999  L 20.395833333333332 10.528846153846155  C 20.00694444444445 11.057692307692307  19.812500000000004 11.658653846153847  19.8125 12.331730769230768  C 19.812500000000004 13.004807692307693  20.000000000000004 13.60576923076923  20.375 14.134615384615385  C 20.972222222222225 14.951923076923078  21.736111111111114 15.368589743589743  22.666666666666664 15.384615384615385  C 23.597222222222225 15.400641025641026  24.368055555555557 15.008012820512818  24.979166666666668 14.20673076923077  L 29 8.966346153846153  C 29.347222222222225 8.597756410256407  29.71875 8.42548076923077  30.114583333333336 8.449519230769232  C 30.510416666666668 8.473557692307693  30.836805555555557 8.689903846153847  31.09375 9.098557692307692  C 31.35069444444445 9.50721153846154  31.409722222222225 9.959935897435898  31.270833333333332 10.45673076923077  C 31.493055555555557 10.761217948717949  31.88194444444445 11.26602564102564  32.4375 11.971153846153847  C 32.99305555555556 12.67628205128205  33.40972222222222 13.221153846153847  33.6875 13.60576923076923  C 34.090277777777786 14.182692307692308  34.66319444444444 15.028044871794872  35.40625 16.141826923076923  C 36.14930555555556 17.25560897435897  36.59722222222222 17.932692307692307  36.75 18.17307692307692  Z M 42.833333333333336 20.76923076923077  C 43.055555555555564 21.282051282051285  43.44444444444445 21.53846153846154  44 21.53846153846154  C 44.555555555555564 21.53846153846154  44.94444444444445 21.282051282051285  45.166666666666664 20.76923076923077  C 45.38888888888889 20.256410256410255  45.38888888888889 19.743589743589745  45.166666666666664 19.230769230769234  C 44.94444444444445 18.71794871794872  44.555555555555564 18.461538461538463  44 18.461538461538463  C 43.44444444444445 18.461538461538463  43.055555555555564 18.71794871794872  42.833333333333336 19.230769230769234  C 42.611111111111114 19.743589743589745  42.611111111111114 20.256410256410255  42.833333333333336 20.76923076923077  Z M 47.604166666666664 6.610576923076923  C 47.868055555555564 6.915064102564098  48 7.275641025641023  48 7.6923076923076925  L 48 23.076923076923077  C 48 23.49358974358974  47.868055555555564 23.854166666666668  47.604166666666664 24.158653846153847  C 47.34027777777778 24.463141025641026  47.027777777777786 24.615384615384613  46.666666666666664 24.615384615384613  L 37.625 24.615384615384613  C 37.25 25.65705128205128  36.680555555555564 26.510416666666664  35.916666666666664 27.17548076923077  C 35.15277777777778 27.840544871794872  34.28472222222222 28.253205128205124  33.3125 28.41346153846154  C 32.85416666666667 29.18269230769231  32.29513888888889 29.835737179487182  31.635416666666668 30.372596153846153  C 30.97569444444445 30.909455128205128  30.263888888888893 31.274038461538463  29.5 31.466346153846153  C 28.916666666666668 32.315705128205124  28.19097222222222 32.96875  27.322916666666668 33.425480769230774  C 26.454861111111114 33.88221153846154  25.5625 34.07852564102564  24.645833333333336 34.01442307692307  C 23.8125 34.559294871794876  22.9375 34.87580128205128  22.020833333333332 34.96394230769231  C 21.104166666666668 35.052083333333336  20.21875 34.93990384615385  19.364583333333332 34.62740384615385  C 18.510416666666668 34.31490384615385  17.697916666666664 33.88621794871795  16.927083333333332 33.34134615384615  C 16.15625 32.79647435897436  15.4375 32.1474358974359  14.770833333333332 31.39423076923077  L 8.791666666666666 24.615384615384613  L 1.3333333333333333 24.615384615384613  C 0.9722222222222223 24.615384615384613  0.6597222222222222 24.463141025641026  0.39583333333333337 24.158653846153847  C 0.13194444444444445 23.854166666666668  0 23.49358974358974  0 23.076923076923077  L 0 6.923076923076922  C 0 6.506410256410253  0.13194444444444445 6.145833333333331  0.39583333333333337 5.841346153846152  C 0.6597222222222222 5.5368589743589745  0.9722222222222223 5.384615384615385  1.3333333333333333 5.384615384615385  L 10.104166666666666 5.384615384615385  C 10.298611111111112 5.160256410256407  10.625 4.77564102564102  11.083333333333334 4.230769230769232  C 11.541666666666668 3.6858974358974343  11.871527777777779 3.301282051282051  12.072916666666666 3.0769230769230775  C 12.274305555555557 2.8525641025641004  12.57986111111111 2.532051282051281  12.989583333333332 2.115384615384616  C 13.399305555555557 1.6987179487179467  13.75 1.3982371794871744  14.041666666666666 1.2139423076923073  C 14.333333333333332 1.0296474358974321  14.6875 0.8253205128205099  15.104166666666668 0.6009615384615402  C 15.520833333333332 0.3766025641025589  15.95138888888889 0.22035256410255943  16.395833333333332 0.132211538461538  C 16.840277777777782 0.044070512820512664  17.3125 0  17.8125 0  L 20.25 0  C 21.625 0  22.881944444444446 0.44871794871794324  24.020833333333336 1.3461538461538454  C 25.15972222222222 0.44871794871794324  26.416666666666664 0  27.791666666666668 0  L 31.270833333333332 0  C 31.756944444444443 0  32.22222222222222 0.048076923076922906  32.66666666666667 0.14423076923076872  C 33.111111111111114 0.24038461538461453  33.50347222222222 0.35657051282051155  33.84375 0.4927884615384598  C 34.184027777777786 0.629006410256408  34.54166666666667 0.8413461538461547  34.91666666666667 1.129807692307692  C 35.29166666666667 1.4182692307692295  35.60069444444444 1.6666666666666647  35.84375 1.875000000000001  C 36.08680555555556 2.08333333333333  36.385416666666664 2.3998397435897427  36.739583333333336 2.8245192307692326  C 37.09375 3.249198717948714  37.36458333333333 3.5857371794871744  37.55208333333333 3.834134615384617  C 37.73958333333333 4.082532051282048  38.02430555555556 4.467147435897435  38.40625 4.987980769230771  C 38.78819444444444 5.508814102564099  39.07638888888889 5.897435897435896  39.270833333333336 6.153846153846155  L 46.666666666666664 6.153846153846155  C 47.027777777777786 6.153846153846155  47.34027777777778 6.306089743589741  47.604166666666664 6.610576923076923  Z " fill-rule="nonzero" fill="#900c3f" stroke="none" transform="matrix(1 0 0 1 40 1564 )" />
  </g>
</svg>