<?xml version="1.0" encoding="utf-8"?>
<svg version="1.1" xmlns:xlink="http://www.w3.org/1999/xlink" width="30px" height="39px" xmlns="http://www.w3.org/2000/svg">
  <g transform="matrix(1 0 0 1 -242 -1197 )">
    <path d="M 15 37.25892857142858  C 15.192307692307695 37.25892857142858  15.28846153846154 37.142857142857146  15.288461538461537 36.910714285714285  C 15.28846153846154 36.67857142857143  15.192307692307695 36.5625  15 36.5625  C 14.290865384615385 36.5625  13.680889423076925 36.25418526785714  13.170072115384615 35.63755580357142  C 12.659254807692308 35.020926339285715  12.403846153846153 34.284598214285715  12.403846153846153 33.42857142857143  C 12.403846153846153 33.19642857142857  12.307692307692308 33.08035714285714  12.115384615384615 33.08035714285714  C 11.923076923076923 33.08035714285714  11.826923076923077 33.19642857142857  11.826923076923077 33.42857142857143  C 11.826923076923077 34.487723214285715  12.13641826923077 35.390904017857146  12.755408653846153 36.138113839285715  C 13.37439903846154 36.885323660714285  14.122596153846155 37.25892857142858  15 37.25892857142858  Z M 8.076923076923077 12.535714285714285  C 8.076923076923077 20.25446428571429  6.478365384615385 26.29017857142857  3.28125 30  L 26.71875 30  C 23.521634615384617 26.29017857142857  21.923076923076923 20.25446428571429  21.923076923076923 12.535714285714285  C 21.923076923076923 11.795758928571427  21.778846153846153 11.034040178571427  21.490384615384617 10.250558035714285  C 21.201923076923077 9.467075892857142  20.787259615384617 8.719866071428568  20.24639423076923 8.008928571428573  C 19.705528846153847 7.29799107142857  18.975360576923077 6.714006696428573  18.055889423076923 6.256975446428573  C 17.13641826923077 5.799944196428573  16.117788461538463 5.571428571428573  15 5.571428571428573  C 13.882211538461538 5.571428571428573  12.863581730769232 5.799944196428573  11.944110576923077 6.256975446428573  C 11.024639423076923 6.714006696428573  10.294471153846153 7.29799107142857  9.753605769230768 8.008928571428573  C 9.212740384615385 8.719866071428568  8.798076923076923 9.467075892857142  8.509615384615385 10.250558035714285  C 8.221153846153847 11.034040178571427  8.076923076923077 11.795758928571427  8.076923076923077 12.535714285714285  Z M 28.359375 28.72767857142857  C 28.852163461538463 29.39508928571429  29.399038461538463 30.033482142857142  30 30.642857142857142  C 30.000000000000007 31.39732142857143  29.771634615384617 32.050223214285715  29.314903846153847 32.6015625  C 28.85817307692308 33.152901785714285  28.317307692307693 33.42857142857143  27.692307692307693 33.42857142857143  L 19.615384615384617 33.42857142857143  C 19.615384615384617 34.96651785714286  19.164663461538463 36.27957589285714  18.263221153846153 37.367745535714285  C 17.361778846153847 38.45591517857142  16.274038461538463 39  15 39  C 13.72596153846154 39  12.638221153846153 38.45591517857142  11.736778846153847 37.367745535714285  C 10.835336538461538 36.27957589285714  10.384615384615385 34.96651785714286  10.384615384615385 33.42857142857143  L 2.307692307692308 33.42857142857143  C 1.682692307692308 33.42857142857143  1.1418269230769231 33.152901785714285  0.6850961538461539 32.6015625  C 0.2283653846153847 32.050223214285715  0 31.39732142857143  0 30.642857142857142  C 0.6009615384615387 30.033482142857142  1.1478365384615388 29.39508928571429  1.640625 28.72767857142857  C 2.1334134615384617 28.060267857142854  2.6442307692307696 27.193359375  3.173076923076923 26.126953125  C 3.7019230769230775 25.060546875  4.149639423076923 23.910714285714285  4.516225961538462 22.677455357142858  C 4.882812500000001 21.444196428571427  5.183293269230769 19.94977678571429  5.417668269230769 18.194196428571427  C 5.652043269230769 16.43861607142857  5.769230769230769 14.552455357142852  5.769230769230769 12.535714285714285  C 5.769230769230769 10.33035714285714  6.472355769230769 8.280970982142858  7.878605769230768 6.387555803571427  C 9.284855769230768 4.494140625  11.129807692307693 3.344308035714283  13.413461538461538 2.9380580357142847  C 13.317307692307693 2.6623883928571392  13.269230769230768 2.379464285714286  13.269230769230768 2.0892857142857153  C 13.269230769230768 1.5089285714285703  13.4375 1.0156249999999987  13.774038461538462 0.609375  C 14.110576923076925 0.20312500000000144  14.51923076923077 0  15 0  C 15.480769230769232 0  15.88942307692308 0.20312500000000144  16.225961538461537 0.609375  C 16.5625 1.0156249999999987  16.73076923076923 1.5089285714285703  16.73076923076923 2.0892857142857153  C 16.73076923076923 2.379464285714286  16.682692307692307 2.6623883928571392  16.586538461538463 2.9380580357142847  C 18.87019230769231 3.344308035714283  20.71514423076923 4.494140625  22.12139423076923 6.387555803571427  C 23.52764423076923 8.280970982142858  24.23076923076923 10.33035714285714  24.23076923076923 12.535714285714285  C 24.23076923076923 14.552455357142852  24.34795673076923 16.43861607142857  24.58233173076923 18.194196428571427  C 24.81670673076923 19.94977678571429  25.1171875 21.444196428571427  25.483774038461537 22.677455357142858  C 25.85036057692308 23.910714285714285  26.298076923076923 25.060546875  26.826923076923077 26.126953125  C 27.355769230769234 27.193359375  27.866586538461544 28.060267857142854  28.359375 28.72767857142857  Z " fill-rule="nonzero" fill="#900c3f" stroke="none" transform="matrix(1 0 0 1 242 1197 )" />
  </g>
</svg>