<?xml version="1.0" encoding="utf-8"?>
<svg version="1.1" xmlns:xlink="http://www.w3.org/1999/xlink" width="43px" height="24px" xmlns="http://www.w3.org/2000/svg">
  <g transform="matrix(1 0 0 1 -30 -26 )">
    <path d="M 42.2021484375 0.791666666666645  C 42.7340494791667 1.3194444444444409  43 1.9444444444444084  43 2.6666666666666448  C 43 3.388888888888882  42.7340494791667 4.013888888888849  42.2021484375 4.541666666666645  L 23.3896484375 23.208333333333357  C 22.8577473958333 23.73611111111115  22.2278645833333 24  21.5 24  C 20.7721354166667 24  20.1422526041667 23.73611111111115  19.6103515625 23.208333333333357  L 0.7978515625 4.541666666666645  C 0.2659505208333008 4.013888888888849  0 3.388888888888882  0 2.6666666666666448  C 0 1.9444444444444084  0.2659505208333008 1.3194444444444409  0.7978515625 0.791666666666645  C 1.3297526041666992 0.2638888888888492  1.9596354166666994 0  2.6875 0  L 18.633333333334377 0  L 40.3125 0  C 41.0403645833333 0  41.6702473958333 0.2638888888888492  42.2021484375 0.791666666666645  Z " fill-rule="nonzero" fill="#000000" stroke="none" fill-opacity="0.6862745098039216" transform="matrix(1 0 0 1 30 26 )" />
  </g>
</svg>