<?xml version="1.0" encoding="utf-8"?>
<svg version="1.1" xmlns:xlink="http://www.w3.org/1999/xlink" width="26px" height="39px" xmlns="http://www.w3.org/2000/svg">
  <g transform="matrix(1 0 0 1 -333 -1197 )">
    <path d="M 12.0478515625 31.223845108695652  C 12.6826171875 30.561480978260867  13 29.762228260869563  13 28.82608695652174  C 13 28.190217391304348  12.830729166666668 27.580842391304348  12.4921875 26.99796195652174  C 12.475260416666668 26.980298913043477  12.344075520833334 26.78158967391304  12.0986328125 26.401834239130434  C 11.853190104166668 26.022078804347828  11.637369791666668 25.686480978260867  11.451171875 25.395040760869566  C 11.264973958333334 25.10360054347826  11.053385416666668 24.71501358695652  10.81640625 24.229279891304348  C 10.579427083333334 23.743546195652176  10.401692708333334 23.297554347826086  10.283203125 22.891304347826086  C 10.215494791666668 22.60869565217391  10.037760416666668 22.467391304347828  9.75 22.467391304347828  C 9.462239583333334 22.467391304347828  9.284505208333334 22.60869565217391  9.216796875 22.891304347826086  C 9.098307291666668 23.297554347826086  8.920572916666668 23.743546195652176  8.68359375 24.229279891304348  C 8.446614583333334 24.71501358695652  8.235026041666668 25.10360054347826  8.048828125 25.395040760869566  C 7.862630208333334 25.686480978260867  7.646809895833334 26.022078804347828  7.4013671875 26.401834239130434  C 7.155924479166668 26.78158967391304  7.024739583333334 26.980298913043477  7.0078125 26.99796195652174  C 6.669270833333334 27.580842391304348  6.5 28.190217391304348  6.5 28.82608695652174  C 6.5 29.762228260869563  6.8173828125 30.561480978260867  7.4521484375 31.223845108695652  C 8.0869140625 31.886209239130434  8.852864583333334 32.21739130434783  9.75 32.21739130434783  C 10.647135416666668 32.21739130434783  11.4130859375 31.886209239130434  12.0478515625 31.223845108695652  Z M 23.943359375 18.148777173913043  C 25.314453125 20.391983695652176  26 22.82065217391304  26 25.434782608695652  C 26 29.179347826086953  24.73046875 32.37635869565217  22.19140625 35.025815217391305  C 19.65234375 37.67527173913044  16.588541666666668 39  13 39  C 9.411458333333334 39  6.347656250000001 37.67527173913044  3.80859375 35.025815217391305  C 1.26953125 32.37635869565217  0 29.179347826086953  0 25.434782608695652  C 0 22.873641304347824  0.685546875 20.444972826086953  2.056640625 18.148777173913043  C 2.158203125 17.989809782608695  2.687174479166667 17.190557065217387  3.6435546875 15.75101902173913  C 4.599934895833334 14.311480978260871  5.454752604166667 12.977921195652172  6.2080078125 11.750339673913043  C 6.961263020833334 10.522758152173909  7.803385416666668 8.950747282608694  8.734375 7.03430706521739  C 9.665364583333336 5.117866847826082  10.367838541666668 3.338315217391305  10.841796875 1.6956521739130423  C 10.994140625 1.165760869565216  11.281901041666668 0.7506793478260833  11.705078125 0.45040760869565255  C 12.128255208333336 0.1501358695652132  12.559895833333336 0  13 0  C 13.440104166666668 0  13.8759765625 0.1501358695652132  14.3076171875 0.45040760869565255  C 14.7392578125 0.7506793478260833  15.022786458333336 1.165760869565216  15.158203125 1.6956521739130423  C 15.632161458333336 3.338315217391305  16.334635416666668 5.117866847826082  17.265625 7.03430706521739  C 18.196614583333336 8.950747282608694  19.038736979166668 10.522758152173909  19.7919921875 11.750339673913043  C 20.545247395833336 12.977921195652172  21.400065104166668 14.311480978260871  22.3564453125 15.75101902173913  C 23.312825520833336 17.190557065217387  23.841796875 17.989809782608695  23.943359375 18.148777173913043  Z " fill-rule="nonzero" fill="#900c3f" stroke="none" transform="matrix(1 0 0 1 333 1197 )" />
  </g>
</svg>