<?xml version="1.0" encoding="utf-8"?>
<svg version="1.1" xmlns:xlink="http://www.w3.org/1999/xlink" width="33px" height="38px" xmlns="http://www.w3.org/2000/svg">
  <g transform="matrix(1 0 0 1 -43 -339 )">
    <path d="M 27.5 10.857142857142856  C 27.5 12.935267857142856  26.934244791666668 14.857886904761902  25.802734375 16.625  C 26.475911458333336 16.822916666666664  27.116861979166668 17.091517857142858  27.7255859375 17.43080357142857  C 28.334309895833336 17.77008928571429  28.9716796875 18.286086309523807  29.6376953125 18.978794642857142  C 30.3037109375 19.671502976190474  30.873046875 20.487909226190474  31.345703125 21.428013392857142  C 31.818359375 22.368117559523807  32.212239583333336 23.583891369047613  32.52734375 25.075334821428573  C 32.842447916666664 26.566778273809526  33 28.238467261904763  33 30.09040178571429  C 33 32.26748511904762  32.283854166666664 34.13002232142857  30.8515625 35.678013392857146  C 29.41927083333334 37.226004464285715  27.693359375 38  25.673828125 38  L 7.326171875 38  C 5.306640625 38  3.5807291666666674 37.226004464285715  2.1484375 35.678013392857146  C 0.7161458333333331 34.13002232142857  0 32.26748511904762  0 30.09040178571429  C 0 28.238467261904763  0.15755208333333331 26.566778273809526  0.47265625 25.075334821428573  C 0.7877604166666667 23.583891369047613  1.181640625 22.368117559523807  1.654296875 21.428013392857142  C 2.126953125 20.487909226190474  2.6962890625 19.671502976190474  3.3623046875 18.978794642857142  C 4.0283203125 18.286086309523807  4.665690104166667 17.77008928571429  5.2744140625 17.43080357142857  C 5.883138020833334 17.091517857142858  6.524088541666667 16.822916666666664  7.197265625 16.625  C 6.065755208333335 14.857886904761902  5.5 12.935267857142856  5.5 10.857142857142856  C 5.5 9.386904761904757  5.7900390625 7.9838169642857135  6.3701171875 6.6478794642857135  C 6.9501953125 5.3119419642857135  7.734375 4.15625  8.72265625 3.1808035714285694  C 9.7109375 2.2053571428571432  10.8818359375 1.4313616071428565  12.2353515625 0.8588169642857131  C 13.5888671875 0.2862723214285696  15.010416666666668 0  16.5 0  C 17.989583333333336 0  19.4111328125 0.2862723214285696  20.7646484375 0.8588169642857131  C 22.1181640625 1.4313616071428565  23.2890625 2.2053571428571432  24.27734375 3.1808035714285694  C 25.265625 4.15625  26.0498046875 5.3119419642857135  26.6298828125 6.6478794642857135  C 27.2099609375 7.9838169642857135  27.5 9.386904761904757  27.5 10.857142857142856  Z M 22.3330078125 5.099888392857143  C 20.721679687500004 3.5094866071428568  18.777343750000004 2.714285714285713  16.5 2.714285714285713  C 14.22265625 2.714285714285713  12.2783203125 3.5094866071428568  10.6669921875 5.099888392857143  C 9.0556640625 6.690290178571431  8.25 8.609375  8.25 10.857142857142856  C 8.25 13.104910714285714  9.0556640625 15.023995535714286  10.6669921875 16.61439732142857  C 12.2783203125 18.204799107142858  14.22265625 19  16.5 19  C 18.777343750000004 19  20.721679687500004 18.204799107142858  22.3330078125 16.61439732142857  C 23.9443359375 15.023995535714286  24.75 13.104910714285714  24.75 10.857142857142856  C 24.75 8.609375  23.9443359375 6.690290178571431  22.3330078125 5.099888392857143  Z M 7.326171875 35  L 25.673828125 35  C 26.934244791666668 35.285714285714285  28.012044270833336 34.78031994047619  28.9072265625 33.76953125  C 29.802408854166668 32.75874255952381  30.25 31.532366071428573  30.25 30.09040178571429  C 30.25 26.711681547619044  29.687825520833336 24.046875  28.5634765625 22.095982142857142  C 27.439127604166668 20.14508928571429  25.82421875 19.12016369047619  23.71875 19.021205357142858  C 21.641927083333332 20.816592261904763  19.235677083333336 21.71428571428571  16.5 21.71428571428571  C 13.764322916666668 21.71428571428571  11.35807291666667 20.816592261904763  9.28125 19.021205357142858  C 7.17578125 19.12016369047619  5.560872395833334 20.14508928571429  4.4365234375 22.095982142857142  C 3.312174479166667 24.046875  2.75 26.711681547619044  2.75 30.09040178571429  C 2.75 31.532366071428573  3.1975911458333335 32.75874255952381  4.0927734375 33.76953125  C 4.987955729166667 34.78031994047619  6.065755208333335 35.285714285714285  7.326171875 35  Z " fill-rule="nonzero" fill="#900c3f" stroke="none" transform="matrix(1 0 0 1 43 339 )" />
  </g>
</svg>