<?xml version="1.0" encoding="utf-8"?>
<svg version="1.1" xmlns:xlink="http://www.w3.org/1999/xlink" width="42px" height="50px" xmlns="http://www.w3.org/2000/svg">
  <g transform="matrix(1 0 0 1 -61 -346 )">
    <path d="M 41.72109375 36.149088541666664  C 41.90703125 37.78754340277777  42 39.52907986111111  42 41.37369791666667  C 42 43.73914930555556  41.31640625 45.76822916666667  39.94921875 47.4609375  C 38.58203125 49.15364583333333  36.9359375 50  35.010937500000004 50  L 6.9890625 50  C 5.0640625 50  3.4179687500000004 49.15364583333333  2.0507812500000004 47.4609375  C 0.6835937500000002 45.76822916666667  0 43.73914930555556  0 41.37369791666667  C 0 39.52907986111111  0.09296875000000021 37.78754340277777  0.27890625000000024 36.149088541666664  C 0.4648437500000002 34.51063368055555  0.8093750000000002 32.861328125  1.3125000000000002 31.201171875  C 1.8156250000000005 29.541015625  2.4554687500000005 28.11957465277778  3.23203125 26.936848958333336  C 4.008593750000001 25.754123263888886  5.0367187499999995 24.788411458333332  6.31640625 24.039713541666668  C 7.59609375 23.291015625  9.067187500000001 22.916666666666668  10.7296875 22.916666666666668  C 13.595312500000002 25.694444444444443  17.018750000000004 27.083333333333336  21 27.083333333333336  C 24.981250000000006 27.083333333333336  28.404687500000005 25.694444444444443  31.2703125 22.916666666666668  C 32.932812500000004 22.916666666666668  34.40390625 23.291015625  35.68359375 24.039713541666668  C 36.96328125 24.788411458333332  37.991406250000004 25.754123263888886  38.76796875 26.936848958333336  C 39.544531250000006 28.11957465277778  40.184375 29.541015625  40.6875 31.201171875  C 41.190625000000004 32.861328125  41.53515625 34.51063368055555  41.72109375 36.149088541666664  Z M 29.90859375 3.662109375  C 32.36953125 6.103515625  33.6 9.049479166666668  33.6 12.5  C 33.6 15.950520833333332  32.36953125 18.896484375  29.90859375 21.337890625  C 27.44765625 23.779296875  24.478125 25  21 25  C 17.521874999999998 25  14.55234375 23.779296875  12.09140625 21.337890625  C 9.63046875 18.896484375  8.4 15.950520833333332  8.4 12.5  C 8.4 9.049479166666668  9.63046875 6.103515625  12.09140625 3.662109375  C 14.55234375 1.220703125  17.521874999999998 0  21 0  C 24.478125 0  27.44765625 1.220703125  29.90859375 3.662109375  Z " fill-rule="nonzero" fill="#4b4b4b" stroke="none" transform="matrix(1 0 0 1 61 346 )" />
  </g>
</svg>