<?xml version="1.0" encoding="utf-8"?>
<svg version="1.1" xmlns:xlink="http://www.w3.org/1999/xlink" width="42px" height="45px" xmlns="http://www.w3.org/2000/svg">
  <g transform="matrix(1 0 0 1 -284 -1158 )">
    <path d="M 21.054687499999975 25.71428571428573  C 25.138020833333314 25.71428571428573  27.179687500000025 27.12053571428573  27.179687500000025 29.93303571428573  C 27.179687500000025 31.372767857142847  27.024739583333314 33.02176339285718  26.714843749999975 34.88002232142855  C 26.149739583333343 38.479352678571395  25.648437499999975 41.099330357142875  25.210937500000025 42.73995535714282  C 24.809895833333314 44.24665178571427  23.424479166666686 45  21.054687499999975 45  C 18.684895833333343 45  17.29947916666663 44.24665178571427  16.8984375 42.73995535714282  C 16.46093749999997 41.099330357142875  15.959635416666687 38.479352678571395  15.394531249999972 34.88002232142855  C 15.084635416666629 33.0385044642857  14.9296875 31.389508928571452  14.9296875 29.93303571428573  C 14.9296875 27.12053571428573  16.97135416666663 25.71428571428573  21.054687499999975 25.71428571428573  Z M 40.20898437499997 11.538783482142824  C 41.40299479166666 13.9913504464286  42 16.573660714285726  42 19.285714285714274  C 42 23.303571428571452  40.77864583333337 26.936383928571423  38.33593750000003 30.18415178571427  C 35.893229166666686 33.431919642857125  32.70312499999997 35.77566964285715  28.765624999999975 37.21540178571427  C 28.619791666666625 37.265625  28.483072916666657 37.24051339285718  28.355468749999975 37.14006696428573  C 28.227864583333375 37.03962053571427  28.173177083333314 36.9140625  28.191406249999975 36.76339285714282  C 28.319010416666657 35.95982142857145  28.410156250000025 35.40736607142855  28.46484375 35.10602678571427  C 28.537760416666625 34.57031249999997  28.592447916666686 34.17689732142855  28.62890625 33.92578125  C 28.647135416666657 33.77511160714282  28.729166666666657 33.67466517857145  28.875 33.62444196428573  C 31.773437500000025 32.26841517857145  34.10221354166666 30.309709821428548  35.86132812499997 27.748325892857178  C 37.62044270833337 25.18694196428573  38.50000000000003 22.366071428571423  38.50000000000003 19.285714285714274  C 38.50000000000003 16.272321428571452  37.67057291666666 13.505859375000027  36.01171875 10.986328125  C 34.35286458333334 8.466796874999973  32.10156250000003 6.50390625  29.257812499999975 5.09765625  C 26.4140625 3.69140625  23.342447916666686 3.07198660714285  20.04296875000003 3.2393973214285494  C 17.782552083333343 3.3565848214286014  15.622395833333313 3.8671875  13.562500000000028 4.771205357142824  C 11.502604166666657 5.675223214285725  9.738932291666657 6.85128348214285  8.271484375000028 8.299386160714274  C 6.804036458333314 9.7474888392857  5.637369791666656 11.43833705357145  4.771484374999972 13.37193080357145  C 3.9055989583333717 15.30552455357145  3.4817708333333144 17.31863839285715  3.499999999999972 19.411272321428548  C 3.5182291666666283 22.491629464285698  4.420572916666629 25.308314732142847  6.207031249999972 27.861328125  C 7.993489583333314 30.414341517857153  10.3359375 32.3521205357143  13.234375000000028 33.67466517857145  C 13.361979166666629 33.72488839285718  13.444010416666629 33.82533482142855  13.480468750000028 33.97600446428573  C 13.53515625 34.32756696428573  13.589843749999972 34.70424107142855  13.644531250000028 35.10602678571427  C 13.662760416666687 35.25669642857145  13.708333333333371 35.52873883928567  13.78125 35.92215401785718  C 13.854166666666629 36.315569196428605  13.908854166666687 36.61272321428573  13.9453125 36.81361607142855  C 13.963541666666657 36.96428571428573  13.904296875 37.08984375  13.767578125000028 37.19029017857145  C 13.630859374999972 37.29073660714282  13.489583333333313 37.30747767857142  13.343749999999972 37.24051339285718  C 10.645833333333343 36.26953125000003  8.266927083333343 34.85072544642858  6.207031249999972 32.98409598214282  C 4.147135416666686 31.117466517857153  2.565755208333343 28.9076450892857  1.4628906250000284 26.354631696428548  C 0.3600260416666287 23.8016183035714  -0.11848958333331439 21.127232142857125  0.02734375000002842 18.331473214285726  C 0.15494791666662877 15.937499999999973  0.7565104166666571 13.648158482142824  1.8320312500000284 11.463448660714274  C 2.9075520833333144 9.278738839285726  4.315755208333371 7.37862723214285  6.056640625000028 5.763113839285725  C 7.797526041666686 4.147600446428601  9.848307291666686 2.8292410714286014  12.208984375000028 1.8080357142857253  C 14.569661458333371 0.7868303571428497  17.05338541666663 0.20089285714282368  19.66015624999997 0.050223214285725445  C 22.649739583333375 -0.11718749999997397  25.525390624999975 0.2720424107143006  28.287109375000025 1.2179129464285492  C 31.048828125 2.163783482142876  33.427734375 3.5072544642856993  35.42382812500003 5.248325892857176  C 37.41992187499997 6.989397321428575  39.01497395833337 9.086216517857125  40.20898437499997 11.538783482142824  Z M 25.388671875 14.501953125  C 26.582682291666686 15.598493303571423  27.179687500000025 16.925223214285726  27.179687500000025 18.482142857142826  C 27.179687500000025 20.0390625  26.582682291666686 21.365792410714302  25.388671875 22.462332589285726  C 24.194661458333314 23.558872767857153  22.750000000000025 24.107142857142822  21.054687499999975 24.107142857142822  C 19.359375 24.107142857142822  17.91471354166663 23.558872767857153  16.72070312500003 22.462332589285726  C 15.526692708333343 21.365792410714302  14.9296875 20.0390625  14.9296875 18.482142857142826  C 14.9296875 16.925223214285726  15.526692708333343 15.598493303571423  16.72070312500003 14.501953125  C 17.758007645940353 13.549326524136392  18.98448807348555 13.010500282989327  20.400144407635707 12.88547440155873  C 20.61400802184471 12.866586705281511  20.8321890526328 12.857142857142824  21.054687499999975 12.857142857142824  C 22.750000000000025 12.857142857142824  24.194661458333314 13.405412946428577  25.388671875 14.501953125  Z M 33.07226562499997 12.66880580357145  C 34.39388020833334 14.6861049107143  35.05468750000003 16.8917410714286  35.05468750000003 19.285714285714274  C 35.05468750000003 21.32812500000003  34.56705729166663 23.24079241071427  33.591796875 25.023716517857178  C 32.61653645833337 26.806640625  31.281250000000025 28.2924107142857  29.585937499999975 29.48102678571427  C 29.440104166666625 29.58147321428573  29.294270833333375 29.59821428571425  29.148437500000025 29.53125  C 29.002604166666686 29.464285714285676  28.911458333333314 29.3470982142857  28.875 29.1796875  C 28.765624999999975 28.3091517857143  28.501302083333314 27.53906249999997  28.082031250000025 26.869419642857178  C 27.954427083333343 26.7020089285714  27.981770833333375 26.5345982142857  28.164062500000025 26.3671875  C 29.221354166666657 25.463169642857178  30.050781250000025 24.400111607142875  30.652343749999975 23.178013392857178  C 31.25390625 21.9559151785714  31.554687499999975 20.65848214285715  31.554687499999975 19.285714285714274  C 31.554687499999975 17.427455357142826  31.021484374999975 15.71986607142855  29.955078124999975 14.16294642857145  C 28.888671874999975 12.606026785714274  27.453124999999975 11.42159598214285  25.648437499999975 10.609654017857176  C 23.843749999999975 9.797712053571425  21.911458333333375 9.4921875  19.8515625 9.693080357142824  C 17.427083333333314 9.94419642857145  15.33984375 10.8900669642857  13.589843749999972 12.530691964285726  C 11.839843750000028 14.171316964285753  10.846354166666657 16.10491071428575  10.609375000000028 18.331473214285726  C 10.427083333333371 19.871651785714302  10.641276041666657 21.344866071428548  11.251953124999972 22.751116071428548  C 11.862630208333371 24.157366071428548  12.760416666666687 25.36272321428573  13.9453125 26.3671875  C 14.127604166666657 26.5345982142857  14.154947916666687 26.7020089285714  14.02734375 26.869419642857178  C 13.589843749999972 27.555803571428577  13.325520833333313 28.334263392857125  13.234375000000028 29.204799107142822  C 13.197916666666629 29.35546875  13.106770833333343 29.464285714285676  12.9609375 29.53125  C 12.815104166666657 29.59821428571425  12.669270833333313 29.58147321428573  12.523437499999972 29.48102678571427  C 10.791666666666687 28.24218749999997  9.438151041666686 26.7103794642857  8.462890624999972 24.885602678571452  C 7.487630208333344 23.060825892857125  7.018229166666686 21.102120535714302  7.0546875 19.009486607142826  C 7.109374999999972 16.81640624999997  7.738281250000028 14.7739955357143  8.94140625 12.882254464285726  C 10.144531249999972 10.990513392857151  11.757812500000028 9.471261160714247  13.78125 8.324497767857176  C 15.804687499999972 7.177734375000027  18.001302083333314 6.554129464285725  20.37109375000003 6.453683035714275  C 22.996093750000025 6.3364955357143  25.438802083333375 6.838727678571399  27.699218749999975 7.960379464285725  C 29.959635416666657 9.082031249999973  31.750651041666686 10.651506696428601  33.07226562499997 12.66880580357145  Z " fill-rule="nonzero" fill="#333333" stroke="none" transform="matrix(1 0 0 1 284 1158 )" />
  </g>
</svg>