<?xml version="1.0" encoding="utf-8"?>
<svg version="1.1" xmlns:xlink="http://www.w3.org/1999/xlink" width="16px" height="12px" xmlns="http://www.w3.org/2000/svg">
  <g transform="matrix(1 0 0 1 -155 -765 )">
    <path d="M 15.107142857142858 4.610795454545455  C 15.446428571428573 4.389204545454545  15.74404761904762 4.142045454545455  16 3.869318181818181  L 16 10.636363636363637  C 16 11.011363636363637  15.86011904761905 11.332386363636365  15.580357142857142 11.599431818181818  C 15.30059523809524 11.866477272727272  14.964285714285717 12  14.571428571428571 12  L 1.4285714285714286 12  C 1.0357142857142858 12  0.699404761904762 11.866477272727272  0.4196428571428572 11.599431818181818  C 0.13988095238095244 11.332386363636365  0 11.011363636363637  0 10.636363636363637  L 0 3.869318181818181  C 0.261904761904762 4.147727272727272  0.5625000000000001 4.3948863636363615  0.9017857142857143 4.610795454545455  C 3.0565476190476195 6.0085227272727275  4.535714285714286 6.988636363636363  5.339285714285714 7.551136363636363  C 5.678571428571429 7.7897727272727275  5.953869047619048 7.975852272727272  6.165178571428571 8.109375  C 6.376488095238096 8.242897727272727  6.657738095238096 8.379261363636363  7.008928571428571 8.51846590909091  C 7.360119047619048 8.657670454545453  7.6875 8.727272727272727  7.991071428571429 8.727272727272727  L 8 8.727272727272727  L 8.008928571428571 8.727272727272727  C 8.312500000000002 8.727272727272727  8.639880952380953 8.657670454545453  8.991071428571429 8.51846590909091  C 9.342261904761907 8.379261363636363  9.623511904761907 8.242897727272727  9.834821428571429 8.109375  C 10.046130952380953 7.975852272727272  10.321428571428571 7.7897727272727275  10.660714285714286 7.551136363636363  C 11.67261904761905 6.8522727272727275  13.154761904761907 5.872159090909092  15.107142857142858 4.610795454545455  Z M 15.575892857142858 0.4005681818181812  C 15.858630952380953 0.6676136363636354  16 0.9886363636363638  16 1.3636363636363638  C 16 1.8124999999999982  15.854166666666668 2.2414772727272725  15.5625 2.650568181818181  C 15.270833333333334 3.0596590909090913  14.907738095238097 3.4090909090909087  14.473214285714286 3.6988636363636362  C 12.23511904761905 5.181818181818182  10.842261904761907 6.105113636363637  10.294642857142858 6.46875  C 10.23511904761905 6.508522727272727  10.108630952380953 6.595170454545454  9.915178571428571 6.7286931818181825  C 9.721726190476192 6.862215909090908  9.561011904761907 6.970170454545454  9.433035714285714 7.0525568181818175  C 9.305059523809524 7.134943181818181  9.15029761904762 7.2272727272727275  8.96875 7.329545454545455  C 8.787202380952381 7.4318181818181825  8.616071428571429 7.5085227272727275  8.455357142857142 7.55965909090909  C 8.294642857142858 7.610795454545455  8.145833333333334 7.636363636363637  8.008928571428571 7.636363636363637  L 8 7.636363636363637  L 7.991071428571429 7.636363636363637  C 7.854166666666667 7.636363636363637  7.705357142857143 7.610795454545455  7.544642857142857 7.55965909090909  C 7.383928571428571 7.5085227272727275  7.2127976190476195 7.4318181818181825  7.03125 7.329545454545455  C 6.849702380952381 7.2272727272727275  6.694940476190476 7.134943181818181  6.566964285714286 7.0525568181818175  C 6.438988095238096 6.970170454545454  6.27827380952381 6.862215909090908  6.084821428571429 6.7286931818181825  C 5.891369047619048 6.595170454545454  5.764880952380953 6.508522727272727  5.705357142857143 6.46875  C 5.163690476190476 6.105113636363637  4.383928571428571 5.5866477272727275  3.3660714285714284 4.9133522727272725  C 2.3482142857142856 4.2400568181818175  1.7380952380952384 3.835227272727271  1.5357142857142858 3.6988636363636362  C 1.1666666666666667 3.460227272727271  0.8184523809523812 3.1321022727272725  0.49107142857142866 2.7144886363636362  C 0.16369047619047625 2.296875  0 1.9090909090909087  0 1.5511363636363638  C 0 1.107954545454545  0.12351190476190481 0.738636363636362  0.37053571428571436 0.4431818181818188  C 0.617559523809524 0.1477272727272716  0.9702380952380955 0  1.4285714285714286 0  L 14.571428571428571 0  C 14.958333333333334 0  15.293154761904763 0.13352272727272574  15.575892857142858 0.4005681818181812  Z " fill-rule="nonzero" fill="#900c3f" stroke="none" transform="matrix(1 0 0 1 155 765 )" />
  </g>
</svg>