<?xml version="1.0" encoding="utf-8"?>
<svg version="1.1" xmlns:xlink="http://www.w3.org/1999/xlink" width="9px" height="9px" xmlns="http://www.w3.org/2000/svg">
  <g transform="matrix(1 0 0 1 -83 -294 )">
    <path d="M 6.916783216783218 4.5  L 8.590909090909092 5.402343750000001  C 8.783916083916084 5.50390625  8.908741258741259 5.655273437499999  8.965384615384615 5.856445312499999  C 9.022027972027972 6.0576171875  8.995804195804197 6.248046875  8.886713286713286 6.427734374999999  L 8.483916083916084 7.072265625  C 8.374825174825176 7.251953125000001  8.212237762237763 7.3681640625  7.996153846153845 7.4208984375  C 7.7800699300699305 7.4736328125  7.575524475524476 7.44921875  7.382517482517483 7.34765625  L 5.708391608391609 6.451171875  L 5.708391608391609 8.25  C 5.708391608391609 8.453125  5.628671328671329 8.62890625  5.4692307692307685 8.77734375  C 5.3097902097902105 8.92578125  5.120979020979021 9  4.902797202797203 9  L 4.097202797202797 9  C 3.8790209790209795 9  3.6902097902097903 8.92578125  3.5307692307692307 8.77734375  C 3.371328671328672 8.62890625  3.291608391608391 8.453125  3.291608391608391 8.25  L 3.291608391608391 6.451171875  L 1.6174825174825174 7.34765625  C 1.4244755244755247 7.44921875  1.2199300699300701 7.4736328125  1.0038461538461538 7.4208984375  C 0.787762237762238 7.3681640625  0.6251748251748255 7.251953125000001  0.5160839160839161 7.072265625  L 0.11328671328671329 6.427734374999999  C 0.004195804195804225 6.248046875  -0.02202797202797203 6.0576171875  0.03461538461538462 5.856445312499999  C 0.09125874125874125 5.655273437499999  0.21608391608391614 5.50390625  0.4090909090909091 5.402343750000001  L 2.083216783216783 4.5  L 0.4090909090909091 3.5976562500000004  C 0.21608391608391614 3.4960937499999996  0.09125874125874125 3.3447265625  0.03461538461538462 3.1435546874999996  C -0.02202797202797203 2.9423828124999996  0.004195804195804225 2.7519531249999987  0.11328671328671329 2.5722656249999996  L 0.5160839160839161 1.9277343750000004  C 0.6251748251748255 1.7480468749999991  0.787762237762238 1.6318359374999996  1.0038461538461538 1.5791015624999996  C 1.2199300699300701 1.5263671874999996  1.4244755244755247 1.5507812499999991  1.6174825174825174 1.65234375  L 3.291608391608391 2.548828125  L 3.291608391608391 0.7500000000000003  C 3.291608391608391 0.5468749999999996  3.371328671328672 0.37109374999999956  3.5307692307692307 0.22265625000000033  C 3.6902097902097903 0.07421874999999911  3.8790209790209795 0  4.097202797202797 0  L 4.902797202797203 0  C 5.120979020979021 0  5.3097902097902105 0.07421874999999911  5.4692307692307685 0.22265625000000033  C 5.628671328671329 0.37109374999999956  5.708391608391609 0.5468749999999996  5.708391608391609 0.7500000000000003  L 5.708391608391609 2.548828125  L 7.382517482517483 1.65234375  C 7.575524475524476 1.5507812499999991  7.7800699300699305 1.5263671874999996  7.996153846153845 1.5791015624999996  C 8.212237762237763 1.6318359374999996  8.374825174825176 1.7480468749999991  8.483916083916084 1.9277343750000004  L 8.886713286713286 2.5722656249999996  C 8.995804195804197 2.7519531249999987  9.022027972027972 2.9423828124999996  8.965384615384615 3.1435546874999996  C 8.908741258741259 3.3447265625  8.783916083916084 3.4960937499999996  8.590909090909092 3.5976562500000004  L 6.916783216783218 4.5  Z " fill-rule="nonzero" fill="#ff0909" stroke="none" transform="matrix(1 0 0 1 83 294 )" />
  </g>
</svg>