<?xml version="1.0" encoding="utf-8"?>
<svg version="1.1" xmlns:xlink="http://www.w3.org/1999/xlink" width="46px" height="35px" xmlns="http://www.w3.org/2000/svg">
  <g transform="matrix(1 0 0 1 -269 -1676 )">
    <path d="M 31.6923828125 0  C 35.5556640625 0  39.164388020833336 1.0590898260662356  42.5185546875 3.1772694781987147  L 46 35  C 44.03841145833334 35  42.11425781250001 34.52466047176554  40.2275390625 33.57398141529664  C 37.232747395833336 32.056230640934  34.290364583333336 31.29735525375268  31.400390625 31.29735525375268  C 28.01627604166667 31.29735525375268  25.216145833333336 32.531570169168454  23 35  C 20.78385416666667 32.531570169168454  17.983723958333336 31.29735525375268  14.599609375 31.29735525375268  C 11.709635416666668 31.29735525375268  8.767252604166668 32.056230640934  5.7724609375 33.57398141529664  C 3.855794270833334 34.52466047176554  1.9690755208333337 35  0.1123046875 35  L 0 35  L 3.4814453125 3.1772694781987147  C 6.835611979166668 1.0590898260662356  10.4443359375 0  14.3076171875 0  C 17.79654947916667 0  20.69401041666667 0.8839647367167014  23 2.651894210150108  C 25.305989583333336 0.8839647367167014  28.203450520833336 0  31.6923828125 0  Z M 23 30.57183702644746  C 25.575520833333336 28.770550393137956  28.37565104166667 27.8699070764832  31.400390625 27.8699070764832  C 33.33203125 27.8699070764832  35.06901041666667 28.10757684060043  36.611328125 28.582916368834884  C 38.153645833333336 29.058255897069333  40.10026041666667 29.837979509173223  42.451171875 30.922087205146532  L 39.666015625 5.378842030021442  C 37.10546875 4.077912794853468  34.35026041666667 3.427448177269479  31.400390625 3.427448177269479  C 28.046223958333336 3.427448177269479  25.24609375 4.603288062902071  23 6.954967834167263  C 20.75390625 4.603288062902071  17.953776041666668 3.427448177269479  14.599609375 3.427448177269479  C 11.649739583333336 3.427448177269479  8.894531250000002 4.077912794853468  6.333984375 5.378842030021442  L 3.548828125 30.922087205146532  C 5.12109375 30.20490826781034  6.360188802083334 29.662854419823688  7.26611328125 29.295925661186562  C 8.172037760416666 28.92899690254944  9.283854166666666 28.599594948772936  10.6015625 28.30771979985704  C 11.919270833333336 28.015844650941148  13.251953125 27.8699070764832  14.599609375 27.8699070764832  C 17.624348958333336 27.8699070764832  20.42447916666667 28.770550393137956  23 30.57183702644746  Z M 31.400390625 26.994281629735525  L 32.298828125 27.019299499642603  L 31.0634765625 4.328091493924233  C 27.90397135416667 4.394805813676433  25.216145833333336 5.687395758875385  23 8.205861329521085  C 20.723958333333336 5.620681439123181  17.923828125 4.328091493924233  14.599609375 4.328091493924233  C 11.964192708333336 4.328091493924233  9.448567708333336 4.878484631879914  7.052734375 5.979270907791279  L 4.4921875 29.52108649035025  C 6.348958333333334 28.670478913509648  8.059733072916668 28.036692875863714  9.62451171875 27.61972837741244  C 11.189290364583334 27.20276387896116  12.84765625 26.994281629735525  14.599609375 26.994281629735525  C 17.729166666666668 26.994281629735525  20.529296875 27.844889206576124  23 29.546104360257328  C 25.575520833333336 27.761496306885874  28.37565104166667 26.910888730045272  31.400390625 26.994281629735525  Z " fill-rule="nonzero" fill="#900c3f" stroke="none" transform="matrix(1 0 0 1 269 1676 )" />
  </g>
</svg>