<?xml version="1.0" encoding="utf-8"?>
<svg version="1.1" xmlns:xlink="http://www.w3.org/1999/xlink" width="50px" height="39px" xmlns="http://www.w3.org/2000/svg">
  <g transform="matrix(1 0 0 1 -546 -2698 )">
    <path d="M 47.20982142857143 14.985085227272728  C 48.27008928571429 14.264914772727272  49.20014880952381 13.461647727272728  50 12.575284090909088  L 50 34.56818181818182  C 50 35.78693181818182  49.562872023809526 36.83025568181819  48.68861607142857 37.698153409090914  C 47.81436011904763 38.56605113636363  46.76339285714287 39  45.535714285714285 39  L 4.464285714285714 39  C 3.2366071428571432 39  2.1856398809523814 38.56605113636363  1.3113839285714288 37.698153409090914  C 0.4371279761904764 36.83025568181819  0 35.78693181818182  0 34.56818181818182  L 0 12.575284090909088  C 0.8184523809523812 13.480113636363635  1.7578125000000004 14.283380681818176  2.818080357142857 14.985085227272728  C 9.55171130952381 19.527698863636363  14.174107142857142 22.713068181818183  16.685267857142858 24.541193181818183  C 17.745535714285715 25.316761363636363  18.605840773809526 25.921519886363633  19.266183035714285 26.35546875  C 19.92652529761905 26.78941761363636  20.80543154761905 27.23259943181818  21.902901785714285 27.685014204545457  C 23.000372023809526 28.137428977272727  24.0234375 28.363636363636363  24.972098214285715 28.363636363636363  L 25 28.363636363636363  L 25.027901785714285 28.363636363636363  C 25.976562500000007 28.363636363636363  26.999627976190478 28.137428977272727  28.097098214285715 27.685014204545457  C 29.19456845238096 27.23259943181818  30.07347470238096 26.78941761363636  30.733816964285715 26.35546875  C 31.394159226190478 25.921519886363633  32.254464285714285 25.316761363636363  33.314732142857146 24.541193181818183  C 36.476934523809526 22.269886363636363  41.108630952380956 19.084517045454547  47.20982142857143 14.985085227272728  Z M 48.67466517857143 1.301846590909089  C 49.558221726190474 2.169744318181815  50 3.213068181818182  50 4.4318181818181825  C 50 5.890624999999995  49.544270833333336 7.284801136363636  48.6328125 8.614346590909088  C 47.72135416666667 9.943892045454547  46.58668154761905 11.079545454545453  45.228794642857146 12.021306818181818  C 38.234747023809526 16.84090909090909  33.882068452380956 19.84161931818182  32.17075892857143 21.0234375  C 31.98474702380953 21.152698863636363  31.589471726190478 21.434303977272727  30.984933035714285 21.868252840909093  C 30.3803943452381 22.302201704545453  29.87816220238096 22.653053977272727  29.478236607142854 22.920809659090907  C 29.078311011904763 23.188565340909086  28.594680059523814 23.488636363636363  28.02734375 23.82102272727273  C 27.460007440476193 24.153409090909093  26.925223214285715 24.402698863636363  26.42299107142857 24.568892045454543  C 25.92075892857143 24.73508522727273  25.455729166666668 24.818181818181817  25.027901785714285 24.818181818181817  L 25 24.818181818181817  L 24.972098214285715 24.818181818181817  C 24.544270833333336 24.818181818181817  24.079241071428573 24.73508522727273  23.577008928571427 24.568892045454543  C 23.074776785714285 24.402698863636363  22.53999255952381 24.153409090909093  21.97265625 23.82102272727273  C 21.405319940476193 23.488636363636363  20.921688988095237 23.188565340909086  20.521763392857142 22.920809659090907  C 20.12183779761905 22.653053977272727  19.619605654761905 22.302201704545453  19.015066964285715 21.868252840909093  C 18.410528273809526 21.434303977272727  18.015252976190478 21.152698863636363  17.829241071428573 21.0234375  C 16.136532738095237 19.84161931818182  13.699776785714285 18.156605113636363  10.518973214285714 15.968394886363635  C 7.338169642857142 13.780184659090907  5.4315476190476195 12.464488636363631  4.799107142857143 12.021306818181818  C 3.6458333333333335 11.245738636363631  2.557663690476191 10.179332386363635  1.5345982142857146 8.822088068181818  C 0.5115327380952382 7.46484375  0 6.204545454545453  0 5.0411931818181825  C 0 3.600852272727271  0.38597470238095255 2.4005681818181763  1.1579241071428574 1.440340909090911  C 1.9298735119047623 0.4801136363636327  3.0319940476190483 0  4.464285714285714 0  L 45.535714285714285 0  C 46.74479166666667 0  47.79110863095239 0.43394886363635865  48.67466517857143 1.301846590909089  Z " fill-rule="nonzero" fill="#900c3f" stroke="none" transform="matrix(1 0 0 1 546 2698 )" />
  </g>
</svg>