<?xml version="1.0" encoding="utf-8"?>
<svg version="1.1" xmlns:xlink="http://www.w3.org/1999/xlink" width="36px" height="33px" xmlns="http://www.w3.org/2000/svg">
  <g transform="matrix(1 0 0 1 -53 -1804 )">
    <path d="M 2.769230769230769 25.33928571428571  L 2.769230769230769 30.642857142857142  L 9 30.642857142857142  L 9 25.33928571428571  L 2.769230769230769 25.33928571428571  Z M 10.384615384615383 25.33928571428571  L 10.384615384615383 30.642857142857142  L 17.307692307692307 30.642857142857142  L 17.307692307692307 25.33928571428571  L 10.384615384615383 25.33928571428571  Z M 2.769230769230769 18.267857142857142  L 2.769230769230769 24.16071428571429  L 9 24.16071428571429  L 9 18.267857142857142  L 2.769230769230769 18.267857142857142  Z M 10.384615384615383 18.267857142857142  L 10.384615384615383 24.16071428571429  L 17.307692307692307 24.16071428571429  L 17.307692307692307 18.267857142857142  L 10.384615384615383 18.267857142857142  Z M 2.769230769230769 11.785714285714285  L 2.769230769230769 17.08928571428571  L 9 17.08928571428571  L 9 11.785714285714285  L 2.769230769230769 11.785714285714285  Z M 18.692307692307693 25.33928571428571  L 18.692307692307693 30.642857142857142  L 25.615384615384617 30.642857142857142  L 25.615384615384617 25.33928571428571  L 18.692307692307693 25.33928571428571  Z M 10.384615384615383 11.785714285714285  L 10.384615384615383 17.08928571428571  L 17.307692307692307 17.08928571428571  L 17.307692307692307 11.785714285714285  L 10.384615384615383 11.785714285714285  Z M 27 25.33928571428571  L 27 30.642857142857142  L 33.23076923076923 30.642857142857142  L 33.23076923076923 25.33928571428571  L 27 25.33928571428571  Z M 18.692307692307693 18.267857142857142  L 18.692307692307693 24.16071428571429  L 25.615384615384617 24.16071428571429  L 25.615384615384617 18.267857142857142  L 18.692307692307693 18.267857142857142  Z M 10.87139423076923 8.664341517857144  C 11.008413461538462 8.547712053571427  11.076923076923077 8.409598214285712  11.076923076923077 8.25  L 11.076923076923077 2.946428571428572  C 11.076923076923077 2.786830357142857  11.008413461538462 2.6487165178571415  10.87139423076923 2.532087053571428  C 10.734375000000002 2.415457589285711  10.572115384615385 2.357142857142856  10.384615384615383 2.357142857142856  L 9 2.357142857142856  C 8.8125 2.357142857142856  8.650240384615385 2.415457589285711  8.513221153846153 2.532087053571428  C 8.376201923076922 2.6487165178571415  8.307692307692308 2.786830357142857  8.307692307692308 2.946428571428572  L 8.307692307692308 8.25  C 8.307692307692308 8.409598214285712  8.376201923076922 8.547712053571427  8.513221153846153 8.664341517857144  C 8.650240384615385 8.780970982142858  8.8125 8.839285714285715  9 8.839285714285715  L 10.384615384615383 8.839285714285715  C 10.572115384615385 8.839285714285715  10.734375000000002 8.780970982142858  10.87139423076923 8.664341517857144  Z M 27 18.267857142857142  L 27 24.16071428571429  L 33.23076923076923 24.16071428571429  L 33.23076923076923 18.267857142857142  L 27 18.267857142857142  Z M 18.692307692307693 11.785714285714285  L 18.692307692307693 17.08928571428571  L 25.615384615384617 17.08928571428571  L 25.615384615384617 11.785714285714285  L 18.692307692307693 11.785714285714285  Z M 27 11.785714285714285  L 27 17.08928571428571  L 33.23076923076923 17.08928571428571  L 33.23076923076923 11.785714285714285  L 27 11.785714285714285  Z M 27.486778846153847 8.664341517857144  C 27.62379807692308 8.547712053571427  27.692307692307693 8.409598214285712  27.692307692307693 8.25  L 27.692307692307693 2.946428571428572  C 27.692307692307693 2.786830357142857  27.62379807692308 2.6487165178571415  27.486778846153847 2.532087053571428  C 27.349759615384617 2.415457589285711  27.1875 2.357142857142856  27 2.357142857142856  L 25.615384615384617 2.357142857142856  C 25.42788461538462 2.357142857142856  25.265625000000004 2.415457589285711  25.128605769230766 2.532087053571428  C 24.99158653846154 2.6487165178571415  24.923076923076923 2.786830357142857  24.923076923076923 2.946428571428572  L 24.923076923076923 8.25  C 24.923076923076923 8.409598214285712  24.99158653846154 8.547712053571427  25.128605769230766 8.664341517857144  C 25.265625000000004 8.780970982142858  25.42788461538462 8.839285714285715  25.615384615384617 8.839285714285715  L 27 8.839285714285715  C 27.1875 8.839285714285715  27.349759615384617 8.780970982142858  27.486778846153847 8.664341517857144  Z M 35.17788461538461 5.4140625  C 35.72596153846154 5.880580357142858  36 6.4330357142857135  36 7.071428571428572  L 36 30.642857142857142  C 36 31.281250000000004  35.72596153846154 31.833705357142858  35.17788461538461 32.300223214285715  C 34.62980769230769 32.76674107142857  33.98076923076923 33  33.23076923076923 33  L 2.769230769230769 33  C 2.0192307692307696 33  1.370192307692308 32.76674107142857  0.8221153846153846 32.300223214285715  C 0.2740384615384615 31.833705357142858  0 31.281250000000004  0 30.642857142857142  L 0 7.071428571428572  C 0 6.4330357142857135  0.2740384615384615 5.880580357142858  0.8221153846153846 5.4140625  C 1.370192307692308 4.947544642857139  2.0192307692307696 4.714285714285716  2.769230769230769 4.714285714285716  L 5.538461538461538 4.714285714285716  L 5.538461538461538 2.946428571428572  C 5.538461538461538 2.1361607142857157  5.877403846153847 1.4425223214285694  6.555288461538462 0.8655133928571439  C 7.233173076923078 0.28850446428571463  8.048076923076923 0  9 0  L 10.384615384615383 0  C 11.336538461538462 0  12.15144230769231 0.28850446428571463  12.829326923076923 0.8655133928571439  C 13.50721153846154 1.4425223214285694  13.846153846153847 2.1361607142857157  13.846153846153847 2.946428571428572  L 13.846153846153847 4.714285714285716  L 22.153846153846153 4.714285714285716  L 22.153846153846153 2.946428571428572  C 22.153846153846153 2.1361607142857157  22.492788461538463 1.4425223214285694  23.170673076923077 0.8655133928571439  C 23.848557692307697 0.28850446428571463  24.66346153846154 0  25.615384615384617 0  L 27 0  C 27.951923076923077 0  28.766826923076923 0.28850446428571463  29.44471153846154 0.8655133928571439  C 30.122596153846157 1.4425223214285694  30.46153846153846 2.1361607142857157  30.46153846153846 2.946428571428572  L 30.46153846153846 4.714285714285716  L 33.23076923076923 4.714285714285716  C 33.98076923076923 4.714285714285716  34.62980769230769 4.947544642857139  35.17788461538461 5.4140625  Z " fill-rule="nonzero" fill="#900c3f" stroke="none" transform="matrix(1 0 0 1 53 1804 )" />
  </g>
</svg>