<?xml version="1.0" encoding="utf-8"?>
<svg version="1.1" xmlns:xlink="http://www.w3.org/1999/xlink" width="27px" height="49px" xmlns="http://www.w3.org/2000/svg">
  <g transform="matrix(1 0 0 1 -332 -1107 )">
    <path d="M 15.9521484375 33.7421875  C 16.5673828125 34.65364583333333  16.875 35.65625  16.875 36.75  C 16.875 38.20833333333333  16.3828125 39.44791666666667  15.3984375 40.46875  C 14.414062500000002 41.489583333333336  13.218750000000002 42  11.8125 42  C 10.40625 42  9.210937500000002 41.489583333333336  8.2265625 40.46875  C 7.242187500000001 39.44791666666667  6.75 38.20833333333333  6.75 36.75  C 6.75 35.65625  7.057617187500001 34.65364583333333  7.6728515625 33.7421875  C 8.288085937500002 32.830729166666664  9.105468750000002 32.18359375  10.125 31.80078125  L 10.125 14  L 13 14  L 13 31.80078125  C 14.519531250000002 32.18359375  15.336914062500002 32.830729166666664  15.9521484375 33.7421875  Z M 17.78466796875 42.943359375  C 19.428222656249996 41.23893229166667  20.25 39.17447916666667  20.25 36.75  C 20.25 35.34635416666667  19.951171875 34.033854166666664  19.353515625 32.8125  C 18.755859375 31.591145833333332  17.9296875 30.5703125  16.875 29.750000000000004  L 16.875 8.750000000000002  C 16.875 7.2916666666666625  16.3828125 6.052083333333334  15.3984375 5.031249999999998  C 14.414062500000002 4.010416666666663  13.218750000000002 3.4999999999999982  11.8125 3.4999999999999982  C 10.40625 3.4999999999999982  9.210937500000002 4.010416666666663  8.2265625 5.031249999999998  C 7.242187500000001 6.052083333333334  6.75 7.2916666666666625  7 8.750000000000002  L 7 29.750000000000004  C 5.6953125 30.5703125  4.869140625000001 31.591145833333332  4.271484375 32.8125  C 3.6738281250000004 34.033854166666664  3.375 35.34635416666667  3.375 36.75  C 3.375 39.17447916666667  4.196777343750001 41.23893229166667  5.84033203125 42.943359375  C 7.483886718750001 44.647786458333336  9.474609375000002 45.5  11.8125 45.5  C 14.150390625000002 45.5  16.141113281250004 44.647786458333336  17.78466796875 42.943359375  Z M 20 28.19140625  C 22.5 30.579427083333332  23.625 33.43229166666666  23.625 36.75  C 23.625 40.12239583333333  22.469238281250004 43.00716145833333  20.15771484375 45.404296875  C 17.84619140625 47.801432291666664  15.064453125000002 49  11.8125 49  C 8.560546874999998 49  5.778808593750001 47.801432291666664  3.46728515625 45.404296875  C 1.1557617187499998 43.00716145833333  0 40.12239583333333  0 36.75  C 0 33.43229166666666  1.125 30.579427083333332  3.375 28.19140625  L 3.375 8.750000000000002  C 3.375 6.325520833333331  4.196777343750001 4.261067708333333  5.84033203125 2.556640625000001  C 7.483886718750001 0.8522135416666687  9.474609375000002 0  11.8125 0  C 14.150390625000002 0  16.141113281250004 0.8522135416666687  17.78466796875 2.556640625000001  C 19.428222656249996 4.261067708333333  20.25 6.325520833333331  20 8.750000000000002  L 20 28.19140625  Z M 21.9375 21  L 27 21  L 27 24.5  L 21.9375 24.5  L 21.9375 21  Z M 21.9375 14  L 27 14  L 27 17.499999999999996  L 21.9375 17.499999999999996  L 21.9375 14  Z M 21.9375 7.000000000000003  L 27 7.000000000000003  L 27 10.5  L 21.9375 10.5  L 21.9375 7.000000000000003  Z " fill-rule="nonzero" fill="#900c3f" stroke="none" transform="matrix(1 0 0 1 332 1107 )" />
  </g>
</svg>