<?xml version="1.0" encoding="utf-8"?>
<svg version="1.1" xmlns:xlink="http://www.w3.org/1999/xlink" width="37px" height="28px" xmlns="http://www.w3.org/2000/svg">
  <g transform="matrix(1 0 0 1 -295 -153 )">
    <path d="M 17.623779296875 11.94921875  C 16.268798828125 13.31640625  14.6337890625 14  12.71875 14  C 10.8037109375 14  9.168701171875 13.31640625  7.813720703125 11.94921875  C 6.458740234375 10.58203125  5.78125 8.932291666666666  5.78125 7  C 5.78125 5.067708333333334  6.458740234375 3.41796875  7.813720703125 2.05078125  C 9.168701171875 0.68359375  10.8037109375 0  12.71875 0  C 14.6337890625 0  16.268798828125 0.68359375  17.623779296875 2.05078125  C 18.978759765625 3.41796875  19.65625 5.067708333333334  19.65625 7  C 19.65625 8.932291666666666  18.978759765625 10.58203125  17.623779296875 11.94921875  Z M 30.0625 9.916666666666666  L 30.0625 16.333333333333332  L 36.421875 16.333333333333332  C 36.578450520833336 16.333333333333332  36.713948567708336 16.391059027777775  36.828369140625 16.506510416666668  C 36.94278971354167 16.621961805555557  37 16.758680555555557  37 16.916666666666668  L 37 20.416666666666668  C 37 20.574652777777775  36.94278971354167 20.711371527777775  36.828369140625 20.826822916666668  C 36.713948567708336 20.942274305555557  36.578450520833336 21  36.421875 21  L 30.0625 21  L 30.0625 27.416666666666664  C 30.0625 27.57465277777778  30.005289713541668 27.71137152777778  29.890869140625 27.826822916666664  C 29.776448567708336 27.942274305555554  29.640950520833336 28  29.484375 28  L 26.015625 28  C 25.859049479166668 28  25.723551432291668 27.942274305555554  25.609130859375 27.826822916666664  C 25.494710286458336 27.71137152777778  25.4375 27.57465277777778  25.4375 27.416666666666664  L 25.4375 21  L 19.078125 21  C 18.921549479166668 21  18.786051432291668 20.942274305555557  18.671630859375 20.826822916666668  C 18.557210286458336 20.711371527777775  18.5 20.574652777777775  18.5 20.416666666666668  L 18.5 16.916666666666668  C 18.5 16.758680555555557  18.557210286458336 16.621961805555557  18.671630859375 16.506510416666668  C 18.786051432291668 16.391059027777775  18.921549479166668 16.333333333333332  19.078125 16.333333333333332  L 25.4375 16.333333333333332  L 25.4375 9.916666666666666  C 25.4375 9.758680555555554  25.494710286458336 9.621961805555554  25.609130859375 9.506510416666666  C 25.723551432291668 9.391059027777779  25.859049479166668 9.333333333333334  26.015625 9.333333333333334  L 29.484375 9.333333333333334  C 29.640950520833336 9.333333333333334  29.776448567708336 9.391059027777779  29.890869140625 9.506510416666666  C 30.005289713541668 9.621961805555554  30.0625 9.758680555555554  30.0625 9.916666666666666  Z M 16.765625 16.916666666666668  L 16.765625 20.416666666666668  C 16.765625 21.048611111111114  16.994466145833336 21.595486111111114  17.4521484375 22.057291666666664  C 17.909830729166668 22.51909722222222  18.451822916666668 22.75  19.078125 22.75  L 23.703125 22.75  L 23.703125 27.088541666666664  C 22.884114583333336 27.696180555555554  21.854329427083336 28  20.61376953125 28  L 4.82373046875 28  C 3.366373697916667 28  2.1980794270833335 27.580729166666664  1.31884765625 26.7421875  C 0.43961588541666663 25.903645833333336  0 24.749131944444446  0 23.278645833333336  C 0 22.634548611111114  0.021077473958333332 22.005642361111114  0.063232421875 21.391927083333336  C 0.10538736979166667 20.778211805555557  0.189697265625 20.115885416666668  0.316162109375 19.404947916666668  C 0.442626953125 18.694010416666668  0.6022135416666667 18.034722222222218  0.794921875 17.427083333333332  C 0.9876302083333334 16.819444444444443  1.24658203125 16.226996527777775  1.57177734375 15.649739583333332  C 1.8969726562500002 15.072482638888888  2.2703450520833335 14.580295138888888  2.69189453125 14.173177083333332  C 3.113444010416667 13.766059027777779  3.628336588541667 13.440972222222221  4.236572265625 13.197916666666666  C 4.844807942708334 12.954861111111109  5.516276041666667 12.833333333333334  6.2509765625 12.833333333333334  C 6.479817708333334 12.833333333333334  6.714680989583334 12.936631944444443  6.95556640625 13.143229166666666  C 7.907063802083334 13.884548611111109  8.837483723958334 14.440538194444443  9.746826171875 14.811197916666668  C 10.656168619791668 15.181857638888888  11.646809895833334 15.3671875  12.71875 15.3671875  C 13.790690104166668 15.3671875  14.781331380208334 15.181857638888888  15.690673828125 14.811197916666668  C 16.600016276041668 14.440538194444443  17.530436197916668 13.884548611111109  18.48193359375 13.143229166666666  C 18.722819010416668 12.936631944444443  18.957682291666668 12.833333333333334  19.1865234375 12.833333333333334  C 20.7763671875 12.833333333333334  22.083170572916668 13.416666666666666  23.10693359375 14.583333333333332  L 19.078125 14.583333333333332  C 18.451822916666668 14.583333333333332  17.909830729166668 14.814236111111112  17.4521484375 15.276041666666668  C 16.994466145833336 15.737847222222218  16.765625 16.284722222222218  16.765625 16.916666666666668  Z " fill-rule="nonzero" fill="#000000" stroke="none" transform="matrix(1 0 0 1 295 153 )" />
  </g>
</svg>