<?xml version="1.0" encoding="utf-8"?>
<svg version="1.1" xmlns:xlink="http://www.w3.org/1999/xlink" width="40px" height="29px" xmlns="http://www.w3.org/2000/svg">
  <g transform="matrix(1 0 0 1 -280 -157 )">
    <path d="M 19.136831780284453 12.3759765625  C 17.665522314860226 13.7919921875  15.89014222658166 14.5  13.810691515448749 14.5  C 11.731240804315842 14.5  9.955860716037273 13.7919921875  8.484551250613046 12.3759765625  C 7.013241785188819 10.9599609375  6.277587052476704 9.251302083333332  6.277587052476704 7.25  C 6.277587052476704 5.248697916666668  7.013241785188819 3.5400390625  8.484551250613046 2.1240234375  C 9.955860716037273 0.7080078125  11.731240804315842 0  13.810691515448749 0  C 15.89014222658166 0  17.665522314860226 0.7080078125  19.136831780284453 2.1240234375  C 20.60814124570868 3.5400390625  21.343795978420793 5.248697916666668  21.343795978420793 7.25  C 21.343795978420793 9.251302083333332  20.60814124570868 10.9599609375  19.136831780284453 12.3759765625  Z M 39.823442864149094 15.840494791666664  L 34.938695438940655 20.541666666666664  L 39.823442864149094 25.242838541666668  C 39.94114762138303 25.356119791666668  40 25.500868055555557  40 25.677083333333332  C 40 25.840711805555557  39.94114762138303 25.979166666666668  39.823442864149094 26.092447916666668  L 37.15546836684649 28.66015625  C 37.037763609612554 28.7734375  36.893902239659965 28.830078125  36.72388425698872 28.830078125  C 36.54078796795815 28.830078125  36.3903874448259 28.7734375  36.27268268759196 28.66015625  L 31.38793526238352 23.958984375  L 26.503187837175087 28.66015625  C 26.385483079941146 28.7734375  26.235082556808894 28.830078125  26.051986267778325 28.830078125  C 25.881968285107078 28.830078125  25.73810691515449 28.7734375  25.62040215792055 28.66015625  L 22.95242766061795 26.092447916666668  C 22.834722903384012 25.979166666666668  22.775870524767043 25.840711805555557  22.775870524767043 25.677083333333332  C 22.775870524767043 25.500868055555557  22.834722903384012 25.356119791666668  22.95242766061795 25.242838541666668  L 27.837175085826384 20.541666666666664  L 22.95242766061795 15.840494791666664  C 22.834722903384012 15.727213541666664  22.775870524767043 15.582465277777777  22.775870524767043 15.40625  C 22.775870524767043 15.242621527777777  22.834722903384012 15.104166666666664  22.95242766061795 14.990885416666664  L 25.62040215792055 12.423177083333332  C 25.73810691515449 12.309895833333332  25.881968285107078 12.253255208333332  26.051986267778325 12.253255208333332  C 26.235082556808894 12.253255208333332  26.385483079941146 12.309895833333332  26.503187837175087 12.423177083333332  L 31.38793526238352 17.124348958333336  L 36.27268268759196 12.423177083333332  C 36.3903874448259 12.309895833333332  36.54078796795815 12.253255208333332  36.72388425698872 12.253255208333332  C 36.893902239659965 12.253255208333332  37.037763609612554 12.309895833333332  37.15546836684649 12.423177083333332  L 39.823442864149094 14.990885416666664  C 39.94114762138303 15.104166666666664  40 15.242621527777777  40 15.40625  C 40 15.582465277777777  39.94114762138303 15.727213541666664  39.823442864149094 15.840494791666664  Z M 21.618440411966652 17.124348958333336  L 25.169200588523786 20.541666666666664  L 21.618440411966652 23.958984375  C 21.134543076671577 24.424696180555557  20.89259440902403 24.997395833333332  20.89259440902403 25.677083333333332  C 20.89259440902403 26.344184027777775  21.134543076671577 26.910590277777775  21.618440411966652 27.376302083333332  L 23.246689553702797 28.943359375  C 22.972045120156942 28.981119791666668  22.684322380251764 29  22.383521333987247 29  L 5.23786169691025 29  C 3.6553866274317475 29  2.3867909105770804 28.565755208333332  1.432074546346248 27.697265625  C 0.47735818211541603 26.828776041666668  0 25.633029513888893  0 24.110026041666668  C 0 23.442925347222225  0.022887036128821314 22.791558159722225  0.06866110838646396 22.155924479166668  C 0.1144351806441066 21.52029079861111  0.20598332515939183 20.834309895833336  0.34330554193231977 20.097981770833336  C 0.48062775870524765 19.361653645833336  0.6539153179663235 18.67881944444444  0.8631682197155468 18.049479166666664  C 1.0724211214647703 17.42013888888889  1.3536047081902893 16.806532118055554  1.7067189798921039 16.208658854166664  C 2.059833251593919 15.610785590277777  2.4652607487330394 15.101019965277777  2.9230014713094654 14.679361979166664  C 3.380742193885892 14.257703993055555  3.939839790747098 13.921006944444445  4.600294261893085 13.669270833333332  C 5.2607487330390725 13.41753472222222  5.989864312571522 13.291666666666668  6.787641000490437 13.291666666666668  C 7.036128821317639 13.291666666666668  7.291155795324506 13.398654513888888  7.552721922511036 13.612630208333332  C 9.566781101847312 15.148220486111112  11.652770966159881 15.916015625  13.810691515448749 15.916015625  C 15.968612064737616 15.916015625  18.05460192905019 15.148220486111112  20.068661108386465 13.612630208333332  C 20.330227235573 13.398654513888888  20.585254209579862 13.291666666666668  20.83374203040706 13.291666666666668  C 21.199934608468205 13.291666666666668  21.57266633970901 13.329427083333332  21.951937224129473 13.404947916666668  C 21.585744646068335 13.744791666666668  21.317639365702142 14.059461805555555  21.147621383030895 14.348958333333332  C 20.977603400359655 14.638454861111112  20.89259440902403 14.990885416666664  20.89259440902403 15.40625  C 20.89259440902403 16.0859375  21.134543076671577 16.658637152777775  21.618440411966652 17.124348958333336  Z " fill-rule="nonzero" fill="#900c3f" stroke="none" transform="matrix(1 0 0 1 280 157 )" />
  </g>
</svg>