<?xml version="1.0" encoding="utf-8"?>
<svg version="1.1" xmlns:xlink="http://www.w3.org/1999/xlink" width="37px" height="35px" xmlns="http://www.w3.org/2000/svg">
  <g transform="matrix(1 0 0 1 -119 -820 )">
    <path d="M 20.44084821428571 4.471256210078069  C 18.610119047619047 3.610125384433402  16.64174107142857 3.1795599716110723  14.535714285714285 3.1795599716110723  C 12.4296875 3.1795599716110723  10.461309523809524 3.610125384433402  8.630580357142858 4.471256210078069  C 6.799851190476191 5.332387035722732  5.344215029761905 6.49988171279867  4.263671875 7.973740241305889  C 3.1831287202380953 9.447598769813105  2.642857142857143 11.029098651525903  2.642857142857143 12.718239886444286  C 2.642857142857143 14.07617695765318  3.0076264880952386 15.384433404305652  3.737165178571429 16.643009226401706  C 4.4667038690476195 17.901585048497754  5.4921875 18.994558788739056  6.813616071428572 19.92193044712562  L 8.81640625 21.312987934705465  L 8.09375 23.39957416607523  C 8.561755952380954 23.06837000236574  8.988467261904763 22.745445942748994  9.373883928571429 22.43080198722498  L 10.282366071428571 21.660752306600425  L 11.376674107142856 21.90915542938254  C 12.450334821428571 22.140998343979184  13.503348214285715 22.2569198012775  14.535714285714285 22.2569198012775  C 16.64174107142857 22.2569198012775  18.610119047619047 21.826354388455172  20.44084821428571 20.965223562810504  C 22.271577380952383 20.10409273716584  23.727213541666668 18.936598060089896  24.80775669642857 17.46273953158268  C 25.88829985119048 15.988881003075464  26.42857142857143 14.407381121362668  26.42857142857143 12.718239886444286  C 26.42857142857143 11.029098651525903  25.88829985119048 9.447598769813105  24.80775669642857 7.973740241305889  C 23.727213541666668 6.49988171279867  22.271577380952383 5.332387035722732  20.44084821428571 4.471256210078069  Z M 7.236886160714286 1.701561391057489  C 9.473679315476192 0.567187130352495  11.906622023809526 0  14.535714285714285 0  C 17.16480654761905 0  19.597749255952383 0.567187130352495  21.83454241071429 1.701561391057489  C 24.071335565476193 2.835935651762475  25.83668154761905 4.380175065057958  27.130580357142858 6.334279630943932  C 28.424479166666668 8.288384196829899  29.07142857142857 10.416370948663353  29.07142857142857 12.718239886444286  C 29.07142857142857 15.020108824225217  28.424479166666668 17.14809557605867  27.130580357142858 19.102200141944643  C 25.83668154761905 21.05630470783061  24.071335565476193 22.60054412112609  21.83454241071429 23.734918381831086  C 19.597749255952383 24.86929264253607  17.16480654761905 25.436479772888575  14.535714285714285 25.436479772888575  C 13.351934523809526 25.436479772888575  12.140625 25.303998107404773  10.901785714285715 25.03903477643719  C 9.194940476190478 26.49633309675893  7.281622023809525 27.556186420629288  5.161830357142858 28.21859474804826  C 4.666294642857142 28.367636621717534  4.074404761904763 28.50011828720132  3.386160714285714 28.61603974449964  L 3.32421875 28.61603974449964  C 3.17280505952381 28.61603974449964  3.031715029761905 28.549798911757748  2.900948660714286 28.417317246273953  C 2.770182291666667 28.28483558079016  2.6910342261904763 28.110953394842678  2.663504464285714 27.89567068843151  C 2.6497395833333335 27.84599006387509  2.642857142857143 27.792169387272295  2.642857142857143 27.73420865862314  C 2.642857142857143 27.67624792997398  2.6462983630952386 27.622427253371185  2.653180803571429 27.57274662881476  C 2.660063244047619 27.52306600425834  2.673828125 27.473385379701917  2.694475446428571 27.423704755145494  L 2.74609375 27.299503193754436  C 2.74609375 27.299503193754436  2.770182291666667 27.253962621244384  2.818359375 27.16288147622427  C 2.8665364583333335 27.07180033120416  2.8940662202380953 27.030399810740484  2.900948660714286 27.038679914833217  C 2.9078311011904763 27.04696001892595  2.9388020833333335 27.00555949846227  2.993861607142857 26.914478353442156  C 3.0489211309523814 26.823397208422048  3.076450892857143 26.786136740004732  3.076450892857143 26.802696948190206  C 3.145275297619048 26.703335699077357  3.303571428571429 26.496333096758928  3.551339285714286 26.181689141234916  C 3.799107142857143 25.867045185710904  3.9780505952380953 25.622782114975163  4.088169642857142 25.448899929027682  C 4.198288690476191 25.275017743080202  4.353143601190476 25.034894724390817  4.552734375 24.728530872959546  C 4.752325148809525 24.422167021528267  4.924386160714286 24.103383013957888  5.068917410714286 23.772178850248405  C 5.213448660714286 23.440974686538915  5.354538690476191 23.076650106458484  5.4921875 22.679205110007096  C 3.7853422619047614 21.486870120652945  2.443266369047619 20.021291696238464  1.4659598214285714 18.28246983676366  C 0.4886532738095237 16.543647977288856  0 14.68890466051573  0 12.718239886444286  C 0 10.416370948663353  0.6469494047619048 8.288384196829899  1.9408482142857144 6.334279630943932  C 3.234747023809524 4.380175065057958  5.0000930059523805 2.835935651762475  7.236886160714286 1.701561391057489  Z M 35.53404017857143 24.654009936124908  C 34.55673363095239 26.38455169150698  33.21465773809524 27.84599006387509  31.5078125 29.03832505322924  C 31.645461309523807 29.435770049680624  31.78655133928571 29.800094629761062  31.93108258928571 30.131298793470545  C 32.07561383928572 30.462502957180032  32.24767485119048 30.781286964750418  32.447265625 31.087650816181693  C 32.646856398809526 31.39401466761296  32.80171130952381 31.634137686302342  32.91183035714286 31.808019872249822  C 33.02194940476191 31.981902058197303  33.20089285714286 32.22616512893305  33.448660714285715 32.54080908445706  C 33.69642857142858 32.85545303998107  33.854724702380956 33.062455642299504  33.92354910714286 33.16181689141235  C 33.93731398809524 33.178377099597824  33.96484375000001 33.21563756801514  34.00613839285714 33.273598296664304  C 34.04743303571429 33.33155902531346  34.078404017857146 33.37295954577715  34.099051339285715 33.39779985805536  C 34.11969866071429 33.42264017033357  34.14722842261905 33.464040690797255  34.181640625 33.52200141944642  C 34.216052827380956 33.579962148095575  34.24014136904762 33.62550272060563  34.25390625 33.65862313697658  L 34.30552455357143 33.782824698367634  C 34.30552455357143 33.782824698367634  34.31928943452381 33.83250532292406  34.34681919642857 33.9318665720369  C 34.374348958333336 34.03122782114975  34.37779017857143 34.085048497752545  34.35714285714286 34.09332860184528  C 34.336495535714285 34.10160870593801  34.3296130952381 34.15542938254081  34.336495535714285 34.254790631653655  C 34.29520089285714 34.486633546250296  34.20572916666667 34.66879583629051  34.06808035714286 34.80127750177431  C 33.93043154761905 34.9337591672581  33.77901785714286 34.991719895907266  33.613839285714285 34.975159687721785  C 32.92559523809524 34.859238230423465  32.33370535714286 34.72675656493967  31.838169642857142 34.57771469127041  C 29.71837797619048 33.91530636385143  27.805059523809522 32.85545303998107  26.09821428571429 31.398154719659335  C 24.859375 31.663118050626924  23.64806547619048 31.795599716110715  22.46428571428571 31.795599716110715  C 18.734002976190478 31.795599716110715  15.485491071428571 30.702625975869413  12.71875 28.5166784953868  C 13.517113095238097 28.5829193281287  14.122767857142856 28.61603974449964  14.535714285714285 28.61603974449964  C 16.75186011904762 28.61603974449964  18.878534226190478 28.243435060326473  20.915736607142858 27.498225691980128  C 22.95293898809524 26.753016323633783  24.769903273809522 25.68488289567069  26.36662946428571 24.293825408090846  C 28.087239583333336 22.770286255027205  29.40866815476191 21.014904187366927  30.33091517857143 19.027679205110008  C 31.25316220238095 17.040454222853086  31.71428571428571 14.937307783297843  31.71428571428571 12.718239886444286  C 31.71428571428571 11.443103856162763  31.555989583333332 10.184528034066712  31.23939732142857 8.942512420156138  C 33.015066964285715 10.118287201324815  34.41908482142857 11.59214572983203  35.45145089285714 13.364088005677786  C 36.483816964285715 15.136030281523537  37 17.040454222853086  37 19.07735982966643  C 37 21.064584811923346  36.51134672619048 22.92346818074284  35.53404017857143 24.654009936124908  Z " fill-rule="nonzero" fill="#666666" stroke="none" transform="matrix(1 0 0 1 119 820 )" />
  </g>
</svg>