<?xml version="1.0" encoding="utf-8"?>
<svg version="1.1" xmlns:xlink="http://www.w3.org/1999/xlink" width="33px" height="9px" xmlns="http://www.w3.org/2000/svg">
  <g transform="matrix(1 0 0 1 -315 -258 )">
    <path d="M 8.34375 0.6562499999999997  C 8.781249999999998 1.093749999999996  9 1.6249999999999982  9 2.25  L 9 6.75  C 9 7.374999999999999  8.781249999999998 7.906249999999998  8.34375 8.34375  C 7.906250000000001 8.781249999999998  7.375000000000001 9  6.75 9  L 2.25 9  C 1.6250000000000002 9  1.0937500000000002 8.781249999999998  0.65625 8.34375  C 0.21874999999999997 7.906249999999998  0 7.374999999999999  0 6.75  L 0 2.25  C 0 1.6249999999999982  0.21874999999999997 1.093749999999996  0.65625 0.6562499999999997  C 1.0937500000000002 0.21874999999999822  1.6250000000000002 0  2.25 0  L 6.75 0  C 7.375000000000001 0  7.906250000000001 0.21874999999999822  8.34375 0.6562499999999997  Z M 20.34375 0.6562499999999997  C 20.78125 1.093749999999996  21 1.6249999999999982  21 2.25  L 21 6.75  C 21 7.374999999999999  20.78125 7.906249999999998  20.34375 8.34375  C 19.906250000000004 8.781249999999998  19.375 9  18.75 9  L 14.25 9  C 13.625 9  13.093750000000002 8.781249999999998  12.65625 8.34375  C 12.218750000000002 7.906249999999998  12 7.374999999999999  12 6.75  L 12 2.25  C 12 1.6249999999999982  12.218750000000002 1.093749999999996  12.65625 0.6562499999999997  C 13.093750000000002 0.21874999999999822  13.625 0  14.25 0  L 18.75 0  C 19.375 0  19.906250000000004 0.21874999999999822  20.34375 0.6562499999999997  Z M 32.34375 0.6562499999999997  C 32.78125 1.093749999999996  33 1.6249999999999982  33 2.25  L 33 6.75  C 33 7.374999999999999  32.78125 7.906249999999998  32.34375 8.34375  C 31.906250000000004 8.781249999999998  31.375 9  30.75 9  L 26.25 9  C 25.625000000000004 9  25.093750000000004 8.781249999999998  24.65625 8.34375  C 24.218750000000004 7.906249999999998  24 7.374999999999999  24 6.75  L 24 2.25  C 24 1.6249999999999982  24.218750000000004 1.093749999999996  24.65625 0.6562499999999997  C 25.093750000000004 0.21874999999999822  25.625000000000004 0  26.25 0  L 30.75 0  C 31.375 0  31.906250000000004 0.21874999999999822  32.34375 0.6562499999999997  Z " fill-rule="nonzero" fill="#000000" stroke="none" transform="matrix(1 0 0 1 315 258 )" />
  </g>
</svg>