<?xml version="1.0" encoding="utf-8"?>
<svg version="1.1" xmlns:xlink="http://www.w3.org/1999/xlink" width="43px" height="27px" xmlns="http://www.w3.org/2000/svg">
  <g transform="matrix(1 0 0 1 -326 -1520 )">
    <path d="M 42.2021484375 21.890625  C 42.73404947916667 22.484374999999993  43 23.187499999999993  43 24  C 43 24.812499999999996  42.73404947916667 25.515624999999996  42.2021484375 26.109375  C 41.670247395833336 26.703125000000004  41.040364583333336 27  40.3125 27  L 2.6875 27  C 1.959635416666667 27  1.3297526041666667 26.703125000000004  0.7978515625 26.109375  C 0.2659505208333333 25.515624999999996  0 24.812499999999996  0 24  C 0 23.187499999999993  0.2659505208333333 22.484374999999993  0.7978515625 21.890625  L 19.6103515625 0.8906250000000013  C 20.14225260416667 0.29687499999999645  20.77213541666667 0  21.5 0  C 22.227864583333336 0  22.857747395833336 0.29687499999999645  23.3896484375 0.8906250000000013  L 42.2021484375 21.890625  Z " fill-rule="nonzero" fill="#000000" stroke="none" transform="matrix(1 0 0 1 326 1520 )" />
  </g>
</svg>