<?xml version="1.0" encoding="utf-8"?>
<svg version="1.1" xmlns:xlink="http://www.w3.org/1999/xlink" width="50px" height="34px" xmlns="http://www.w3.org/2000/svg">
  <g transform="matrix(1 0 0 1 -156 -424 )">
    <path d="M 49.072265625 1.1215277777777795  C 49.690755208333336 1.8692129629629595  50 2.754629629629621  50 3.7777777777777795  C 50 4.800925925925923  49.690755208333336 5.686342592592588  49.072265625 6.4340277777777795  L 27.197265625 32.87847222222222  C 26.578776041666668 33.62615740740741  25.846354166666668 34  25 34  C 24.153645833333336 34  23.421223958333336 33.62615740740741  22.802734375 32.87847222222222  L 0.927734375 6.4340277777777795  C 0.30924479166666663 5.686342592592588  0 4.800925925925923  0 3.7777777777777795  C 0 2.754629629629621  0.30924479166666663 1.8692129629629595  0.927734375 1.1215277777777795  C 1.5462239583333335 0.3738425925925881  2.2786458333333335 0  3.125 0  L 46.875 0  C 47.72135416666667 0  48.45377604166667 0.3738425925925881  49.072265625 1.1215277777777795  Z " fill-rule="nonzero" fill="#ffffff" stroke="none" transform="matrix(1 0 0 1 156 424 )" />
  </g>
</svg>