<?xml version="1.0" encoding="utf-8"?>
<svg version="1.1" xmlns:xlink="http://www.w3.org/1999/xlink" width="33px" height="17px" xmlns="http://www.w3.org/2000/svg">
  <g transform="matrix(1 0 0 1 -332 -889 )">
    <path d="M 32.3876953125 13.78298611111111  C 32.7958984375 14.156828703703699  33 14.599537037037033  33 15.11111111111111  C 33 15.622685185185183  32.7958984375 16.065393518518515  32.3876953125 16.43923611111111  C 31.9794921875 16.813078703703706  31.49609375 17  30.9375 17  L 2.0625 17  C 1.5039062500000002 17  1.0205078125 16.813078703703706  0.6123046875 16.43923611111111  C 0.2041015625 16.065393518518515  0 15.622685185185183  0 15.11111111111111  C 0 14.599537037037033  0.2041015625 14.156828703703699  0.6123046875 13.78298611111111  L 15.0498046875 0.5607638888888897  C 15.458007812500002 0.18692129629629406  15.941406250000002 0  16.5 0  C 17.05859375 0  17.5419921875 0.18692129629629406  17.9501953125 0.5607638888888897  L 32.3876953125 13.78298611111111  Z " fill-rule="nonzero" fill="#333333" stroke="none" fill-opacity="0.7843137254901961" transform="matrix(1 0 0 1 332 889 )" />
  </g>
</svg>