<?xml version="1.0" encoding="utf-8"?>
<svg version="1.1" xmlns:xlink="http://www.w3.org/1999/xlink" width="26px" height="27px" xmlns="http://www.w3.org/2000/svg">
  <g transform="matrix(1 0 0 1 -272 -334 )">
    <path d="M 25.387205387205388 20.18181818181818  C 25.795735129068465 20.606060606060602  26 21.121212121212118  26 21.727272727272727  C 26 22.333333333333336  25.795735129068465 22.848484848484848  25.387205387205388 23.272727272727273  L 22.41077441077441 26.363636363636363  C 22.002244668911338 26.78787878787879  21.506172839506174 27  20.922558922558924 27  C 20.338945005611674 27  19.84287317620651 26.78787878787879  19.434343434343436 26.363636363636363  L 13 19.681818181818183  L 6.565656565656566 26.363636363636363  C 6.157126823793491 26.78787878787879  5.661054994388328 27  5.077441077441078 27  C 4.493827160493828 27  3.997755331088665 26.78787878787879  3.5892255892255895 26.363636363636363  L 0.6127946127946128 23.272727272727273  C 0.2042648709315378 22.848484848484848  0 22.333333333333336  0 21.727272727272727  C 0 21.121212121212118  0.2042648709315378 20.606060606060602  0.6127946127946128 20.18181818181818  L 7.047138047138047 13.5  L 0.6127946127946128 6.8181818181818175  C 0.2042648709315378 6.393939393939392  0 5.878787878787879  0 5.2727272727272725  C 0 4.666666666666666  0.2042648709315378 4.151515151515148  0.6127946127946128 3.7272727272727284  L 3.5892255892255895 0.6363636363636365  C 3.997755331088665 0.21212121212121116  4.493827160493828 0  5.077441077441078 0  C 5.661054994388328 0  6.157126823793491 0.21212121212121116  6.565656565656566 0.6363636363636365  L 13 7.318181818181819  L 19.434343434343436 0.6363636363636365  C 19.84287317620651 0.21212121212121116  20.338945005611674 0  20.922558922558924 0  C 21.506172839506174 0  22.002244668911338 0.21212121212121116  22.41077441077441 0.6363636363636365  L 25.387205387205388 3.7272727272727284  C 25.795735129068465 4.151515151515148  26 4.666666666666666  26 5.2727272727272725  C 26 5.878787878787879  25.795735129068465 6.393939393939392  25.387205387205388 6.8181818181818175  L 18.95286195286195 13.5  L 25.387205387205388 20.18181818181818  Z " fill-rule="nonzero" fill="#900c3f" stroke="none" transform="matrix(1 0 0 1 272 334 )" />
  </g>
</svg>