<?xml version="1.0" encoding="utf-8"?>
<svg version="1.1" xmlns:xlink="http://www.w3.org/1999/xlink" width="16px" height="16px" xmlns="http://www.w3.org/2000/svg">
  <g transform="matrix(1 0 0 1 -179 -763 )">
    <path d="M 11.732142857142858 2.8956706884315118  C 12.291666666666668 3.788975632836525  12.571428571428571 4.761769576531819  12.571428571428571 5.8140525195173876  C 12.571428571428571 6.866335462502956  12.291666666666668 7.839129406198248  11.732142857142858 8.732434350603265  C 11.17261904761905 9.625739295008279  10.409226190476192 10.331677312514785  9.441964285714286 10.850248403122782  C 8.474702380952381 11.368819493730776  7.422619047619048 11.628105039034777  6.285714285714286 11.628105039034777  C 5.773809523809525 11.628105039034777  5.25 11.567541991956467  4.714285714285714 11.44641589779986  C 3.9761904761904767 12.112609415661225  3.148809523809524 12.597113792287674  2.232142857142857 12.899929027679205  C 2.017857142857143 12.9680624556423  1.761904761904762 13.028625502720605  1.4642857142857142 13.081618168914122  L 1.4375 13.081618168914122  C 1.3720238095238098 13.081618168914122  1.3110119047619049 13.05133664537497  1.2544642857142858 12.990773598296665  C 1.1979166666666667 12.930210551218359  1.1636904761904763 12.850721551928082  1.1517857142857142 12.752306600425834  C 1.1458333333333335 12.729595457771469  1.1428571428571428 12.704991719895906  1.1428571428571428 12.678495386799149  C 1.1428571428571428 12.65199905370239  1.1443452380952384 12.627395315826828  1.1473214285714286 12.604684173172462  C 1.150297619047619 12.581973030518098  1.15625 12.559261887863734  1.1651785714285714 12.536550745209368  L 1.1875 12.479772888573457  C 1.1875 12.479772888573457  1.1979166666666667 12.45895434114029  1.21875 12.417317246273953  C 1.2395833333333335 12.375680151407616  1.2514880952380953 12.356754199195649  1.2544642857142858 12.360539389638042  C 1.2574404761904763 12.364324580080435  1.2708333333333335 12.345398627868466  1.2946428571428572 12.30376153300213  C 1.3184523809523812 12.262124438135793  1.3303571428571428 12.24509108114502  1.3303571428571428 12.252661462029808  C 1.3601190476190477 12.207239176721078  1.4285714285714286 12.112609415661224  1.5357142857142858 11.968772178850248  C 1.6428571428571428 11.82493494203927  1.7202380952380953 11.713271823988645  1.7678571428571428 11.633782824698368  C 1.8154761904761905 11.554293825408092  1.8824404761904763 11.44452330257866  1.96875 11.304471256210078  C 2.055059523809524 11.164419209841494  2.1294642857142856 11.01868937780932  2.1919642857142856 10.867281760113556  C 2.2544642857142856 10.715874142417789  2.3154761904761907 10.54932576295245  2.375 10.36763662171753  C 1.6369047619047616 9.822569198012776  1.056547619047619 9.152590489709013  0.6339285714285714 8.357700496806245  C 0.21130952380952378 7.562810503903478  0 6.714927844807191  0 5.8140525195173876  C 0 4.761769576531819  0.27976190476190477 3.788975632836525  0.8392857142857143 2.8956706884315118  C 1.398809523809524 2.002365744026495  2.162202380952381 1.2964277265199886  3.1294642857142856 0.7778566359119949  C 4.096726190476191 0.2592855453039977  5.148809523809525 0  6.285714285714286 0  C 7.422619047619048 0  8.474702380952381 0.2592855453039977  9.441964285714286 0.7778566359119949  C 10.409226190476192 1.2964277265199886  11.17261904761905 2.002365744026495  11.732142857142858 2.8956706884315118  Z M 15.330357142857142 6.1092973740241305  C 15.776785714285714 6.919328128696474  16 7.789921930447125  16 8.721078779276082  C 16 9.629524485450673  15.788690476190478 10.479299739768155  15.366071428571429 11.27040454222853  C 14.943452380952383 12.061509344688906  14.36309523809524 12.729595457771469  13.625 13.274662881476225  C 13.684523809523808 13.456352022711142  13.745535714285714 13.622900402176485  13.808035714285714 13.77430801987225  C 13.870535714285717 13.925715637568015  13.944940476190478 14.07144546960019  14.03125 14.211497515968773  C 14.117559523809524 14.351549562337354  14.18452380952381 14.461320085166784  14.232142857142858 14.540809084457061  C 14.279761904761907 14.620298083747338  14.35714285714286 14.731961201797965  14.464285714285714 14.875798438608943  C 14.571428571428573 15.01963567541992  14.639880952380954 15.114265436479773  14.669642857142858 15.159687721788503  C 14.67559523809524 15.167258102673292  14.687500000000002 15.184291459664065  14.705357142857142 15.210787792760824  C 14.723214285714288 15.237284125857581  14.736607142857144 15.256210078069554  14.745535714285714 15.267565649396735  C 14.754464285714288 15.278921220723918  14.76636904761905 15.297847172935889  14.78125 15.324343506032648  C 14.796130952380953 15.350839839129405  14.80654761904762 15.371658386562574  14.8125 15.38679914833215  L 14.834821428571429 15.443577004968063  C 14.834821428571429 15.443577004968063  14.84077380952381 15.466288147622427  14.852678571428571 15.511710432931157  C 14.864583333333334 15.557132718239886  14.866071428571429 15.581736456115449  14.857142857142858 15.585521646557842  C 14.848214285714286 15.589306837000235  14.845238095238097 15.6139105748758  14.848214285714286 15.659332860184527  C 14.830357142857142 15.765318192571563  14.791666666666668 15.848592382304236  14.732142857142858 15.90915542938254  C 14.67261904761905 15.969718476460846  14.607142857142858 15.996214809557607  14.535714285714286 15.988644428672817  C 14.23809523809524 15.9356517624793  13.98214285714286 15.875088715400993  13.767857142857142 15.8069552874379  C 12.851190476190478 15.504140052046369  12.023809523809524 15.01963567541992  11.285714285714286 14.353442157558552  C 10.75 14.474568251715166  10.226190476190478 14.53513129879347  9.714285714285714 14.53513129879347  C 8.101190476190476 14.53513129879347  6.696428571428571 14.035486160397445  5.5 13.036195883605394  C 5.845238095238096 13.066477407144548  6.107142857142857 13.081618168914122  6.285714285714286 13.081618168914122  C 7.2440476190476195 13.081618168914122  8.163690476190476 12.911284599006388  9.044642857142858 12.570617459190915  C 9.925595238095239 12.229950319375444  10.711309523809524 11.7416607523066  11.401785714285714 11.105748757984387  C 12.145833333333334 10.409273716583865  12.717261904761907 9.60681334279631  13.116071428571429 8.698367636621718  C 13.51488095238095 7.789921930447125  13.714285714285714 6.828483558079014  13.714285714285714 5.8140525195173876  C 13.714285714285714 5.231133191388691  13.645833333333332 4.655784244144783  13.508928571428571 4.088005677785663  C 14.276785714285714 4.625502720605629  14.883928571428571 5.299266619351785  15.330357142857142 6.1092973740241305  Z " fill-rule="nonzero" fill="#900c3f" stroke="none" transform="matrix(1 0 0 1 179 763 )" />
  </g>
</svg>