<?xml version="1.0" encoding="utf-8"?>
<svg version="1.1" xmlns:xlink="http://www.w3.org/1999/xlink" width="40px" height="29px" xmlns="http://www.w3.org/2000/svg">
  <g transform="matrix(1 0 0 1 -68 -824 )">
    <path d="M 37.767857142857146 11.142755681818183  C 38.61607142857143 10.607244318181817  39.36011904761905 10.009943181818183  40 9.350852272727272  L 40 25.704545454545453  C 40 26.610795454545453  39.65029761904762 27.386600378787882  38.950892857142854 28.03196022727273  C 38.2514880952381 28.677320075757574  37.41071428571429 29  36.42857142857143 29  L 3.5714285714285716 29  C 2.5892857142857144 29  1.7485119047619049 28.677320075757574  1.049107142857143 28.03196022727273  C 0.3497023809523811 27.386600378787882  0 26.610795454545453  0 25.704545454545453  L 0 9.350852272727272  C 0.6547619047619049 10.02367424242424  1.4062500000000002 10.620975378787875  2.2544642857142856 11.142755681818183  C 7.641369047619049 14.520596590909092  11.339285714285714 16.889204545454547  13.348214285714286 18.248579545454547  C 14.196428571428573 18.82528409090909  14.88467261904762 19.274976325757574  15.412946428571427 19.59765625  C 15.941220238095239 19.920336174242422  16.64434523809524 20.24988162878788  17.522321428571427 20.586292613636367  C 18.40029761904762 20.922703598484848  19.21875 21.09090909090909  19.977678571428573 21.09090909090909  L 20 21.09090909090909  L 20.022321428571427 21.09090909090909  C 20.781250000000004 21.09090909090909  21.59970238095238 20.922703598484848  22.477678571428573 20.586292613636367  C 23.355654761904766 20.24988162878788  24.058779761904766 19.920336174242422  24.587053571428573 19.59765625  C 25.11532738095238 19.274976325757574  25.803571428571427 18.82528409090909  26.651785714285715 18.248579545454547  C 29.181547619047624 16.55965909090909  32.886904761904766 14.191051136363637  37.767857142857146 11.142755681818183  Z M 38.939732142857146 0.9680397727272713  C 39.64657738095238 1.6133996212121189  40 2.389204545454546  40 3.295454545454546  C 40 4.380208333333329  39.63541666666667 5.416903409090908  38.90625 6.405539772727272  C 38.177083333333336 7.394176136363638  37.26934523809524 8.238636363636363  36.183035714285715 8.938920454545455  C 30.587797619047624 12.522727272727272  27.105654761904766 14.754024621212121  25.736607142857146 15.6328125  C 25.587797619047624 15.728929924242424  25.27157738095238 15.938328598484848  24.787946428571427 16.261008522727273  C 24.304315476190478 16.583688446969695  23.902529761904766 16.844578598484848  23.582589285714285 17.043678977272727  C 23.26264880952381 17.242779356060602  22.87574404761905 17.46590909090909  22.421875 17.713068181818183  C 21.968005952380953 17.960227272727273  21.540178571428573 18.14559659090909  21.138392857142854 18.269176136363633  C 20.736607142857146 18.392755681818183  20.364583333333336 18.454545454545453  20.022321428571427 18.454545454545453  L 20 18.454545454545453  L 19.977678571428573 18.454545454545453  C 19.635416666666668 18.454545454545453  19.263392857142858 18.392755681818183  18.861607142857142 18.269176136363633  C 18.459821428571427 18.14559659090909  18.031994047619047 17.960227272727273  17.578125 17.713068181818183  C 17.124255952380953 17.46590909090909  16.73735119047619 17.242779356060602  16.417410714285715 17.043678977272727  C 16.09747023809524 16.844578598484848  15.695684523809526 16.583688446969695  15.212053571428573 16.261008522727273  C 14.72842261904762 15.938328598484848  14.412202380952383 15.728929924242424  14.263392857142858 15.6328125  C 12.90922619047619 14.754024621212121  10.959821428571427 13.501065340909092  8.415178571428571 11.873934659090908  C 5.8705357142857135 10.246803977272725  4.345238095238096 9.268465909090905  3.8392857142857144 8.938920454545455  C 2.916666666666667 8.362215909090905  2.046130952380953 7.569247159090908  1.2276785714285716 6.560014204545454  C 0.40922619047619063 5.55078125  0 4.613636363636362  0 3.748579545454546  C 0 2.677556818181817  0.30877976190476203 1.785037878787875  0.9263392857142859 1.0710227272727288  C 1.5438988095238098 0.357007575757573  2.4255952380952386 0  3.5714285714285716 0  L 36.42857142857143 0  C 37.395833333333336 0  38.232886904761905 0.32267992424242053  38.939732142857146 0.9680397727272713  Z " fill-rule="nonzero" fill="#666666" stroke="none" transform="matrix(1 0 0 1 68 824 )" />
  </g>
</svg>