<?xml version="1.0" encoding="utf-8"?>
<svg version="1.1" xmlns:xlink="http://www.w3.org/1999/xlink" width="32px" height="34px" xmlns="http://www.w3.org/2000/svg">
  <g transform="matrix(1 0 0 1 -286 -171 )">
    <path d="M 31.363636363636363 13.039772727272728  C 31.78787878787879 13.490530303030297  32 14.037878787878787  32 14.68181818181818  L 32 19.318181818181817  C 32 19.962121212121215  31.78787878787879 20.509469696969695  31.363636363636363 20.960227272727273  C 30.93939393939394 21.410984848484844  30.424242424242426 21.636363636363637  29.818181818181817 21.636363636363637  L 20 21.636363636363637  L 20 31.681818181818183  C 20.363636363636363 32.32575757575758  20.151515151515152 32.87310606060606  19.727272727272727 33.32386363636363  C 19.303030303030308 33.77462121212121  18.78787878787879 34  18.181818181818183 34  L 13.818181818181818 34  C 13.212121212121213 34  12.696969696969699 33.77462121212121  12.272727272727273 33.32386363636363  C 11.84848484848485 32.87310606060606  11.636363636363637 32.32575757575758  12 31.681818181818183  L 12 21.636363636363637  L 2.1818181818181817 21.636363636363637  C 1.575757575757576 21.636363636363637  1.0606060606060608 21.410984848484844  0.6363636363636364 20.960227272727273  C 0.2121212121212121 20.509469696969695  0 19.962121212121215  0 19.318181818181817  L 0 14.68181818181818  C 0 14.037878787878787  0.2121212121212121 13.490530303030297  0.6363636363636364 13.039772727272728  C 1.0606060606060608 12.58901515151515  1.575757575757576 12.363636363636363  2.1818181818181817 12.363636363636363  L 12 12.363636363636363  L 12 2.31818181818182  C 11.636363636363637 1.6742424242424228  11.84848484848485 1.1268939393939374  12.272727272727273 0.676136363636364  C 12.696969696969699 0.22537878787878673  13.212121212121213 0  13.818181818181818 0  L 18.181818181818183 0  C 18.78787878787879 0  19.303030303030308 0.22537878787878673  19.727272727272727 0.676136363636364  C 20.151515151515152 1.1268939393939374  20.363636363636363 1.6742424242424228  20 2.31818181818182  L 20 12.363636363636363  L 29.818181818181817 12.363636363636363  C 30.424242424242426 12.363636363636363  30.93939393939394 12.58901515151515  31.363636363636363 13.039772727272728  Z " fill-rule="nonzero" fill="#900c3f" stroke="none" transform="matrix(1 0 0 1 286 171 )" />
  </g>
</svg>