<?xml version="1.0" encoding="utf-8"?>
<svg version="1.1" xmlns:xlink="http://www.w3.org/1999/xlink" width="44px" height="38px" xmlns="http://www.w3.org/2000/svg">
  <g transform="matrix(1 0 0 1 -15 -820 )">
    <path d="M 7.7749999999999995 25.415005861664714  C 9.075000000000003 25.59320046893318  13.316666666666668 25.801094177413052  20.5 26.038686987104338  L 20.125 34.23563892145369  L 20.075 34.72567409144197  L 9.575000000000001 34.07971864009379  C 8.975 34.03516998827667  8.416666666666668 33.80128956623681  7.8999999999999995 33.37807737397421  C 7.383333333333334 32.954865181711604  6.991666666666667 32.468542399374755  6.725 31.919109026963657  C 6.541666666666667 31.51817116060961  6.420833333333335 31.109808518952715  6.3625 30.694021101992963  C 6.304166666666667 30.278233685033214  6.3375 29.795623290347795  6.4625 29.246189917936693  C 6.5875 28.69675654552559  6.6875 28.288393903868695  6.762499999999999 28.021101992966003  C 6.8375 27.753810082063307  7.0166666666666675 27.27862446268073  7.300000000000001 26.595545134818288  C 7.583333333333334 25.912465806955844  7.741666666666667 25.51895271590465  7.7749999999999995 25.415005861664714  Z M 0 12.607268464243845  L 10.825000000000001 12.985932004689332  L 15.325 21.427901524032826  L 11.65 19.378663540445487  C 10.6 20.44783118405627  9.670833333333334 21.52071121531848  8.8625 22.597303634232123  C 8.054166666666667 23.673896053145757  7.449999999999999 24.601992966002346  7.05 25.381594372801878  C 6.6499999999999995 26.161195779601407  6.320833333333335 26.862837045720983  6.0625 27.486518171160608  C 5.804166666666667 28.110199296600236  5.65 28.577960140679956  5.6 28.889800703399764  L 5.5 29.357561547479484  L 0.75 21.405627198124268  C 0.4666666666666668 21.01953888237593  0.3166666666666667 20.603751465416178  0.3 20.158264947245016  C 0.2833333333333334 19.712778429073857  0.33333333333333337 19.36381398983978  0.45 19.11137162954279  L 0.65 18.710433763188746  C 1.2333333333333336 17.77491207502931  2.1833333333333336 16.379054318093004  3.5 14.522860492379834  L 0 12.607268464243845  Z M 40.2 24.99179366940211  L 41.6 24.50175849941383  L 36.9 32.49824150058617  C 36.7 32.92887846815162  36.395833333333336 33.27413051973427  35.9875 33.53399765533411  C 35.57916666666667 33.79386479093396  35.21666666666667 33.94607268464244  34.9 33.990621336459554  L 34.45 34.07971864009379  C 33.266666666666666 34.183665494333724  31.441666666666666 34.27276279796796  28.975 34.34701055099648  L 29.175 38  L 23.424999999999997 29.825322391559205  L 28.7 21.762016412661197  L 28.875 25.615474794841738  C 31.708333333333336 25.853067604533017  34.06666666666667 25.890191481047285  35.949999999999996 25.726846424384526  C 37.833333333333336 25.563501367721766  39.25 25.318483782727625  40.2 24.99179366940211  Z M 21.175 3.140679953106682  C 21.575 3.5416178194607264  21.84166666666667 3.801484955060566  21.975 3.920281359906213  C 21.19166666666667 4.855803048065652  18.983333333333334 8.085580304806566  15.350000000000001 13.609613130128958  L 7.425000000000001 9.444314185228604  L 6.95 9.177022274325909  L 12.575 1.2473622508792503  C 12.908333333333335 0.7870261821023823  13.408333333333333 0.4529112934740125  14.075 0.24501758499413673  C 14.741666666666669 0.03712387651426097  15.408333333333335 -0.037123876514269405  16.075 0.022274325908558268  C 16.475 0.051973427119967885  16.87916666666667 0.14107073075420096  17.287499999999998 0.28956623681125326  C 17.695833333333336 0.43806174286830557  18.045833333333334 0.5939820242282092  18.3375 0.7573270808909727  C 18.62916666666667 0.9206721375537319  18.975 1.1656897225478686  19.375 1.492379835873387  C 19.775 1.8190699491989013  20.075 2.0752246971473216  20.275000000000002 2.260844079718639  C 20.475 2.446463462289956  20.775 2.7397420867526376  21.175 3.140679953106682  Z M 37.875 11.003516998827667  L 38.35 10.75849941383353  L 43.65 18.844079718640092  C 43.95 19.393513091051194  44.05416666666667 19.957796014068  43.9625 20.536928487690503  C 43.87083333333334 21.11606096131301  43.64166666666667 21.665494333724112  43.275 22.1852286049238  C 43.05833333333334 22.482219617037902  42.78333333333334 22.756936303243453  42.449999999999996 23.009378663540446  C 42.11666666666667 23.261821023837435  41.8 23.46971473231731  41.5 23.63305978898007  C 41.2 23.79640484564283  40.795833333333334 23.95974990230559  40.2875 24.12309495896835  C 39.77916666666667 24.286440015631108  39.387499999999996 24.405236420476744  39.1125 24.479484173505274  C 38.8375 24.5537319265338  38.40833333333334 24.65767878077374  37.824999999999996 24.79132473622509  C 37.24166666666667 24.924970691676435  36.858333333333334 25.01406799531067  36.675 25.05861664712778  C 36.108333333333334 23.989449003517002  33.900000000000006 20.75224697147323  30.05 15.347010550996481  L 37.875 11.003516998827667  Z M 31.974999999999998 1.492379835873387  C 32.625 2.398202422821412  33.55833333333334 3.8089097303634216  34.775 5.724501758499416  L 38.324999999999996 3.8757327080890964  L 32.824999999999996 12.184056271981241  L 22.349999999999998 11.738569753810081  L 26.125 9.822977725674091  C 25.558333333333337 8.50136772176631  24.933333333333334 7.2688550214927705  24.25 6.125439624853461  C 23.56666666666667 4.982024228214142  22.937500000000004 4.065064478311841  22.362499999999997 3.3745603751465394  C 21.7875 2.684056271981242  21.250000000000004 2.0900742477530283  20.75 1.5926143024618993  C 20.250000000000004 1.095154357170766  19.858333333333338 0.7499023055881171  19.575 0.5568581477139525  L 19.150000000000002 1  L 29.275 1  C 29.791666666666668 0.24501758499413673  30.275000000000002 0.32297772567409067  30.724999999999998 0.5234466588511151  C 31.174999999999997 0.7239155920281353  31.5 0.9355216881594388  31.7 1.1582649472450173  L 31.974999999999998 1.492379835873387  Z " fill-rule="nonzero" fill="#666666" stroke="none" transform="matrix(1 0 0 1 15 820 )" />
  </g>
</svg>